<svg width="15" height="16" viewBox="0 0 15 16" fill="none" xmlns="http://www.w3.org/2000/svg">
<path fill-rule="evenodd" clip-rule="evenodd" d="M7.5 15.2373C6.01664 15.2373 4.56659 14.7974 3.33322 13.9733C2.09986 13.1492 1.13857 11.9779 0.570908 10.6074C0.00325078 9.23699 -0.145276 7.72899 0.144113 6.27413C0.433502 4.81927 1.14781 3.4829 2.1967 2.434C3.2456 1.38511 4.58197 0.670805 6.03682 0.381416C7.49168 0.0920273 8.99968 0.24056 10.3701 0.808217C11.7406 1.37587 12.9119 2.33716 13.736 3.57053C14.5601 4.8039 15 6.25395 15 7.73731C15 9.72643 14.2098 11.6341 12.8033 13.0406C11.3968 14.4471 9.48913 15.2373 7.5 15.2373ZM11.8162 5.07689C11.65 4.91079 11.4246 4.81749 11.1896 4.81749C10.9546 4.81749 10.7292 4.91079 10.5629 5.07689L6.23917 9.40064L4.83584 7.9973C4.66999 7.83785 4.44822 7.74981 4.21816 7.75207C3.98811 7.75433 3.76811 7.84672 3.60543 8.0094C3.44275 8.17208 3.35035 8.39208 3.34809 8.62214C3.34583 8.85219 3.43388 9.07395 3.59334 9.2398L5.58125 11.2277C5.76694 11.3887 6.00446 11.4773 6.25021 11.4773C6.49597 11.4773 6.73348 11.3887 6.91917 11.2277L11.8162 6.33064C11.8986 6.24833 11.9639 6.15061 12.0085 6.04305C12.0531 5.93549 12.076 5.8202 12.076 5.70377C12.076 5.58734 12.0531 5.47204 12.0085 5.36448C11.9639 5.25692 11.8986 5.15919 11.8162 5.07689Z" fill="#32CE8D"/>
</svg>
