<svg width="65" height="49" viewBox="0 0 65 49" fill="none" xmlns="http://www.w3.org/2000/svg">
<path d="M50.201 30.4829C47.5838 30.4829 44.9678 30.4852 42.3506 30.4817C41.257 30.4805 40.8764 30.1054 40.8752 29.0273C40.8728 25.3262 40.8958 21.6239 40.8595 17.9227C40.8498 16.9269 41.3815 16.4061 42.382 16.4225C44.6331 16.4602 46.8853 16.4402 49.1364 16.4331C51.0879 16.4261 53.0393 16.3967 54.9907 16.3931C56.0564 16.3908 57.1222 16.446 58.1879 16.4272C58.9491 16.4143 59.4868 16.8517 59.5847 17.6617C59.6004 17.7969 59.5931 17.9357 59.5931 18.0721C59.5931 21.6756 59.5956 25.2792 59.5883 28.8827C59.5883 29.1731 59.5641 29.4753 59.4771 29.7504C59.3297 30.2183 58.8597 30.4793 58.2314 30.4805C55.555 30.4852 52.8786 30.4829 50.201 30.4829ZM51.0371 24.0729C51.9977 23.3392 52.1379 22.3364 51.4201 21.5569C50.7834 20.8655 49.6838 20.8303 48.9999 21.4793C48.2302 22.2094 48.3643 23.284 49.3503 24.1364C49.3503 24.3503 49.3503 24.5843 49.3503 24.8183C49.3503 25.0534 49.3467 25.2886 49.3515 25.5237C49.3624 26.101 49.6898 26.4666 50.1901 26.4607C50.6746 26.456 51.0226 26.0751 51.0359 25.5096C51.0456 25.0393 51.0371 24.5702 51.0371 24.0729Z" fill="#003A70"/>
<path d="M50.4477 36.1919C50.4477 36.5082 50.4477 36.8139 50.4477 37.216C50.6253 37.0878 50.7401 37.0278 50.8247 36.9408C52.4015 35.3172 55.4464 35.7628 56.7006 37.5111C57.9645 39.2723 58.0201 41.5449 56.7937 43.3367C55.4621 45.2813 52.4873 45.7011 50.6748 43.9011C50.6748 45.6223 50.6748 47.2883 50.6748 49.0001C49.6683 49.0001 48.7162 49.0001 47.7266 49.0001C47.7266 44.7523 47.7266 40.4938 47.7266 36.1919C48.6171 36.1919 49.51 36.1919 50.4477 36.1919ZM54.8048 40.4198C54.8181 39.0877 53.9989 38.1906 52.7422 38.1612C51.5327 38.133 50.5419 39.1382 50.5359 40.3998C50.5298 41.6507 51.5122 42.6748 52.7181 42.6736C53.9276 42.6724 54.7915 41.7401 54.8048 40.4198Z" fill="#003A70"/>
<path d="M8.51254 34.8268C6.66382 34.8268 4.85618 34.8268 3.00141 34.8268C3.00141 35.6287 3.00141 36.3999 3.00141 37.2312C4.72447 37.2312 6.46565 37.2312 8.23705 37.2312C8.23705 38.0283 8.23705 38.7655 8.23705 39.5638C6.50553 39.5638 4.76555 39.5638 2.98933 39.5638C2.98933 40.4573 2.98933 41.2921 2.98933 42.1821C4.91901 42.1821 6.86077 42.1821 8.84 42.1821C8.84 43.0474 8.84 43.8575 8.84 44.6957C5.91829 44.6957 3.00987 44.6957 0.0664062 44.6957C0.0664062 40.5937 0.0664062 36.5069 0.0664062 32.3813C2.86124 32.3813 5.66816 32.3813 8.51254 32.3813C8.51254 33.1726 8.51254 33.965 8.51254 34.8268Z" fill="#003A70"/>
<path d="M43.7374 16.3674C43.3822 13.3093 44.0214 10.7263 46.9201 9.02623C50.8689 6.7089 56.09 9.14733 56.6966 13.5962C56.8186 14.4956 56.7147 15.4245 56.7147 16.3756C55.5124 16.3756 54.3343 16.3756 53.062 16.3756C53.062 15.8324 53.068 15.2916 53.0608 14.7508C53.0499 13.9442 52.8445 13.2118 52.2379 12.618C51.4005 11.7986 50.2744 11.5505 49.199 11.969C48.0849 12.4017 47.4288 13.3364 47.4204 14.5097C47.4155 15.1141 47.4191 15.7184 47.4191 16.3674C46.1613 16.3674 44.9494 16.3674 43.7374 16.3674Z" fill="#FFA400"/>
<path d="M41.9658 41.7367C42.5965 39.7627 43.1862 37.9168 43.7794 36.058C44.7981 36.058 45.7792 36.058 46.7712 36.058C46.7797 36.1145 46.8111 36.178 46.793 36.2238C45.4252 39.6522 44.0622 43.0829 42.6775 46.5042C42.2606 47.5342 41.619 48.4101 40.4747 48.7628C39.4779 49.0696 38.4568 48.992 37.3754 48.8239C37.4781 48.0174 37.5772 47.2532 37.6738 46.4925C39.7376 46.436 39.7376 46.436 40.4155 44.5996C39.1818 41.7779 37.9373 38.9338 36.6758 36.0498C37.7874 36.0498 38.8278 36.0498 39.9141 36.0498C40.5786 37.891 41.2456 39.7404 41.9658 41.7367Z" fill="#003A70"/>
<path d="M18.1792 26.7766C16.0247 26.7766 13.8993 26.7766 11.7268 26.7766C11.8416 27.5914 12.3213 28.0217 13.0016 28.2592C14.1072 28.6448 15.0496 28.3615 15.8459 27.515C16.5117 27.9265 17.1702 28.3333 17.8529 28.7554C17.0289 29.8735 15.8991 30.4143 14.5784 30.5683C13.5538 30.6882 12.5327 30.5965 11.5673 30.1838C9.73428 29.3985 8.67821 27.582 8.88 25.5621C9.07937 23.5564 10.4605 21.9809 12.4433 21.5353C13.5211 21.2931 14.5989 21.3096 15.632 21.7387C17.2741 22.4194 17.952 23.7598 18.1695 25.3787C18.2287 25.8161 18.1792 26.2687 18.1792 26.7766ZM15.4955 24.9637C15.4146 23.9079 14.8575 23.3577 13.8752 23.3024C12.7333 23.2389 11.7183 23.9584 11.6954 24.9637C12.9508 24.9637 14.2062 24.9637 15.4955 24.9637Z" fill="#003A70"/>
<path d="M10.7578 44.7708C10.7578 41.875 10.7578 39.0227 10.7578 36.1328C11.6882 36.1328 12.5993 36.1328 13.5538 36.1328C13.5538 36.4679 13.5538 36.7924 13.5538 37.1169C13.6034 37.151 13.6529 37.1863 13.7025 37.2204C13.781 37.0957 13.8414 36.9558 13.9405 36.85C14.7742 35.9553 15.8387 35.7037 17.0108 35.9224C18.4596 36.1916 19.4105 37.1874 19.4794 38.7041C19.57 40.7122 19.5023 42.7274 19.5023 44.7696C18.578 44.7696 17.6838 44.7696 16.7232 44.7696C16.7232 43.5527 16.7353 42.3453 16.7184 41.139C16.7099 40.5159 16.6942 39.888 16.6048 39.272C16.5021 38.5712 16.1928 38.2844 15.6152 38.1903C14.9651 38.0857 14.3525 38.3008 14.077 38.8511C13.874 39.2567 13.7242 39.7281 13.7085 40.1761C13.6614 41.5058 13.6916 42.8379 13.6916 44.1688C13.6916 44.3593 13.6916 44.5497 13.6916 44.7696C12.6947 44.7708 11.7559 44.7708 10.7578 44.7708Z" fill="#003A70"/>
<path d="M0.0703125 18.0005C1.07079 18.0005 2.04469 18.0005 3.06571 18.0005C3.06571 21.249 3.06571 24.4716 3.06571 27.746C4.72835 27.746 6.34748 27.746 7.99683 27.746C7.99683 28.6277 7.99683 29.459 7.99683 30.3196C5.36029 30.3196 2.73464 30.3196 0.0703125 30.3196C0.0703125 26.2175 0.0703125 22.1214 0.0703125 18.0005Z" fill="#003A70"/>
<path d="M28.4492 29.1798C29.0268 28.6837 29.5838 28.2051 30.1868 27.6867C30.368 27.8054 30.6326 28.0065 30.9214 28.1652C31.5147 28.4908 32.1479 28.6472 32.8269 28.4591C33.1338 28.3745 33.3719 28.2122 33.4033 27.8642C33.4335 27.5209 33.2498 27.2928 32.9574 27.1717C32.6106 27.0283 32.2421 26.9307 31.8796 26.826C31.4978 26.7144 31.1051 26.6344 30.7269 26.511C29.8424 26.2194 29.2298 25.6339 29.0739 24.738C28.8987 23.7304 29.2044 22.8463 30.0756 22.1961C30.8973 21.5824 31.8506 21.379 32.8487 21.4201C34.1065 21.473 35.3112 21.7317 36.2332 22.5747C35.7184 23.1132 35.217 23.6387 34.7228 24.156C33.2051 23.2249 32.4983 23.1461 31.7564 23.8021C31.6839 24.4311 31.7249 24.5228 32.3049 24.7109C32.7206 24.8462 33.1556 24.9273 33.5737 25.0554C33.9531 25.1718 34.3361 25.2929 34.6938 25.4575C35.5915 25.8702 36.1643 26.5168 36.1872 27.5373C36.2114 28.6319 35.7655 29.4808 34.7784 30.0075C33.3525 30.7682 31.8567 30.7259 30.3475 30.272C29.4739 30.0099 29.0558 29.7618 28.4492 29.1798Z" fill="#003A70"/>
<path d="M27.4656 41.9847C28.0142 42.6467 28.5302 43.2698 29.0437 43.8906C27.2554 45.5154 23.7199 45.3449 22.0005 43.5731C20.2822 41.8013 20.339 38.7774 22.1104 37.0926C24.0365 35.2608 27.5877 35.456 29.0787 36.9609C28.4975 37.5688 27.9127 38.1801 27.3303 38.7891C26.2561 37.9332 25.1662 37.9003 24.405 38.6845C23.5048 39.611 23.4541 41.0771 24.2938 41.9236C25.1783 42.8148 26.4072 42.8559 27.4656 41.9847Z" fill="#003A70"/>
<path d="M59.5038 33.77C60.5079 33.77 61.4263 33.77 62.4038 33.77C62.4038 34.5248 62.4038 35.2585 62.4038 36.0286C63.1022 36.0286 63.7402 36.0286 64.4229 36.0286C64.4229 36.7387 64.4229 37.4112 64.4229 38.1343C63.7765 38.1343 63.1191 38.1343 62.4123 38.1343C62.4123 39.4322 62.3808 40.6832 62.4256 41.9318C62.4473 42.5232 62.95 42.83 63.6447 42.7854C63.8598 42.7712 64.0725 42.7207 64.348 42.676C64.348 43.3485 64.348 43.9881 64.348 44.6489C63.3548 45.1979 61.2631 45.0333 60.3883 44.3067C59.9038 43.9035 59.6633 43.3591 59.6295 42.7607C59.5642 41.6085 59.5485 40.4539 59.5183 39.3006C59.5086 38.9326 59.5171 38.5646 59.5171 38.1578C59.0398 38.1578 58.6229 38.1578 58.1602 38.1578C58.1602 37.4488 58.1602 36.7775 58.1602 36.0427C58.5964 36.0427 59.0277 36.0427 59.5038 36.0427C59.5038 35.2643 59.5038 34.5472 59.5038 33.77Z" fill="#003A70"/>
<path d="M24.9381 28.2979C24.9381 28.9598 24.9381 29.6205 24.9381 30.3166C23.8011 30.6563 22.6749 30.7281 21.5488 30.2531C20.7767 29.9274 20.3574 29.3372 20.2438 28.5565C20.1568 27.9604 20.129 27.3526 20.1169 26.7494C20.0976 25.776 20.1121 24.8013 20.1121 23.7749C19.6179 23.7749 19.166 23.7749 18.6875 23.7749C18.6875 23.0483 18.6875 22.3746 18.6875 21.661C19.1394 21.661 19.5744 21.661 20.0698 21.661C20.0698 20.8885 20.0698 20.1549 20.0698 19.3789C21.0594 19.3789 21.9898 19.3789 22.9794 19.3789C22.9794 20.1255 22.9794 20.858 22.9794 21.6351C23.6911 21.6351 24.3472 21.6351 25.0348 21.6351C25.0348 22.3535 25.0348 23.0271 25.0348 23.749C24.3823 23.749 23.7274 23.749 22.9891 23.749C22.9891 24.2946 22.9879 24.7931 22.9891 25.2927C22.9915 25.9582 22.9806 26.6236 23.0024 27.2879C23.029 28.098 23.3274 28.3684 24.1539 28.3613C24.4064 28.3566 24.6578 28.3214 24.9381 28.2979Z" fill="#003A70"/>
<path d="M30.1821 36.0542C31.0811 36.0542 31.9583 36.0542 32.8936 36.0542C32.8936 36.4387 32.8936 36.8161 32.8936 37.1947C32.9262 37.2241 32.9576 37.2546 32.9902 37.284C33.7068 36.1624 34.7048 35.6698 36.0714 35.8649C36.0183 36.6856 35.9651 37.4804 35.9095 38.3339C35.7392 38.3339 35.5664 38.3339 35.3948 38.3339C33.8481 38.3281 33.0531 39.0887 33.0482 40.5866C33.0446 41.7611 33.047 42.9345 33.047 44.109C33.047 44.2995 33.047 44.4911 33.047 44.7028C32.0671 44.7028 31.1475 44.7028 30.1797 44.7028C30.1821 41.847 30.1821 38.9829 30.1821 36.0542Z" fill="#003A70"/>
<path d="M40.1828 3.92676C40.4474 4.04668 40.7471 4.1231 40.9694 4.29476C41.9433 5.04486 42.8967 5.81966 43.8524 6.59328C44.2669 6.92953 44.4844 7.33633 44.2911 7.88069C44.0446 8.57318 43.1806 8.88004 42.5849 8.42857C41.5107 7.6138 40.4643 6.76376 39.4179 5.91607C38.9986 5.57629 38.9455 5.11658 39.1098 4.63807C39.2512 4.22304 39.6475 3.99612 40.1828 3.92676Z" fill="#FFA400"/>
<path d="M60.2867 3.95166C60.7967 3.99399 61.1302 4.2209 61.3307 4.65826C61.5506 5.13913 61.4129 5.55651 61.0395 5.87277C60.1925 6.58996 59.3177 7.2754 58.4525 7.97259C58.2676 8.12191 58.0876 8.27945 57.8906 8.41231C57.3952 8.74739 56.7222 8.68507 56.3621 8.28298C55.9863 7.86325 55.973 7.1108 56.4177 6.74045C57.4822 5.85161 58.5794 4.99922 59.6777 4.15036C59.8372 4.02926 60.0825 4.01515 60.2867 3.95166Z" fill="#FFA400"/>
<path d="M61.8955 12.4674C62.5395 12.4674 63.1835 12.4603 63.8276 12.4697C64.5163 12.4803 64.9477 12.8636 64.9936 13.4844C65.0383 14.0828 64.6468 14.5966 63.9653 14.6213C62.5806 14.6718 61.1923 14.6718 59.8075 14.6236C59.1514 14.6001 58.7309 14.0487 58.7769 13.4738C58.824 12.8918 59.3013 12.4791 59.9646 12.4697C60.6074 12.4603 61.2515 12.4674 61.8955 12.4674Z" fill="#FFA400"/>
<path d="M49.1019 3.02028C49.1019 2.37481 49.0922 1.72935 49.1055 1.08388C49.1176 0.493673 49.5224 0.0551323 50.0722 0.00692817C50.7452 -0.0518574 51.2298 0.264409 51.3059 0.91928C51.3796 1.55652 51.3639 2.20551 51.3627 2.8498C51.3603 3.61048 51.3639 4.3747 51.2986 5.13185C51.2564 5.61977 50.8987 5.92899 50.4576 6.00658C49.9743 6.09241 49.4994 5.9137 49.2662 5.50691C49.1647 5.32937 49.1164 5.10364 49.1091 4.89789C49.0886 4.27241 49.1019 3.64693 49.1019 3.02028Z" fill="#FFA400"/>
<path d="M38.4922 12.4674C39.135 12.4674 39.7778 12.4592 40.4207 12.4698C41.0852 12.4815 41.548 12.8989 41.5855 13.4973C41.6193 14.0487 41.2109 14.5849 40.5862 14.6166C39.3839 14.6789 38.178 14.6613 36.9733 14.6672C36.734 14.6683 36.49 14.6507 36.2567 14.6013C35.765 14.4967 35.458 14.1416 35.4085 13.6631C35.3578 13.1693 35.6236 12.7143 36.0936 12.5438C36.2568 12.485 36.4453 12.4721 36.6217 12.4698C37.2464 12.4615 37.8687 12.4674 38.4922 12.4674Z" fill="#FFA400"/>
<path d="M26.4725 22.9405C26.4725 22.5101 26.4725 22.1222 26.4725 21.6977C27.0996 21.5178 27.6772 21.2451 27.8681 20.5114C27.7473 20.4973 27.6687 20.4867 27.589 20.4809C26.7323 20.4091 26.2526 19.9165 26.2659 19.1206C26.278 18.3799 26.8495 17.8097 27.6337 17.7567C28.5931 17.6921 29.2721 18.1729 29.434 19.1018C29.7083 20.6749 28.9265 22.4372 26.9619 22.9028C26.8145 22.9369 26.655 22.9263 26.4725 22.9405Z" fill="#003A70"/>
</svg>
