<svg width="512" height="512" viewBox="0 0 512 512" fill="none" xmlns="http://www.w3.org/2000/svg">
<rect x="6" y="110" width="499.495" height="293" rx="146.5" fill="#015AFF"/>
<rect x="230.629" y="136.503" width="245.562" height="239.981" rx="119.99" fill="white"/>
<path d="M428.507 224.746C408.51 204.749 381.902 193.676 353.475 193.676C325.049 193.676 298.441 204.749 278.443 224.746C273.816 229.374 273.816 236.645 278.443 241.273C280.757 243.587 283.732 244.744 286.707 244.744C289.682 244.744 292.656 243.587 294.97 241.273C310.505 225.572 331.329 216.978 353.475 216.978C375.621 216.978 396.445 225.572 411.98 241.273C416.608 245.9 423.88 245.9 428.507 241.273C433.135 236.645 433.135 229.208 428.507 224.746Z" fill="#216CF6"/>
<path d="M309.506 255.979C304.878 260.606 304.878 267.878 309.506 272.505C311.82 274.819 314.794 275.976 317.769 275.976C320.744 275.976 323.719 274.819 326.033 272.505C341.237 257.301 365.862 257.301 380.902 272.34C385.364 276.968 392.801 276.968 397.429 272.34C402.056 267.713 402.056 260.441 397.429 255.813C373.134 231.684 333.8 231.684 309.506 255.979Z" fill="#216CF6"/>
<path d="M353.644 317.954C363.685 317.954 371.824 309.814 371.824 299.774C371.824 289.734 363.685 281.595 353.644 281.595C343.604 281.595 335.465 289.734 335.465 299.774C335.465 309.814 343.604 317.954 353.644 317.954Z" fill="#216CF6"/>
</svg>
