<svg width="113" height="28" viewBox="0 0 113 28" fill="none" xmlns="http://www.w3.org/2000/svg">
<path d="M26.8011 11.3636C26.7415 10.8598 26.4995 10.4688 26.0753 10.1903C25.651 9.91193 25.1307 9.77273 24.5142 9.77273C24.0634 9.77273 23.669 9.84564 23.331 9.99148C22.9962 10.1373 22.7344 10.3378 22.5455 10.593C22.3598 10.8482 22.267 11.1383 22.267 11.4631C22.267 11.7348 22.3317 11.9685 22.4609 12.1641C22.5935 12.3563 22.7625 12.517 22.968 12.6463C23.1735 12.7723 23.389 12.8767 23.6143 12.9595C23.8397 13.0391 24.0469 13.1037 24.2358 13.1534L25.2699 13.4318C25.535 13.5014 25.83 13.5975 26.1548 13.7202C26.483 13.8428 26.7962 14.0102 27.0945 14.2223C27.3961 14.4311 27.6446 14.6996 27.8402 15.0277C28.0357 15.3558 28.1335 15.7585 28.1335 16.2358C28.1335 16.786 27.9893 17.2831 27.701 17.7273C27.416 18.1714 26.9983 18.5244 26.4482 18.7862C25.9013 19.0481 25.2367 19.179 24.4545 19.179C23.7254 19.179 23.094 19.0613 22.5604 18.826C22.0301 18.5907 21.6125 18.2625 21.3075 17.8416C21.0059 17.4207 20.8352 16.9318 20.7955 16.375H22.0682C22.1013 16.7595 22.2306 17.0777 22.456 17.3295C22.6847 17.5781 22.973 17.7637 23.321 17.8864C23.6723 18.0057 24.0502 18.0653 24.4545 18.0653C24.9252 18.0653 25.3478 17.9891 25.7223 17.8366C26.0968 17.6809 26.3935 17.4654 26.6122 17.1903C26.831 16.9119 26.9403 16.5871 26.9403 16.2159C26.9403 15.8778 26.8459 15.6027 26.657 15.3906C26.468 15.1785 26.2195 15.0062 25.9112 14.8736C25.603 14.741 25.2699 14.625 24.9119 14.5256L23.6591 14.1676C22.8636 13.9389 22.2339 13.6125 21.7699 13.1882C21.3059 12.764 21.0739 12.2088 21.0739 11.5227C21.0739 10.9527 21.228 10.4555 21.5362 10.0312C21.8478 9.60369 22.2654 9.27225 22.7891 9.03693C23.3161 8.7983 23.9044 8.67898 24.554 8.67898C25.2102 8.67898 25.7936 8.79664 26.304 9.03196C26.8144 9.26397 27.2188 9.58215 27.517 9.98651C27.8187 10.3909 27.9777 10.8499 27.9943 11.3636H26.8011ZM32.2488 19.179C31.7649 19.179 31.3257 19.0878 30.9313 18.9055C30.5369 18.7199 30.2237 18.4531 29.9917 18.1051C29.7596 17.7538 29.6436 17.3295 29.6436 16.8324C29.6436 16.3949 29.7298 16.0402 29.9022 15.7685C30.0745 15.4934 30.3049 15.2779 30.5932 15.1222C30.8816 14.9664 31.1998 14.8504 31.5478 14.7741C31.8991 14.6946 32.2521 14.6316 32.6067 14.5852C33.0707 14.5256 33.4469 14.4808 33.7353 14.451C34.0269 14.4179 34.2391 14.3632 34.3716 14.2869C34.5075 14.2107 34.5755 14.0781 34.5755 13.8892V13.8494C34.5755 13.3589 34.4412 12.9777 34.1728 12.706C33.9076 12.4342 33.5049 12.2983 32.9647 12.2983C32.4045 12.2983 31.9654 12.4209 31.6472 12.6662C31.329 12.9115 31.1053 13.1733 30.976 13.4517L29.8624 13.054C30.0613 12.59 30.3264 12.2287 30.6578 11.9702C30.9926 11.7083 31.3572 11.526 31.7516 11.4233C32.1493 11.3172 32.5404 11.2642 32.9249 11.2642C33.1702 11.2642 33.4519 11.294 33.7701 11.3537C34.0916 11.41 34.4015 11.5277 34.6998 11.7067C35.0014 11.8857 35.2516 12.1558 35.4505 12.517C35.6493 12.8783 35.7488 13.3622 35.7488 13.9688V19H34.5755V17.9659H34.5158C34.4363 18.1316 34.3037 18.3089 34.1181 18.4979C33.9325 18.6868 33.6855 18.8475 33.3773 18.9801C33.0691 19.1127 32.6929 19.179 32.2488 19.179ZM32.4277 18.125C32.8917 18.125 33.2828 18.0339 33.601 17.8516C33.9225 17.6693 34.1645 17.4339 34.3269 17.1456C34.4926 16.8572 34.5755 16.554 34.5755 16.2358V15.1619C34.5257 15.2216 34.4164 15.2763 34.2473 15.326C34.0816 15.3724 33.8894 15.4138 33.6706 15.4503C33.4552 15.4834 33.2447 15.5133 33.0392 15.5398C32.8371 15.563 32.673 15.5829 32.5471 15.5994C32.2421 15.6392 31.9571 15.7038 31.6919 15.7933C31.4301 15.8795 31.218 16.0104 31.0556 16.1861C30.8965 16.3584 30.8169 16.5937 30.8169 16.892C30.8169 17.2997 30.9677 17.608 31.2694 17.8168C31.5743 18.0223 31.9604 18.125 32.4277 18.125ZM41.2908 11.3636V12.358H37.1744V11.3636H41.2908ZM38.4073 19V10.3097C38.4073 9.87216 38.5101 9.50758 38.7156 9.21591C38.921 8.92424 39.1879 8.70549 39.516 8.55966C39.8441 8.41383 40.1905 8.34091 40.555 8.34091C40.8434 8.34091 41.0787 8.36411 41.261 8.41051C41.4433 8.45691 41.5792 8.5 41.6687 8.53977L41.3306 9.55398C41.271 9.53409 41.1881 9.50923 41.082 9.4794C40.9793 9.44957 40.8434 9.43466 40.6744 9.43466C40.2866 9.43466 40.0065 9.53243 39.8342 9.72798C39.6651 9.92353 39.5806 10.2102 39.5806 10.5881V19H38.4073ZM45.8224 19.1591C45.0866 19.1591 44.4519 18.9967 43.9183 18.6719C43.388 18.3438 42.9787 17.8864 42.6903 17.2997C42.4053 16.7098 42.2628 16.0237 42.2628 15.2415C42.2628 14.4593 42.4053 13.7699 42.6903 13.1733C42.9787 12.5734 43.3797 12.1061 43.8935 11.7713C44.4105 11.4332 45.0137 11.2642 45.7031 11.2642C46.1009 11.2642 46.4936 11.3305 46.8814 11.4631C47.2692 11.5956 47.6222 11.8111 47.9403 12.1094C48.2585 12.4044 48.5121 12.7955 48.701 13.2827C48.8899 13.7699 48.9844 14.3698 48.9844 15.0824V15.5795H43.098V14.5653H47.7912C47.7912 14.1345 47.705 13.75 47.5327 13.4119C47.3636 13.0739 47.1217 12.8071 46.8068 12.6115C46.4953 12.416 46.1274 12.3182 45.7031 12.3182C45.2358 12.3182 44.8314 12.4342 44.4901 12.6662C44.152 12.8949 43.8918 13.1932 43.7095 13.5611C43.5272 13.929 43.4361 14.3234 43.4361 14.7443V15.4205C43.4361 15.9972 43.5355 16.486 43.7344 16.8871C43.9366 17.2848 44.2166 17.5881 44.5746 17.7969C44.9325 18.0024 45.3485 18.1051 45.8224 18.1051C46.1307 18.1051 46.4091 18.062 46.6577 17.9759C46.9096 17.8864 47.1267 17.7538 47.3089 17.5781C47.4912 17.3991 47.6321 17.1771 47.7315 16.9119L48.8651 17.2301C48.7457 17.6146 48.5452 17.9527 48.2635 18.2443C47.9818 18.5327 47.6338 18.758 47.2195 18.9205C46.8052 19.0795 46.3395 19.1591 45.8224 19.1591ZM57.5902 19.1392C56.9207 19.1392 56.344 19.0166 55.8601 18.7713C55.3762 18.526 55.0033 18.1896 54.7415 17.7621C54.4796 17.3345 54.3487 16.8456 54.3487 16.2955C54.3487 15.8712 54.4382 15.495 54.6172 15.1669C54.7995 14.8355 55.0497 14.5289 55.3679 14.2472C55.6894 13.9621 56.0589 13.6771 56.4766 13.392L57.9482 12.2983C58.2365 12.1094 58.4669 11.9072 58.6392 11.6918C58.8149 11.4763 58.9027 11.1946 58.9027 10.8466C58.9027 10.5881 58.7884 10.3378 58.5597 10.0959C58.3343 9.85393 58.0376 9.73295 57.6697 9.73295C57.4112 9.73295 57.1825 9.79924 56.9837 9.93182C56.7881 10.0611 56.634 10.2268 56.5213 10.429C56.4119 10.6278 56.3572 10.8333 56.3572 11.0455C56.3572 11.2841 56.4219 11.526 56.5511 11.7713C56.6837 12.0133 56.8511 12.2618 57.0533 12.517C57.2588 12.7689 57.4709 13.0275 57.6896 13.2926L62.3629 19H60.951L57.093 14.3466C56.7351 13.9157 56.4103 13.5246 56.1186 13.1733C55.8269 12.822 55.5949 12.4756 55.4226 12.1342C55.2502 11.7929 55.1641 11.4233 55.1641 11.0256C55.1641 10.5682 55.2652 10.1671 55.4673 9.82244C55.6728 9.47443 55.9595 9.20431 56.3274 9.01207C56.6986 8.81652 57.1328 8.71875 57.63 8.71875C58.1404 8.71875 58.5795 8.81818 58.9474 9.01705C59.3153 9.21259 59.5987 9.47277 59.7976 9.79758C59.9964 10.1191 60.0959 10.4688 60.0959 10.8466C60.0959 11.3338 59.9749 11.7564 59.733 12.1143C59.491 12.4723 59.1612 12.8054 58.7436 13.1136L56.7152 14.625C56.2578 14.9631 55.9479 15.2912 55.7855 15.6094C55.6231 15.9276 55.5419 16.1562 55.5419 16.2955C55.5419 16.6136 55.6248 16.9103 55.7905 17.1854C55.9562 17.4605 56.1899 17.6825 56.4915 17.8516C56.7931 18.0206 57.1461 18.1051 57.5504 18.1051C57.9349 18.1051 58.3094 18.0239 58.674 17.8615C59.0386 17.6958 59.3684 17.4571 59.6634 17.1456C59.9616 16.834 60.197 16.4595 60.3693 16.022C60.545 15.5845 60.6328 15.0923 60.6328 14.5455H61.7663C61.7663 15.2216 61.6884 15.7734 61.5327 16.201C61.3769 16.6286 61.2012 16.9633 61.0057 17.2053C60.8101 17.4472 60.6527 17.6278 60.5334 17.7472C60.4936 17.7969 60.4571 17.8466 60.424 17.8963C60.3909 17.946 60.3544 17.9957 60.3146 18.0455C59.9865 18.4134 59.5722 18.6884 59.0717 18.8707C58.5713 19.0497 58.0774 19.1392 57.5902 19.1392ZM73.3265 11.3636C73.2669 10.8598 73.0249 10.4688 72.6007 10.1903C72.1764 9.91193 71.6561 9.77273 71.0396 9.77273C70.5888 9.77273 70.1944 9.84564 69.8564 9.99148C69.5216 10.1373 69.2598 10.3378 69.0708 10.593C68.8852 10.8482 68.7924 11.1383 68.7924 11.4631C68.7924 11.7348 68.8571 11.9685 68.9863 12.1641C69.1189 12.3563 69.2879 12.517 69.4934 12.6463C69.6989 12.7723 69.9144 12.8767 70.1397 12.9595C70.3651 13.0391 70.5723 13.1037 70.7612 13.1534L71.7953 13.4318C72.0604 13.5014 72.3554 13.5975 72.6802 13.7202C73.0083 13.8428 73.3216 14.0102 73.6199 14.2223C73.9215 14.4311 74.17 14.6996 74.3656 15.0277C74.5611 15.3558 74.6589 15.7585 74.6589 16.2358C74.6589 16.786 74.5147 17.2831 74.2264 17.7273C73.9413 18.1714 73.5237 18.5244 72.9735 18.7862C72.4267 19.0481 71.7621 19.179 70.9799 19.179C70.2508 19.179 69.6194 19.0613 69.0858 18.826C68.5555 18.5907 68.1378 18.2625 67.8329 17.8416C67.5313 17.4207 67.3606 16.9318 67.3208 16.375H68.5936C68.6267 16.7595 68.756 17.0777 68.9814 17.3295C69.21 17.5781 69.4984 17.7637 69.8464 17.8864C70.1977 18.0057 70.5756 18.0653 70.9799 18.0653C71.4506 18.0653 71.8732 17.9891 72.2477 17.8366C72.6222 17.6809 72.9189 17.4654 73.1376 17.1903C73.3564 16.9119 73.4657 16.5871 73.4657 16.2159C73.4657 15.8778 73.3713 15.6027 73.1824 15.3906C72.9934 15.1785 72.7449 15.0062 72.4366 14.8736C72.1284 14.741 71.7953 14.625 71.4373 14.5256L70.1845 14.1676C69.389 13.9389 68.7593 13.6125 68.2953 13.1882C67.8313 12.764 67.5993 12.2088 67.5993 11.5227C67.5993 10.9527 67.7534 10.4555 68.0616 10.0312C68.3732 9.60369 68.7908 9.27225 69.3145 9.03693C69.8414 8.7983 70.4297 8.67898 71.0794 8.67898C71.7356 8.67898 72.319 8.79664 72.8294 9.03196C73.3398 9.26397 73.7441 9.58215 74.0424 9.98651C74.344 10.3909 74.5031 10.8499 74.5197 11.3636H73.3265ZM79.7287 19.1591C78.9929 19.1591 78.3582 18.9967 77.8246 18.6719C77.2943 18.3438 76.8849 17.8864 76.5966 17.2997C76.3116 16.7098 76.169 16.0237 76.169 15.2415C76.169 14.4593 76.3116 13.7699 76.5966 13.1733C76.8849 12.5734 77.286 12.1061 77.7997 11.7713C78.3168 11.4332 78.92 11.2642 79.6094 11.2642C80.0071 11.2642 80.3999 11.3305 80.7876 11.4631C81.1754 11.5956 81.5284 11.8111 81.8466 12.1094C82.1648 12.4044 82.4183 12.7955 82.6072 13.2827C82.7962 13.7699 82.8906 14.3698 82.8906 15.0824V15.5795H77.0043V14.5653H81.6974C81.6974 14.1345 81.6113 13.75 81.4389 13.4119C81.2699 13.0739 81.0279 12.8071 80.7131 12.6115C80.4015 12.416 80.0336 12.3182 79.6094 12.3182C79.142 12.3182 78.7377 12.4342 78.3963 12.6662C78.0582 12.8949 77.7981 13.1932 77.6158 13.5611C77.4335 13.929 77.3423 14.3234 77.3423 14.7443V15.4205C77.3423 15.9972 77.4418 16.486 77.6406 16.8871C77.8428 17.2848 78.1229 17.5881 78.4808 17.7969C78.8388 18.0024 79.2547 18.1051 79.7287 18.1051C80.0369 18.1051 80.3153 18.062 80.5639 17.9759C80.8158 17.8864 81.0329 17.7538 81.2152 17.5781C81.3975 17.3991 81.5384 17.1771 81.6378 16.9119L82.7713 17.2301C82.652 17.6146 82.4515 17.9527 82.1697 18.2443C81.888 18.5327 81.54 18.758 81.1257 18.9205C80.7114 19.0795 80.2457 19.1591 79.7287 19.1591ZM87.7777 19.1591C87.0618 19.1591 86.4453 18.9901 85.9283 18.652C85.4112 18.3139 85.0135 17.8482 84.7351 17.255C84.4567 16.6617 84.3175 15.9839 84.3175 15.2216C84.3175 14.446 84.46 13.7616 84.745 13.1683C85.0334 12.5717 85.4344 12.1061 85.9482 11.7713C86.4652 11.4332 87.0684 11.2642 87.7578 11.2642C88.2947 11.2642 88.7786 11.3636 89.2095 11.5625C89.6404 11.7614 89.9934 12.0398 90.2685 12.3977C90.5436 12.7557 90.7143 13.1733 90.7805 13.6506H89.6072C89.5178 13.3026 89.3189 12.9943 89.0107 12.7259C88.7057 12.4541 88.2947 12.3182 87.7777 12.3182C87.3203 12.3182 86.9193 12.4375 86.5746 12.6761C86.2332 12.9115 85.9664 13.2446 85.7741 13.6754C85.5852 14.103 85.4908 14.6051 85.4908 15.1818C85.4908 15.7718 85.5836 16.2855 85.7692 16.723C85.9581 17.1605 86.2232 17.5002 86.5646 17.7422C86.9093 17.9841 87.3137 18.1051 87.7777 18.1051C88.0826 18.1051 88.3594 18.0521 88.608 17.946C88.8565 17.84 89.067 17.6875 89.2393 17.4886C89.4117 17.2898 89.5343 17.0511 89.6072 16.7727H90.7805C90.7143 17.2235 90.5502 17.6295 90.2884 17.9908C90.0298 18.3487 89.6868 18.6338 89.2592 18.8459C88.835 19.0547 88.3411 19.1591 87.7777 19.1591ZM97.3082 15.8778V11.3636H98.4815V19H97.3082V17.7074H97.2287C97.0497 18.0952 96.7713 18.425 96.3935 18.6967C96.0156 18.9652 95.5384 19.0994 94.9616 19.0994C94.4844 19.0994 94.0601 18.995 93.6889 18.7862C93.3177 18.5741 93.026 18.2559 92.8139 17.8317C92.6018 17.4041 92.4957 16.8655 92.4957 16.2159V11.3636H93.669V16.1364C93.669 16.6932 93.8248 17.1373 94.1364 17.4688C94.4512 17.8002 94.8523 17.9659 95.3395 17.9659C95.6312 17.9659 95.9278 17.8913 96.2294 17.7422C96.5343 17.593 96.7895 17.3643 96.995 17.0561C97.2038 16.7479 97.3082 16.3551 97.3082 15.8778ZM100.631 19V11.3636H101.764V12.517H101.844C101.983 12.1392 102.235 11.8326 102.599 11.5973C102.964 11.362 103.375 11.2443 103.832 11.2443C103.918 11.2443 104.026 11.246 104.155 11.2493C104.285 11.2526 104.382 11.2576 104.449 11.2642V12.4574C104.409 12.4474 104.318 12.4325 104.175 12.4126C104.036 12.3894 103.889 12.3778 103.733 12.3778C103.362 12.3778 103.03 12.4557 102.738 12.6115C102.45 12.764 102.221 12.9761 102.052 13.2479C101.887 13.5163 101.804 13.8229 101.804 14.1676V19H100.631ZM108.809 19.1591C108.073 19.1591 107.438 18.9967 106.905 18.6719C106.374 18.3438 105.965 17.8864 105.677 17.2997C105.392 16.7098 105.249 16.0237 105.249 15.2415C105.249 14.4593 105.392 13.7699 105.677 13.1733C105.965 12.5734 106.366 12.1061 106.88 11.7713C107.397 11.4332 108 11.2642 108.689 11.2642C109.087 11.2642 109.48 11.3305 109.868 11.4631C110.256 11.5956 110.608 11.8111 110.927 12.1094C111.245 12.4044 111.498 12.7955 111.687 13.2827C111.876 13.7699 111.971 14.3698 111.971 15.0824V15.5795H106.084V14.5653H110.778C110.778 14.1345 110.691 13.75 110.519 13.4119C110.35 13.0739 110.108 12.8071 109.793 12.6115C109.482 12.416 109.114 12.3182 108.689 12.3182C108.222 12.3182 107.818 12.4342 107.476 12.6662C107.138 12.8949 106.878 13.1932 106.696 13.5611C106.514 13.929 106.422 14.3234 106.422 14.7443V15.4205C106.422 15.9972 106.522 16.486 106.721 16.8871C106.923 17.2848 107.203 17.5881 107.561 17.7969C107.919 18.0024 108.335 18.1051 108.809 18.1051C109.117 18.1051 109.395 18.062 109.644 17.9759C109.896 17.8864 110.113 17.7538 110.295 17.5781C110.478 17.3991 110.618 17.1771 110.718 16.9119L111.851 17.2301C111.732 17.6146 111.532 17.9527 111.25 18.2443C110.968 18.5327 110.62 18.758 110.206 18.9205C109.791 19.0795 109.326 19.1591 108.809 19.1591Z" fill="#001429"/>
<path d="M8.92857 12.8125H8.39286V11.2656C8.39286 9.46523 6.87054 8 5 8C3.12946 8 1.60714 9.46523 1.60714 11.2656V12.8125H1.07143C0.479911 12.8125 0 13.2744 0 13.8438V17.9688C0 18.5381 0.479911 19 1.07143 19H8.92857C9.52009 19 10 18.5381 10 17.9688V13.8438C10 13.2744 9.52009 12.8125 8.92857 12.8125ZM5.89286 16.4219C5.89286 16.8967 5.4933 17.2812 5 17.2812C4.5067 17.2812 4.10714 16.8967 4.10714 16.4219V15.3906C4.10714 14.9158 4.5067 14.5312 5 14.5312C5.4933 14.5312 5.89286 14.9158 5.89286 15.3906V16.4219ZM6.60714 12.8125H3.39286V11.2656C3.39286 10.4127 4.11384 9.71875 5 9.71875C5.88616 9.71875 6.60714 10.4127 6.60714 11.2656V12.8125Z" fill="#001429"/>
</svg>
