<svg width="53" height="23" viewBox="0 0 53 23" fill="none" xmlns="http://www.w3.org/2000/svg">
<g clip-path="url(#clip0_473_7129)">
<path d="M21.1726 0.499869C21.2327 0.510602 21.2929 0.520976 21.3531 0.532066C21.8073 0.615418 22.1127 0.880857 22.2815 1.31407C22.3952 1.60599 22.4395 1.91078 22.4395 2.22308C22.4392 3.36426 22.4381 4.50543 22.4395 5.64625C22.4395 5.71958 22.4487 5.79578 22.4701 5.86554C22.524 6.04155 22.6721 6.14708 22.8536 6.1528C23.0105 6.15781 23.1569 6.11953 23.2867 6.03081C23.3592 5.98145 23.4289 5.92457 23.4904 5.86196C23.965 5.37938 24.4368 4.89429 24.9101 4.41027C24.9741 4.34481 25.0388 4.2797 25.106 4.21781C25.3604 3.98421 25.6605 3.9073 25.9951 3.95988C26.3431 4.01426 26.6361 4.17918 26.8831 4.43102C26.9623 4.51187 27.0291 4.60202 27.071 4.70898C27.1269 4.85172 27.1076 4.9501 26.9873 5.04096C26.406 5.48062 25.9434 6.04011 25.4642 6.58316C25.3854 6.67223 25.321 6.77204 25.2746 6.88258C25.1862 7.09257 25.1926 7.30006 25.296 7.50289C25.3161 7.5426 25.3389 7.58124 25.3643 7.61737C25.8308 8.28526 26.2927 8.95673 26.8015 9.59314C27.0031 9.84499 27.2089 10.0933 27.419 10.3379C27.5052 10.4385 27.6075 10.5247 27.7025 10.6173C27.7279 10.642 27.755 10.6653 27.7785 10.6914C27.8492 10.7697 27.8658 10.8631 27.8218 10.9561C27.7842 11.0355 27.7388 11.1153 27.6804 11.1801C27.439 11.4487 27.14 11.6168 26.7846 11.6669C26.5 11.7074 26.2312 11.6498 25.9835 11.497C25.7495 11.3532 25.5564 11.1632 25.385 10.9497C24.7957 10.216 24.2082 9.48045 23.6188 8.74638C23.5576 8.67018 23.4936 8.59613 23.4264 8.52602C23.2712 8.36396 23.0812 8.28669 22.8575 8.2917C22.6471 8.29671 22.494 8.42299 22.4568 8.63298C22.4455 8.69701 22.4402 8.76319 22.4406 8.8283C22.4427 9.34058 22.4494 9.85286 22.4483 10.3655C22.448 10.5526 22.4349 10.7404 22.4184 10.9268C22.4114 11.0055 22.3871 11.0845 22.3593 11.1593C22.2552 11.4405 22.0483 11.599 21.7619 11.6533C21.5409 11.6952 21.3179 11.6802 21.0955 11.6716C21.0086 11.6684 20.9203 11.6523 20.8362 11.629C20.5695 11.555 20.3957 11.3793 20.3124 11.1117C20.262 10.9511 20.2459 10.7858 20.2459 10.6181C20.2459 8.44016 20.2462 6.26227 20.2455 4.08438C20.2455 3.53633 20.2497 2.98792 20.2371 2.43987C20.2286 2.06818 20.1962 1.69685 20.1692 1.32552C20.1621 1.22822 20.1361 1.13235 20.1157 1.03647C20.0773 0.856889 20.1132 0.770317 20.2715 0.68303C20.4411 0.589661 20.6251 0.543155 20.8155 0.519187C20.8468 0.515252 20.8774 0.506309 20.9084 0.499512C20.9967 0.499869 21.0846 0.499869 21.1726 0.499869Z" fill="#3A4147"/>
<path d="M52.6959 10.9055C52.5048 11.3423 52.1435 11.5534 51.7093 11.6521C51.373 11.7287 51.0585 11.6511 50.7717 11.4568C50.5648 11.3166 50.3903 11.1409 50.2338 10.9463C49.6501 10.219 49.0682 9.4907 48.4845 8.76378C48.4159 8.67864 48.3448 8.59493 48.2688 8.51694C48.1143 8.35811 47.9251 8.28584 47.7052 8.29193C47.5025 8.29729 47.3533 8.41785 47.3118 8.61997C47.2999 8.67792 47.2946 8.73802 47.2946 8.79705C47.2953 9.18126 47.3002 9.56546 47.3006 9.94967C47.3009 10.2058 47.297 10.4619 47.2932 10.7181C47.2911 10.8651 47.2664 11.0086 47.2168 11.1467C47.118 11.4214 46.9241 11.5927 46.6444 11.6457C46.3461 11.7019 46.0428 11.7022 45.7444 11.6421C45.4014 11.5731 45.2051 11.3452 45.1375 11.0043C45.1118 10.8741 45.1006 10.7385 45.1002 10.6054C45.0981 8.01039 45.1013 5.41573 45.096 2.82072C45.0953 2.38321 45.0657 1.9457 45.0401 1.50891C45.0309 1.35258 44.9933 1.19768 44.969 1.04207C44.9634 1.00701 44.9574 0.971592 44.9542 0.936176C44.9468 0.85175 44.9771 0.780203 45.0464 0.736202C45.1227 0.687908 45.2037 0.643906 45.2874 0.610279C45.4155 0.558765 45.5502 0.529431 45.6885 0.517626C45.7142 0.515479 45.7388 0.505463 45.7641 0.499023C45.8521 0.499023 45.94 0.499023 46.028 0.499023C46.0533 0.505463 46.0783 0.514764 46.104 0.517626C46.5554 0.568066 46.89 0.789504 47.0884 1.21056C47.1187 1.27495 47.1454 1.34149 47.1679 1.40874C47.2664 1.70244 47.2946 2.00652 47.2942 2.31524C47.2921 3.41778 47.2918 4.51997 47.2911 5.62251C47.2911 5.66114 47.2904 5.70013 47.2932 5.73877C47.3087 5.94804 47.4353 6.10473 47.6306 6.14194C47.7009 6.15517 47.7769 6.1516 47.8487 6.14194C48.0331 6.11725 48.184 6.02138 48.3138 5.89045C48.5679 5.63467 48.8198 5.37674 49.0724 5.11917C49.3602 4.82583 49.6455 4.5307 49.9358 4.23986C50.0944 4.08103 50.2851 3.97406 50.5089 3.95403C51.0331 3.90752 51.4578 4.11465 51.8005 4.5078C51.8554 4.57112 51.8969 4.6509 51.9289 4.72924C51.9799 4.85373 51.9514 4.94317 51.8504 5.03189C51.8328 5.04763 51.8131 5.0605 51.7948 5.07589C51.6815 5.16997 51.5626 5.25833 51.4557 5.35921C51.0539 5.73913 50.6838 6.15017 50.3249 6.57122C50.2732 6.63168 50.2257 6.69714 50.1852 6.76583C50.016 7.05309 50.022 7.3382 50.2134 7.61187C50.5244 8.05582 50.8357 8.49977 51.1549 8.938C51.4828 9.38803 51.8244 9.82804 52.1899 10.2477C52.2909 10.3632 52.3989 10.4734 52.5105 10.5782C52.5812 10.6447 52.6561 10.7048 52.6955 10.7979C52.6959 10.834 52.6959 10.8698 52.6959 10.9055Z" fill="#3A4147"/>
<path d="M42.4406 0.5C42.5004 0.511448 42.5599 0.523253 42.6197 0.5347C43.0296 0.613402 43.3219 0.844141 43.4961 1.2305C43.615 1.4945 43.6664 1.7739 43.6847 2.06116C43.6903 2.14737 43.6896 2.23394 43.6896 2.32016C43.6906 2.82957 43.6906 3.33899 43.6921 3.84876C43.6959 5.24894 43.7005 6.64911 43.7044 8.04964C43.7065 8.8778 43.7075 9.70632 43.71 10.5345C43.7103 10.7015 43.7114 10.8675 43.6738 11.0321C43.5851 11.4174 43.3532 11.6406 42.9673 11.6857C42.7199 11.7146 42.4694 11.7168 42.2221 11.6749C41.8186 11.607 41.5825 11.358 41.5301 10.9448C41.5163 10.836 41.5107 10.7251 41.5107 10.6153C41.5097 8.21385 41.5121 5.81237 41.5082 3.41089C41.5075 2.9047 41.491 2.39814 41.4713 1.89231C41.46 1.59825 41.4386 1.30419 41.3689 1.0155C41.3313 0.858808 41.371 0.776529 41.5086 0.696039C41.6813 0.5948 41.871 0.546506 42.0669 0.520749C42.0983 0.516814 42.1285 0.507512 42.1595 0.500715C42.2527 0.5 42.3467 0.5 42.4406 0.5Z" fill="#3A4147"/>
<path d="M17.5828 0.5C17.6426 0.511448 17.7024 0.522537 17.7622 0.533985C18.1908 0.614833 18.4881 0.862028 18.6583 1.26842C18.7892 1.58072 18.8343 1.90876 18.8343 2.24575C18.8343 3.67311 18.8343 5.10012 18.8343 6.52748C18.8343 7.8951 18.8343 9.26272 18.8343 10.6303C18.8343 10.7888 18.823 10.9455 18.7783 11.0986C18.6787 11.4385 18.4508 11.6256 18.1102 11.6724C17.8681 11.7057 17.6247 11.7032 17.3826 11.671C17.0083 11.6216 16.7613 11.3845 16.6906 11.0017C16.6673 10.8765 16.6561 10.7473 16.6557 10.6203C16.6536 8.32582 16.6554 6.03166 16.6533 3.73715C16.6529 3.22773 16.6455 2.71832 16.6311 2.20926C16.6212 1.86404 16.6061 1.51847 16.5477 1.17719C16.5361 1.10994 16.5199 1.0434 16.5062 0.976503C16.4847 0.871329 16.5192 0.785115 16.6061 0.728951C16.6772 0.682803 16.7539 0.643452 16.8323 0.612687C16.9636 0.560815 17.1008 0.528977 17.2422 0.518602C17.2679 0.516814 17.2929 0.506797 17.3182 0.500358C17.4069 0.5 17.4948 0.5 17.5828 0.5Z" fill="#3A4147"/>
<path d="M52.6971 18.4686C52.663 18.5595 52.5895 18.5845 52.5036 18.5881C52.4684 18.5895 52.4332 18.5895 52.3981 18.5895C51.3194 18.5895 50.241 18.5895 49.1623 18.5895C49.1246 18.5895 49.087 18.5895 49.0469 18.5895C49.0205 18.6665 49.0444 18.7362 49.0553 18.8042C49.1718 19.5383 49.6721 20.0305 50.2776 20.1743C50.6664 20.2666 51.052 20.2437 51.4284 20.111C51.7416 20.0005 51.9783 19.7883 52.1616 19.5114C52.2271 19.4123 52.2457 19.4084 52.353 19.461C52.5486 19.5572 52.6109 19.7508 52.5089 19.9471C52.4547 20.0512 52.3794 20.1382 52.2943 20.2165C52.0452 20.4451 51.7518 20.5882 51.4291 20.6719C50.9394 20.7989 50.4475 20.8093 49.9634 20.654C49.1605 20.3965 48.6771 19.833 48.4977 19.0034C48.3876 18.4947 48.4164 17.9875 48.6071 17.5017C48.915 16.7179 49.4796 16.2442 50.3054 16.1076C50.6794 16.0457 51.0488 16.0757 51.4052 16.2067C51.9977 16.4245 52.3731 16.857 52.5698 17.4573C52.632 17.6469 52.675 17.8412 52.6792 18.0429C52.6799 18.0719 52.6908 18.1005 52.6971 18.1291C52.6971 18.2422 52.6971 18.3552 52.6971 18.4686ZM52.0695 18.0651C52.0617 17.9964 52.0568 17.9406 52.0494 17.8855C52.0195 17.6712 51.9583 17.467 51.8503 17.2795C51.6223 16.8835 51.2792 16.6664 50.8328 16.6191C50.342 16.5673 49.911 16.7053 49.5532 17.0563C49.2914 17.3131 49.1447 17.633 49.0736 17.9918C49.0694 18.0139 49.0729 18.0376 49.0729 18.0651C50.07 18.0651 51.0625 18.0651 52.0695 18.0651Z" fill="#3A4147"/>
<path d="M40.0932 8.2835C40.0978 8.73925 40.0999 9.19501 40.1073 9.65076C40.1112 9.88902 40.1214 10.1273 40.1354 10.3652C40.1513 10.6295 40.1664 10.8939 40.2315 11.1525C40.2744 11.3232 40.2297 11.413 40.077 11.4992C39.9134 11.5915 39.7347 11.6376 39.5514 11.6645C39.2988 11.7013 39.049 11.6899 38.8052 11.604C38.5075 11.4992 38.289 11.3053 38.1571 11.013C38.1522 11.0023 38.1476 10.9912 38.143 10.9805C38.0734 10.8227 37.9661 10.769 37.8025 10.8245C37.7377 10.8463 37.6723 10.8835 37.622 10.93C37.1372 11.3818 36.563 11.6348 35.917 11.7278C35.4065 11.8011 34.9002 11.7822 34.402 11.6369C34.2071 11.58 34.0203 11.502 33.8454 11.3972C33.3029 11.0731 32.969 10.5966 32.8628 9.96629C32.7878 9.52055 32.8128 9.07409 32.9317 8.63802C33.0566 8.18011 33.3244 7.82524 33.7209 7.57018C34.0502 7.3584 34.4066 7.20886 34.7743 7.08473C35.2696 6.91767 35.7766 6.79639 36.2907 6.70696C36.6252 6.64865 36.9616 6.60071 37.2976 6.55135C37.425 6.53274 37.5537 6.52344 37.6818 6.50913C37.7106 6.50591 37.7402 6.50305 37.7683 6.49518C37.8721 6.46656 37.9411 6.38214 37.9372 6.27338C37.9305 6.07627 37.9048 5.88202 37.8341 5.69636C37.7483 5.47027 37.5942 5.31215 37.375 5.21807C37.2167 5.1501 37.0503 5.11683 36.8807 5.1018C36.582 5.07533 36.284 5.0739 35.9884 5.13901C35.4385 5.26028 35.0272 5.57401 34.7398 6.06125C34.7141 6.10453 34.6905 6.14925 34.667 6.19397C34.6399 6.24548 34.5991 6.2766 34.541 6.27696C34.198 6.27947 33.869 6.22044 33.5784 6.0219C33.3483 5.86485 33.2319 5.64019 33.2245 5.3583C33.216 5.02346 33.3216 4.72618 33.5165 4.45967C33.7132 4.19137 33.9696 3.9964 34.2592 3.84329C34.592 3.66728 34.9467 3.55817 35.314 3.48806C35.8758 3.3811 36.4426 3.36392 37.0123 3.3929C37.3877 3.41186 37.7595 3.45264 38.1254 3.541C38.3225 3.58858 38.5139 3.6519 38.7 3.73418C39.2942 3.99676 39.6872 4.44393 39.887 5.06889C39.9827 5.36796 40.0331 5.67525 40.0633 5.9872C40.1101 6.46549 40.0978 6.94557 40.0988 7.42493C40.0992 7.71112 40.0988 7.99695 40.0988 8.28314C40.0971 8.28314 40.0953 8.28314 40.0932 8.2835ZM37.9481 8.34253C37.9481 8.29495 37.9495 8.24701 37.9478 8.19943C37.94 7.99731 37.8028 7.86745 37.6051 7.87711C37.1857 7.89786 36.7723 7.96082 36.3681 8.07816C36.0767 8.16258 35.7977 8.27599 35.5448 8.44877C35.4051 8.54429 35.283 8.65769 35.1831 8.79685C34.934 9.14278 35.0188 9.7309 35.5314 9.90726C35.5701 9.9205 35.6092 9.93373 35.6489 9.94339C35.8734 9.99777 36.1 10.0064 36.3294 9.98131C36.7118 9.93946 37.058 9.80674 37.3553 9.55704C37.7289 9.24259 37.9379 8.84157 37.9481 8.34253Z" fill="#3A4147"/>
<path d="M15.2341 8.3436C15.2422 8.86769 15.2439 9.39213 15.2608 9.91621C15.2714 10.2464 15.302 10.5759 15.3298 10.905C15.3379 11.0023 15.3646 11.0978 15.385 11.1937C15.4107 11.3139 15.3678 11.4037 15.27 11.4695C15.1535 11.5475 15.0237 11.5929 14.8893 11.6258C14.5758 11.702 14.2637 11.712 13.9538 11.6051C13.6456 11.4985 13.4239 11.2956 13.2931 10.9919C13.2836 10.9701 13.2755 10.9479 13.2649 10.9265C13.2304 10.8574 13.1748 10.8195 13.0988 10.8113C12.9637 10.7966 12.8529 10.846 12.7558 10.9379C12.4691 11.2098 12.1383 11.4087 11.7714 11.5471C11.3404 11.7095 10.8939 11.7754 10.4351 11.7668C10.0421 11.7596 9.65936 11.6981 9.29381 11.5468C8.81884 11.3504 8.44379 11.0366 8.20419 10.5687C8.03848 10.2446 7.97093 9.89725 7.97269 9.53415C7.9741 9.26549 7.98747 8.99826 8.05009 8.73604C8.16373 8.26204 8.41037 7.88105 8.8118 7.60739C9.14076 7.38344 9.50139 7.2289 9.87433 7.10047C10.3855 6.92447 10.9091 6.79747 11.4407 6.70661C11.8273 6.64078 12.2165 6.58856 12.6045 6.53168C12.6826 6.52023 12.7618 6.51343 12.8406 6.50878C13.0116 6.49876 13.0957 6.37535 13.082 6.23225C13.0668 6.07199 13.0496 5.91279 13.001 5.75825C12.9148 5.48458 12.7389 5.29892 12.474 5.19911C12.3273 5.14366 12.1749 5.11433 12.0201 5.10073C11.7007 5.07283 11.3819 5.07283 11.0681 5.15296C10.5692 5.28032 10.1875 5.57116 9.91373 6.01153C9.88699 6.05446 9.85744 6.09631 9.83914 6.14282C9.79657 6.25121 9.72023 6.28341 9.6101 6.2784C9.40076 6.2691 9.19635 6.23798 8.99968 6.16392C8.93424 6.13924 8.8695 6.10955 8.80828 6.07485C8.46982 5.88382 8.33789 5.57688 8.37483 5.19983C8.41424 4.80059 8.6 4.47863 8.88428 4.20926C9.13478 3.97208 9.42997 3.80967 9.74732 3.68732C10.0914 3.55496 10.4485 3.47805 10.813 3.43154C11.1863 3.38396 11.561 3.3718 11.936 3.38253C12.4553 3.3972 12.9711 3.44406 13.4721 3.59538C13.749 3.67874 14.0111 3.79429 14.2493 3.96278C14.6701 4.26041 14.9213 4.6761 15.0624 5.1687C15.1539 5.48745 15.2045 5.81406 15.2193 6.14496C15.2348 6.48982 15.238 6.83575 15.2411 7.18097C15.2446 7.56839 15.2418 7.95546 15.2418 8.34289C15.2394 8.34361 15.2369 8.3436 15.2341 8.3436ZM11.2345 9.99634C11.4632 9.99384 11.6852 9.96093 11.9016 9.88974C12.5437 9.67796 13.1277 9.08591 13.0981 8.2277C13.0907 8.01485 12.9384 7.86066 12.7343 7.87569C12.3656 7.90287 12.0004 7.95045 11.6419 8.04311C11.3228 8.12539 11.0153 8.23879 10.7353 8.41873C10.5804 8.51818 10.4443 8.63766 10.3338 8.78863C10.071 9.14779 10.1709 9.73841 10.6828 9.91049C10.8633 9.97094 11.048 9.99241 11.2345 9.99634Z" fill="#3A4147"/>
<path d="M6.05643 0.676986C7.31105 0.676986 8.56568 0.676986 9.8203 0.676986C9.84669 0.676986 9.87307 0.676629 9.89946 0.676986C10.0177 0.679133 10.0866 0.722061 10.1246 0.838325C10.163 0.956735 10.1961 1.07801 10.2175 1.20035C10.2647 1.47116 10.2538 1.74018 10.1633 2.0024C10.0673 2.28143 9.89313 2.49357 9.63911 2.63773C9.43188 2.75507 9.20847 2.82698 8.9745 2.85559C8.79753 2.87706 8.61845 2.88922 8.44007 2.89101C7.97108 2.89566 7.50174 2.89924 7.03311 2.88994C6.77381 2.88493 6.56025 3.09671 6.56412 3.36036C6.56482 3.39899 6.56377 3.43799 6.56377 3.47662C6.56377 5.86307 6.56412 8.24988 6.56236 10.6363C6.56236 10.7519 6.55145 10.8689 6.5321 10.9826C6.46314 11.3915 6.22496 11.6316 5.82141 11.6838C5.58005 11.7149 5.33588 11.7135 5.09383 11.6759C4.70716 11.6162 4.45701 11.3536 4.39333 10.9569C4.37469 10.8399 4.36695 10.72 4.36695 10.6013C4.36554 8.17583 4.36448 5.75075 4.36835 3.3253C4.36871 3.14178 4.23712 2.96935 4.09111 2.9207C4.03412 2.90174 3.97079 2.89387 3.91027 2.89387C2.98109 2.89208 2.05156 2.8928 1.12238 2.8928C1.09881 2.8928 1.07558 2.89316 1.05201 2.8928C0.930279 2.89137 0.85745 2.84629 0.819101 2.72788C0.780048 2.60661 0.749439 2.48212 0.723755 2.35727C0.677314 2.12903 0.689628 1.90187 0.746976 1.6765C0.837396 1.32091 1.04216 1.06012 1.36584 0.89592C1.578 0.7886 1.80352 0.726354 2.03784 0.701312C2.18912 0.685214 2.34182 0.678775 2.49381 0.678417C3.68193 0.675913 4.86936 0.676986 6.05643 0.676986Z" fill="#3A4147"/>
<path d="M30.9157 0.676986C32.1675 0.676986 33.419 0.676986 34.6708 0.676986C34.7 0.676986 34.7295 0.67806 34.7587 0.676986C34.8703 0.673051 34.9466 0.727427 34.98 0.83117C35.0184 0.949581 35.0515 1.0705 35.0747 1.19284C35.1176 1.42036 35.1148 1.64967 35.0599 1.8754C34.967 2.25889 34.7419 2.5322 34.3876 2.69569C34.1638 2.79871 33.9281 2.85702 33.6843 2.87491C33.5119 2.88743 33.3388 2.89101 33.166 2.89208C32.7382 2.89423 32.31 2.89852 31.8822 2.89065C31.6349 2.886 31.4227 3.09313 31.4227 3.35249C31.4227 3.3854 31.4227 3.41795 31.4227 3.45086C31.4227 5.84018 31.4231 8.22985 31.4213 10.6192C31.4213 10.7437 31.4104 10.8696 31.3893 10.9919C31.32 11.3937 31.079 11.6333 30.68 11.6841C30.4386 11.7149 30.1945 11.7138 29.9524 11.6763C29.5679 11.6165 29.3138 11.3565 29.2509 10.9479C29.2319 10.8249 29.2248 10.6989 29.2245 10.5744C29.2231 8.1583 29.2217 5.7418 29.2266 3.32566C29.2269 3.13105 29.0742 2.93859 28.8916 2.9021C28.8491 2.89351 28.8044 2.89316 28.7608 2.89316C27.8228 2.8928 26.8848 2.8928 25.9465 2.8928C25.7766 2.8928 25.7139 2.84987 25.6619 2.68674C25.557 2.35798 25.5215 2.02386 25.6049 1.68401C25.6932 1.32449 25.8993 1.06084 26.2265 0.895563C26.4387 0.788242 26.6642 0.725996 26.8985 0.701312C27.0526 0.685214 27.2085 0.678775 27.3633 0.678417C28.5472 0.675913 29.7315 0.676986 30.9157 0.676986Z" fill="#3A4147"/>
<path d="M18.818 20.0782C18.8595 20.0782 18.8975 20.0782 18.9355 20.0782C19.9938 20.0782 21.0525 20.0779 22.1108 20.079C22.1717 20.079 22.2343 20.0832 22.2927 20.0993C22.3845 20.1244 22.4317 20.1941 22.4373 20.2904C22.4398 20.3319 22.4398 20.3737 22.4376 20.4156C22.4317 20.5469 22.3539 20.6324 22.2255 20.6467C22.1819 20.6517 22.1375 20.651 22.0936 20.651C20.9265 20.6513 19.7599 20.6513 18.5929 20.6506C18.5433 20.6506 18.4922 20.6513 18.4444 20.6402C18.2935 20.6052 18.1886 20.4696 18.184 20.3101C18.1833 20.2861 18.1837 20.2625 18.1837 20.2385C18.1837 18.4924 18.1837 16.7459 18.184 14.9998C18.184 14.9583 18.1823 14.9158 18.1893 14.875C18.2171 14.7136 18.3533 14.5959 18.5151 14.5892C18.5355 14.5884 18.5563 14.5884 18.5767 14.5884C19.7377 14.5884 20.8987 14.5881 22.0598 14.5892C22.1147 14.5892 22.1717 14.5931 22.2244 14.607C22.3233 14.6335 22.3736 14.7072 22.3824 14.8092C22.3859 14.8474 22.3849 14.8868 22.3835 14.9254C22.3782 15.0632 22.3015 15.1454 22.165 15.158C22.1185 15.1622 22.0714 15.1615 22.0242 15.1615C20.9923 15.1619 19.9601 15.1615 18.9282 15.1615C18.8909 15.1615 18.8536 15.1615 18.8191 15.1615C18.7983 15.2424 18.7962 17.1638 18.8163 17.2607C18.8515 17.2607 18.8887 17.2607 18.926 17.2607C19.744 17.2607 20.562 17.2604 21.38 17.2611C21.4325 17.2611 21.4859 17.2639 21.5377 17.2725C21.6436 17.2904 21.7118 17.3602 21.7259 17.4682C21.7322 17.5179 21.7329 17.5702 21.7252 17.6195C21.7097 17.7208 21.651 17.7873 21.5493 17.8048C21.4947 17.8141 21.4388 17.8191 21.3836 17.8191C20.5627 17.8199 19.7416 17.8199 18.9208 17.8199C18.8859 17.8199 18.8511 17.8199 18.8184 17.8199C18.7983 17.9011 18.7973 19.9842 18.818 20.0782Z" fill="#3A4147"/>
<path d="M27.2545 18.5893C27.3143 19.2597 27.5957 19.7634 28.1868 20.061C28.4021 20.1694 28.6333 20.2199 28.8739 20.2253C29.0829 20.2299 29.2898 20.2145 29.4928 20.1626C29.8742 20.065 30.1683 19.8432 30.3864 19.513C30.4526 19.4125 30.4712 19.4085 30.5771 19.4601C30.7499 19.5441 30.8509 19.7316 30.7362 19.9451C30.6718 20.0646 30.5835 20.1634 30.4821 20.2506C30.2193 20.4767 29.9136 20.6152 29.5804 20.691C29.0966 20.8012 28.6125 20.803 28.1407 20.6391C27.3544 20.3662 26.8871 19.7988 26.7183 18.9789C26.6138 18.472 26.6479 17.969 26.8393 17.4868C27.1369 16.737 27.6781 16.273 28.4612 16.1188C28.8866 16.0351 29.3088 16.0702 29.7123 16.239C30.276 16.4748 30.6243 16.9098 30.8065 17.4914C30.898 17.7837 30.9279 18.0853 30.923 18.3908C30.9226 18.4087 30.9212 18.4266 30.9188 18.4441C30.9078 18.5264 30.879 18.5614 30.7998 18.5761C30.7485 18.5854 30.695 18.589 30.6426 18.589C29.5551 18.5897 28.4676 18.5893 27.3801 18.5897C27.3424 18.5893 27.3051 18.5893 27.2545 18.5893ZM27.2889 18.0649C28.2962 18.0649 29.2884 18.0649 30.29 18.0649C30.2879 18.0205 30.29 17.9819 30.283 17.9447C30.2615 17.8309 30.2457 17.7147 30.2119 17.6045C30.0677 17.1355 29.7788 16.8032 29.3046 16.6669C28.9116 16.5542 28.5249 16.5896 28.1601 16.7785C27.6862 17.0239 27.423 17.4335 27.3076 17.9511C27.3002 17.9855 27.2963 18.0202 27.2889 18.0649Z" fill="#3A4147"/>
<path d="M10.4377 20.776C9.85861 20.7613 9.34072 20.5899 8.90516 20.1939C8.56986 19.8891 8.35384 19.5085 8.24688 19.0664C8.12304 18.5537 8.13219 18.0425 8.31443 17.5456C8.60047 16.7654 9.15425 16.2935 9.95501 16.1276C10.4476 16.0256 10.9317 16.0685 11.3912 16.2792C12.0695 16.5905 12.4762 17.1335 12.6338 17.8658C12.7521 18.4156 12.713 18.9583 12.4783 19.4731C12.1645 20.1625 11.6301 20.5742 10.899 20.7198C10.7473 20.7502 10.5915 20.7577 10.4377 20.776ZM12.0924 18.4178C12.0871 18.2307 12.0653 18.0332 12.0097 17.8404C11.7641 16.9886 11.0204 16.5186 10.2277 16.6227C9.6637 16.6967 9.24362 16.9911 8.98185 17.5016C8.73346 17.9867 8.70496 18.4997 8.85731 19.0198C9.0962 19.8344 9.8171 20.312 10.6087 20.2258C11.0668 20.176 11.4387 19.9682 11.7201 19.5987C11.9815 19.256 12.086 18.8592 12.0924 18.4178Z" fill="#3A4147"/>
<path d="M41.0781 20.7646C40.6225 20.7657 40.2291 20.6748 39.8682 20.4634C39.3995 20.1886 39.0751 19.7876 38.9041 19.2675C38.6846 18.6006 38.7054 17.9395 39.0122 17.3046C39.3232 16.661 39.8418 16.2768 40.5289 16.1308C40.9954 16.0317 41.4581 16.0607 41.9017 16.2428C42.6152 16.5358 43.0512 17.0792 43.2232 17.8344C43.3544 18.4107 43.3119 18.9791 43.0547 19.5168C42.7387 20.1779 42.2145 20.5703 41.5098 20.7191C41.4384 20.7342 41.3656 20.7456 41.2927 20.7524C41.2079 20.7606 41.1228 20.7621 41.0781 20.7646ZM39.3665 18.3613C39.3657 18.6293 39.3964 18.8464 39.4643 19.0578C39.7229 19.8624 40.454 20.3389 41.2699 20.2187C41.8462 20.1335 42.2606 19.8091 42.5086 19.2757C42.706 18.8514 42.7366 18.4042 42.6332 17.9496C42.4228 17.022 41.6463 16.519 40.8294 16.6217C40.4029 16.6753 40.0483 16.8635 39.7739 17.1994C39.4889 17.5489 39.3707 17.9589 39.3665 18.3613Z" fill="#3A4147"/>
<path d="M4.99258 15.1624C4.99258 15.9358 4.99258 16.691 4.99258 17.4583C5.03515 17.4583 5.07244 17.4583 5.10938 17.4583C5.82149 17.4583 6.53394 17.458 7.24604 17.4587C7.29846 17.4587 7.35194 17.4612 7.40331 17.4712C7.4983 17.4891 7.56515 17.5474 7.58098 17.6451C7.59154 17.7084 7.58943 17.776 7.57958 17.8397C7.56585 17.927 7.5078 17.9824 7.42266 18.0006C7.37165 18.0117 7.31817 18.0167 7.2661 18.0167C6.5452 18.0178 5.82395 18.0175 5.10305 18.0175C5.06857 18.0175 5.03409 18.0175 4.98695 18.0175C4.98695 18.0611 4.98695 18.0954 4.98695 18.1301C4.98695 18.8749 4.9873 19.6194 4.98624 20.3642C4.98624 20.4143 4.98343 20.4658 4.97217 20.5144C4.94825 20.6157 4.8821 20.6744 4.78113 20.6829C4.71146 20.6887 4.6404 20.689 4.57038 20.6833C4.46659 20.6751 4.39763 20.6103 4.37758 20.5059C4.36808 20.4565 4.36386 20.4053 4.36386 20.3549C4.36315 18.5677 4.3628 16.7804 4.36456 14.9928C4.36456 14.9288 4.37301 14.8597 4.39693 14.8014C4.45076 14.6694 4.55455 14.5986 4.69669 14.5904C4.72308 14.5889 4.74946 14.5889 4.77585 14.5889C5.84858 14.5889 6.9213 14.5886 7.99403 14.5896C8.0549 14.5896 8.11752 14.5936 8.17628 14.6079C8.26811 14.6301 8.32088 14.6962 8.33073 14.7918C8.33636 14.8447 8.33671 14.8991 8.33179 14.952C8.32053 15.0701 8.25157 15.1416 8.13547 15.1567C8.08902 15.1627 8.04188 15.1617 7.99509 15.1617C7.03389 15.162 6.07234 15.162 5.11114 15.162C5.07385 15.1624 5.03656 15.1624 4.99258 15.1624Z" fill="#3A4147"/>
<path d="M44.5444 16.8506C44.6264 16.7576 44.7031 16.6592 44.7907 16.5723C45.081 16.2854 45.4311 16.1305 45.8335 16.0904C46.0935 16.0646 46.3493 16.0843 46.5998 16.1559C47.1307 16.3079 47.4671 16.6664 47.6419 17.1897C47.7285 17.4487 47.7658 17.7167 47.7661 17.9893C47.7679 18.7909 47.7661 19.5923 47.7672 20.394C47.7676 20.5685 47.7144 20.6916 47.4826 20.6902C47.2521 20.6887 47.1747 20.6172 47.1744 20.3825C47.1737 19.6077 47.174 18.8328 47.174 18.0583C47.174 17.8544 47.1476 17.6544 47.0868 17.4598C46.9263 16.9475 46.5502 16.6556 46.0221 16.646C45.5876 16.6381 45.2041 16.7769 44.8878 17.0878C44.7626 17.2112 44.662 17.3528 44.5786 17.5085C44.5483 17.5653 44.5339 17.6219 44.5342 17.687C44.5356 18.5631 44.5353 19.4392 44.5349 20.3153C44.5349 20.3689 44.5349 20.4229 44.5297 20.4759C44.517 20.6036 44.4445 20.6766 44.3193 20.6844C44.2581 20.6884 44.1958 20.6884 44.1349 20.6819C44.0417 20.6723 43.978 20.614 43.9572 20.5213C43.947 20.4752 43.9421 20.4269 43.9421 20.3796C43.9414 19.0177 43.9414 17.6558 43.9414 16.2943C43.9414 16.2045 43.9548 16.1802 44.0413 16.1687C44.1127 16.1591 44.1887 16.1566 44.2588 16.1709C44.3713 16.1938 44.4371 16.2789 44.4755 16.3855C44.5131 16.4903 44.5247 16.5998 44.5265 16.7104C44.5272 16.7569 44.5265 16.803 44.5265 16.8495C44.5332 16.8502 44.5388 16.8502 44.5444 16.8506Z" fill="#3A4147"/>
<path d="M36.4987 20.4353C36.4555 20.4288 36.4185 20.422 36.3816 20.4177C36.2971 20.4077 36.2324 20.3659 36.1881 20.2936C36.1634 20.2535 36.1423 20.2103 36.124 20.1666C35.6002 18.9081 35.077 17.6492 34.5538 16.3907C34.5204 16.3099 34.5299 16.2795 34.5982 16.2237C34.7104 16.1317 34.9919 16.1131 35.1087 16.2805C35.1692 16.3671 35.2202 16.4626 35.261 16.5603C35.3866 16.8619 35.5052 17.1663 35.6262 17.47C35.958 18.3035 36.2898 19.1367 36.6219 19.9702C36.6328 19.9974 36.6455 20.0239 36.6659 20.0704C36.6838 20.0271 36.6968 19.9999 36.7067 19.9713C36.9301 19.3288 37.1535 18.6859 37.3766 18.0431C37.5461 17.5548 37.715 17.0661 37.8871 16.5785C37.9166 16.4952 37.9529 16.4118 38 16.3378C38.1274 16.1385 38.3606 16.0981 38.5517 16.2347C38.6227 16.2855 38.6266 16.2977 38.5956 16.3818C38.3427 17.0708 38.0894 17.7594 37.8367 18.448C37.3927 19.6586 36.9498 20.8696 36.504 22.0794C36.4713 22.1678 36.4298 22.2554 36.3784 22.3338C36.2236 22.5706 35.9562 22.5187 35.8074 22.3996C35.7617 22.3631 35.7726 22.3263 35.7902 22.2815C35.9298 21.9217 36.0681 21.5611 36.2071 21.2005C36.2936 20.9758 36.3802 20.7515 36.4664 20.5268C36.4762 20.4993 36.4857 20.4718 36.4987 20.4353Z" fill="#3A4147"/>
<path d="M24.4172 20.1007C24.4366 20.0542 24.4499 20.0252 24.4612 19.9955C24.8834 18.8693 25.3042 17.7428 25.7285 16.617C25.7689 16.5094 25.8182 16.4024 25.8798 16.3062C25.9751 16.1566 26.1648 16.1126 26.3231 16.1895C26.3491 16.2021 26.3741 16.2196 26.3959 16.2386C26.4536 16.289 26.4596 16.3133 26.4314 16.3863C26.3287 16.6521 26.2256 16.9179 26.1218 17.1833C25.7032 18.2565 25.2841 19.3297 24.8651 20.403C24.8521 20.4362 24.8384 20.4691 24.8253 20.502C24.7764 20.6258 24.6818 20.6895 24.5551 20.6984C24.4531 20.7056 24.35 20.7042 24.248 20.6988C24.1343 20.6927 24.0619 20.6294 24.0197 20.5203C23.886 20.174 23.7484 19.8295 23.6126 19.4839C23.2083 18.4562 22.8037 17.4284 22.3995 16.4006C22.3622 16.3062 22.3727 16.2711 22.4547 16.2146C22.6144 16.104 22.8653 16.1448 22.9694 16.3097C23.0307 16.4063 23.0785 16.514 23.119 16.6217C23.4381 17.4724 23.7537 18.3245 24.0707 19.1763C24.1709 19.4464 24.2712 19.7165 24.3718 19.9862C24.3834 20.0191 24.3972 20.0509 24.4172 20.1007Z" fill="#3A4147"/>
<path d="M32.4098 16.9612C32.4232 16.9293 32.4369 16.8982 32.4496 16.866C32.5154 16.6986 32.6019 16.5444 32.7251 16.4127C32.902 16.2235 33.1212 16.123 33.3742 16.0911C33.5269 16.0718 33.6785 16.0736 33.8277 16.1123C33.8808 16.1262 33.9343 16.1466 33.9825 16.1734C34.1852 16.2875 34.2541 16.5512 34.1345 16.753C34.1116 16.7919 34.0757 16.8227 34.0448 16.8588C34.023 16.8442 34.01 16.837 33.9991 16.8277C33.719 16.5895 33.1466 16.5898 32.8327 16.9519C32.6881 17.1186 32.5984 17.3139 32.5354 17.5235C32.464 17.7611 32.4264 18.005 32.4134 18.2522C32.4024 18.4572 32.3986 18.6629 32.3979 18.8682C32.3958 19.3716 32.3975 19.8749 32.3965 20.3782C32.3965 20.4312 32.3915 20.4856 32.3789 20.5367C32.3574 20.624 32.2951 20.6734 32.2089 20.6816C32.1393 20.6884 32.0682 20.688 31.9985 20.682C31.906 20.6737 31.842 20.614 31.8212 20.5217C31.8107 20.4755 31.8054 20.4276 31.8054 20.3804C31.8047 19.0163 31.8047 17.6523 31.8047 16.2883C31.8047 16.2067 31.8152 16.1881 31.893 16.1709C32.1055 16.1237 32.2863 16.1791 32.35 16.4246C32.3782 16.5326 32.381 16.6474 32.3905 16.7598C32.3961 16.8256 32.3915 16.8925 32.3915 16.959C32.3972 16.9597 32.4035 16.9604 32.4098 16.9612Z" fill="#3A4147"/>
<path d="M14.011 16.9514C14.0244 16.9192 14.0377 16.8873 14.0508 16.8551C14.1155 16.6938 14.1996 16.545 14.3175 16.4173C14.4958 16.2248 14.7171 16.1228 14.9736 16.091C15.1235 16.0724 15.272 16.0731 15.4183 16.111C15.4718 16.125 15.5253 16.144 15.5738 16.1704C15.7779 16.2824 15.8504 16.5435 15.7343 16.7478C15.7118 16.7875 15.6766 16.8201 15.6467 16.8566C15.6277 16.8476 15.6164 16.844 15.6073 16.8376C15.1981 16.5407 14.6601 16.6262 14.3614 17.0372C14.214 17.2401 14.1356 17.4729 14.0828 17.7158C14.0205 18.002 13.9962 18.2925 13.9955 18.5848C13.9938 19.1776 13.9955 19.77 13.9945 20.3627C13.9945 20.4189 13.9899 20.4761 13.9776 20.5305C13.9568 20.6217 13.8938 20.6736 13.8034 20.6822C13.7338 20.6886 13.6627 20.689 13.593 20.6818C13.503 20.6725 13.4421 20.6189 13.4196 20.5287C13.409 20.4858 13.403 20.4407 13.403 20.3967C13.4023 19.0269 13.4023 17.6568 13.4023 16.287C13.4023 16.2058 13.4129 16.188 13.4917 16.1708C13.7028 16.1246 13.8858 16.1826 13.9466 16.428C13.9748 16.5421 13.9776 16.663 13.9881 16.7811C13.9931 16.8369 13.9888 16.8934 13.9888 16.9492C13.9966 16.9499 14.0036 16.9506 14.011 16.9514Z" fill="#3A4147"/>
</g>
<defs>
<clipPath id="clip0_473_7129">
<rect width="52" height="22" fill="white" transform="translate(0.695312 0.5)"/>
</clipPath>
</defs>
</svg>
