<svg width="62" height="26" viewBox="0 0 62 26" fill="none" xmlns="http://www.w3.org/2000/svg">
<path d="M24.4137 0.000911037C24.4854 0.0135937 24.5571 0.0258536 24.6289 0.038959C25.1704 0.137461 25.5345 0.451146 25.7359 0.963103C25.8714 1.30807 25.9242 1.66826 25.9242 2.03732C25.9238 3.38591 25.9226 4.7345 25.9242 6.08267C25.9242 6.16934 25.9351 6.25938 25.9607 6.34182C26.0249 6.54982 26.2015 6.67453 26.418 6.68129C26.6051 6.68721 26.7796 6.64198 26.9344 6.53713C27.0208 6.47879 27.1038 6.41157 27.1772 6.33759C27.7431 5.7673 28.3056 5.19404 28.8699 4.62205C28.9462 4.54469 29.0234 4.46775 29.1035 4.39461C29.4068 4.11855 29.7646 4.02766 30.1635 4.0898C30.5784 4.15406 30.9278 4.34895 31.2223 4.64657C31.3167 4.74211 31.3964 4.84865 31.4463 4.97505C31.513 5.14373 31.4899 5.25999 31.3465 5.36737C30.6535 5.88694 30.1019 6.54813 29.5305 7.18987C29.4366 7.29513 29.3598 7.41308 29.3044 7.54371C29.1991 7.79187 29.2067 8.03707 29.33 8.27677C29.3539 8.3237 29.3812 8.36936 29.4114 8.41205C29.9676 9.20134 30.5184 9.99485 31.125 10.7469C31.3654 11.0446 31.6108 11.3379 31.8612 11.6271C31.964 11.7459 32.086 11.8478 32.1993 11.9573C32.2295 11.9865 32.2618 12.0139 32.2899 12.0448C32.3742 12.1374 32.3939 12.2477 32.3415 12.3576C32.2966 12.4515 32.2425 12.5458 32.1729 12.6223C31.8851 12.9398 31.5285 13.1385 31.1049 13.1976C30.7655 13.2454 30.445 13.1774 30.1497 12.9968C29.8707 12.8269 29.6404 12.6024 29.4362 12.35C28.7335 11.4829 28.033 10.6138 27.3303 9.74627C27.2574 9.65622 27.181 9.56871 27.1009 9.48585C26.9159 9.29434 26.6894 9.20303 26.4226 9.20895C26.1717 9.21487 25.9893 9.3641 25.9448 9.61226C25.9314 9.68793 25.9251 9.76614 25.9255 9.84308C25.928 10.4485 25.936 11.0539 25.9347 11.6597C25.9343 11.8808 25.9188 12.1027 25.8991 12.323C25.8907 12.416 25.8617 12.5094 25.8286 12.5978C25.7044 12.93 25.4578 13.1173 25.1163 13.1816C24.8529 13.231 24.5869 13.2133 24.3218 13.2031C24.2182 13.1993 24.1129 13.1803 24.0127 13.1528C23.6947 13.0653 23.4875 12.8578 23.388 12.5415C23.3281 12.3517 23.3088 12.1564 23.3088 11.9581C23.3088 9.38439 23.3092 6.81066 23.3083 4.23692C23.3083 3.58926 23.3134 2.94118 23.2983 2.29351C23.2882 1.85427 23.2496 1.41545 23.2173 0.976631C23.2089 0.861641 23.1779 0.748343 23.1536 0.635044C23.1078 0.422821 23.1506 0.320514 23.3394 0.217362C23.5416 0.107023 23.761 0.0520645 23.9879 0.0237398C24.0252 0.0190895 24.0617 0.00852063 24.0986 0.000488281C24.2039 0.000911037 24.3088 0.000911037 24.4137 0.000911037Z" fill="black"/>
<path d="M62.0011 12.298C61.7734 12.8141 61.3426 13.0636 60.8249 13.1802C60.4239 13.2707 60.0489 13.179 59.707 12.9494C59.4603 12.7837 59.2523 12.5761 59.0656 12.3462C58.3697 11.4867 57.6759 10.626 56.9799 9.76692C56.8981 9.6663 56.8134 9.56738 56.7228 9.47522C56.5386 9.28752 56.3129 9.20212 56.0508 9.20931C55.8091 9.21565 55.6313 9.35812 55.5818 9.59697C55.5675 9.66546 55.5612 9.73648 55.5612 9.80624C55.5621 10.2603 55.5679 10.7143 55.5684 11.1684C55.5688 11.471 55.5642 11.7737 55.5596 12.0764C55.557 12.2502 55.5277 12.4197 55.4685 12.5829C55.3507 12.9076 55.1195 13.1101 54.786 13.1726C54.4303 13.239 54.0687 13.2394 53.713 13.1684C53.304 13.0868 53.0699 12.8175 52.9894 12.4146C52.9588 12.2608 52.9453 12.1005 52.9449 11.9433C52.9424 8.8766 52.9462 5.81035 52.9399 2.74368C52.939 2.22665 52.9038 1.70962 52.8732 1.19344C52.8623 1.00869 52.8174 0.825642 52.7884 0.641743C52.7817 0.600313 52.7746 0.55846 52.7708 0.516607C52.762 0.416837 52.7981 0.332286 52.8807 0.280287C52.9718 0.223215 53.0682 0.171216 53.1681 0.131477C53.3208 0.0706002 53.4814 0.0359342 53.6463 0.0219833C53.6769 0.0194468 53.7063 0.0076096 53.7365 0C53.8413 0 53.9462 0 54.0511 0C54.0813 0.0076096 54.1111 0.0186012 54.1417 0.0219833C54.6799 0.0815918 55.0788 0.343278 55.3154 0.840861C55.3515 0.916957 55.3834 0.995589 55.4102 1.07507C55.5277 1.42215 55.5612 1.78149 55.5608 2.14633C55.5583 3.44926 55.5579 4.75177 55.557 6.0547C55.557 6.10036 55.5562 6.14644 55.5596 6.1921C55.578 6.43941 55.729 6.62458 55.9618 6.66855C56.0457 6.68419 56.1363 6.67996 56.2219 6.66855C56.4417 6.63938 56.6217 6.52608 56.7765 6.37135C57.0793 6.06908 57.3797 5.76427 57.6809 5.45989C58.024 5.11323 58.3642 4.76445 58.7103 4.42075C58.8995 4.23305 59.1268 4.10665 59.3936 4.08297C60.0187 4.02801 60.525 4.27279 60.9336 4.7374C60.999 4.81223 61.0485 4.9065 61.0867 4.99908C61.1475 5.1462 61.1135 5.25189 60.9931 5.35674C60.9721 5.37534 60.9487 5.39056 60.9268 5.40873C60.7918 5.51992 60.65 5.62434 60.5225 5.74356C60.0434 6.19252 59.6021 6.67827 59.1742 7.17585C59.1126 7.2473 59.056 7.32466 59.0077 7.40583C58.8059 7.7453 58.8131 8.08224 59.0413 8.40565C59.4121 8.93029 59.7833 9.45493 60.1638 9.9728C60.5548 10.5046 60.9621 11.0246 61.3979 11.5205C61.5183 11.6571 61.6471 11.7873 61.7801 11.9111C61.8644 11.9898 61.9537 12.0608 62.0007 12.1707C62.0011 12.2134 62.0011 12.2557 62.0011 12.298Z" fill="black"/>
<path d="M49.7703 0.000976562C49.8417 0.0145047 49.9126 0.0284557 49.9839 0.0419839C50.4726 0.13499 50.8212 0.407667 51.0288 0.864243C51.1706 1.17624 51.2318 1.50641 51.2536 1.84588C51.2604 1.94777 51.2595 2.05007 51.2595 2.15196C51.2608 2.75396 51.2608 3.35596 51.2625 3.95839C51.2671 5.61306 51.2725 7.26772 51.2771 8.92281C51.2797 9.90149 51.2809 10.8806 51.2838 11.8593C51.2843 12.0567 51.2855 12.2529 51.2406 12.4473C51.1349 12.9026 50.8585 13.1664 50.3983 13.2197C50.1034 13.2539 49.8047 13.2565 49.5098 13.207C49.0287 13.1267 48.7472 12.8325 48.6847 12.3442C48.6684 12.2157 48.6617 12.0846 48.6617 11.9548C48.6604 9.11685 48.6633 6.2789 48.6587 3.44094C48.6579 2.84274 48.6382 2.24412 48.6147 1.64634C48.6012 1.29884 48.5757 0.951331 48.4926 0.610167C48.4477 0.425 48.4951 0.327767 48.6591 0.232647C48.8651 0.113007 49.0912 0.0559348 49.3249 0.0254964C49.3622 0.0208461 49.3983 0.00985443 49.4352 0.00182207C49.5463 0.000976562 49.6583 0.000976562 49.7703 0.000976562Z" fill="black"/>
<path d="M20.1348 0.000976562C20.2061 0.0145047 20.2774 0.0276102 20.3487 0.0411383C20.8596 0.136681 21.2141 0.428805 21.4171 0.909055C21.5732 1.27812 21.6269 1.66579 21.6269 2.06402C21.6269 3.75082 21.6269 5.43719 21.6269 7.12398C21.6269 8.74018 21.6269 10.3564 21.6269 11.9726C21.6269 12.1598 21.6134 12.345 21.5602 12.526C21.4415 12.9276 21.1696 13.1487 20.7636 13.2041C20.475 13.2434 20.1847 13.2404 19.8961 13.2024C19.4497 13.144 19.1553 12.8637 19.071 12.4114C19.0433 12.2634 19.0298 12.1108 19.0294 11.9607C19.0269 9.24918 19.029 6.53804 19.0265 3.82649C19.0261 3.22449 19.0173 2.62248 19.0001 2.0209C18.9883 1.61294 18.9703 1.20456 18.9006 0.801253C18.8868 0.721775 18.8675 0.643142 18.8511 0.564087C18.8256 0.439797 18.8667 0.337913 18.9703 0.27154C19.055 0.217005 19.1465 0.170502 19.24 0.134145C19.3965 0.072845 19.5601 0.0352198 19.7287 0.0229598C19.7593 0.0208461 19.7891 0.00900892 19.8193 0.00139932C19.925 0.000976562 20.0299 0.000976562 20.1348 0.000976562Z" fill="black"/>
<path d="M62.0013 21.2359C61.9606 21.3433 61.873 21.3729 61.7706 21.3771C61.7287 21.3788 61.6867 21.3788 61.6448 21.3788C60.3586 21.3788 59.0729 21.3788 57.7868 21.3788C57.7419 21.3788 57.697 21.3788 57.6492 21.3788C57.6177 21.4697 57.6463 21.5521 57.6593 21.6324C57.7981 22.4999 58.3946 23.0816 59.1165 23.2516C59.5801 23.3607 60.0398 23.3336 60.4887 23.1768C60.862 23.0461 61.1443 22.7954 61.3629 22.4682C61.4409 22.3511 61.4631 22.3465 61.5911 22.4086C61.8243 22.5223 61.8986 22.7511 61.7769 22.9831C61.7123 23.1062 61.6225 23.2089 61.521 23.3015C61.224 23.5716 60.8742 23.7407 60.4895 23.8396C59.9056 23.9897 59.3192 24.002 58.742 23.8185C57.7847 23.5141 57.2083 22.8483 56.9944 21.8679C56.8631 21.2668 56.8975 20.6673 57.1248 20.0932C57.4919 19.1669 58.1652 18.6072 59.1497 18.4457C59.5956 18.3726 60.0361 18.4081 60.461 18.5628C61.1674 18.8203 61.615 19.3314 61.8495 20.0408C61.9237 20.2648 61.9749 20.4944 61.9799 20.7328C61.9808 20.7671 61.9938 20.8009 62.0013 20.8347C62.0013 20.9683 62.0013 21.1019 62.0013 21.2359ZM61.253 20.759C61.2438 20.6779 61.2379 20.6119 61.2291 20.5468C61.1934 20.2936 61.1204 20.0522 60.9916 19.8307C60.7198 19.3627 60.3108 19.1061 59.7785 19.0503C59.1933 18.989 58.6794 19.1521 58.2528 19.5669C57.9407 19.8704 57.7658 20.2483 57.6811 20.6724C57.676 20.6986 57.6802 20.7265 57.6802 20.759C58.8691 20.759 60.0524 20.759 61.253 20.759Z" fill="black"/>
<path d="M46.9722 9.19908C46.9777 9.73767 46.9802 10.2763 46.989 10.8149C46.9936 11.0964 47.0058 11.378 47.0226 11.6591C47.0414 11.9715 47.0595 12.2839 47.1371 12.5896C47.1883 12.7912 47.135 12.8973 46.9529 12.9992C46.7579 13.1083 46.5448 13.1628 46.3262 13.1945C46.025 13.2381 45.7272 13.2246 45.4365 13.1231C45.0816 12.9992 44.8211 12.7701 44.6638 12.4247C44.6579 12.412 44.6525 12.3989 44.647 12.3862C44.564 12.1998 44.436 12.1364 44.241 12.2019C44.1638 12.2277 44.0858 12.2717 44.0258 12.3266C43.4477 12.8606 42.7631 13.1595 41.993 13.2694C41.3843 13.356 40.7807 13.3336 40.1867 13.162C39.9543 13.0948 39.7315 13.0026 39.523 12.8787C38.8762 12.4957 38.4781 11.9326 38.3514 11.1877C38.2621 10.661 38.2919 10.1334 38.4336 9.61803C38.5826 9.07691 38.9018 8.65753 39.3745 8.35611C39.7672 8.10584 40.1921 7.92913 40.6305 7.78243C41.2211 7.585 41.8256 7.44169 42.4385 7.336C42.8374 7.26709 43.2384 7.21044 43.639 7.1521C43.7909 7.13012 43.9444 7.11913 44.0971 7.10222C44.1315 7.09841 44.1667 7.09503 44.2003 7.08573C44.324 7.05191 44.4062 6.95214 44.4016 6.82362C44.3937 6.59068 44.363 6.36112 44.2787 6.14171C44.1764 5.87453 43.9926 5.68768 43.7313 5.57649C43.5425 5.49617 43.3441 5.45685 43.1419 5.4391C42.7858 5.40781 42.4305 5.40612 42.0781 5.48306C41.4225 5.62638 40.9321 5.99713 40.5894 6.57293C40.5587 6.62408 40.5306 6.67692 40.5025 6.72977C40.4702 6.79064 40.4216 6.82742 40.3524 6.82785C39.9434 6.83081 39.5511 6.76105 39.2047 6.52642C38.9303 6.34083 38.7915 6.07534 38.7827 5.74221C38.7726 5.34651 38.8984 4.9952 39.1308 4.68025C39.3653 4.36318 39.6711 4.13278 40.0164 3.95184C40.4132 3.74385 40.836 3.6149 41.274 3.53204C41.9439 3.40564 42.6197 3.38535 43.2988 3.41959C43.7464 3.442 44.1898 3.49019 44.6261 3.59461C44.861 3.65084 45.0892 3.72567 45.3111 3.8229C46.0196 4.1332 46.4881 4.66165 46.7264 5.4002C46.8405 5.75363 46.9005 6.11677 46.9366 6.48541C46.9924 7.05064 46.9777 7.61798 46.9789 8.18447C46.9794 8.52267 46.9789 8.86046 46.9789 9.19866C46.9768 9.19866 46.9747 9.19866 46.9722 9.19908ZM44.4146 9.26884C44.4146 9.21261 44.4163 9.15596 44.4142 9.09974C44.405 8.86088 44.2414 8.70742 44.0056 8.71883C43.5056 8.74335 43.0127 8.81776 42.5307 8.95642C42.1834 9.05619 41.8508 9.19021 41.5491 9.3944C41.3826 9.50727 41.2371 9.64128 41.1179 9.80574C40.8209 10.2145 40.922 10.9096 41.5332 11.118C41.5793 11.1336 41.6259 11.1493 41.6733 11.1607C41.9409 11.2249 42.2111 11.2351 42.4846 11.2055C42.9406 11.156 43.3533 10.9992 43.7078 10.7041C44.1533 10.3325 44.4025 9.85858 44.4146 9.26884Z" fill="black"/>
<path d="M17.3374 9.27038C17.3471 9.88971 17.3492 10.5095 17.3693 11.1288C17.3819 11.519 17.4184 11.9084 17.4515 12.2973C17.4612 12.4123 17.4931 12.5252 17.5174 12.6385C17.548 12.7805 17.4969 12.8866 17.3802 12.9644C17.2414 13.0566 17.0866 13.1103 16.9264 13.1492C16.5526 13.2392 16.1805 13.251 15.8109 13.1246C15.4435 12.9987 15.1792 12.759 15.0232 12.4C15.0118 12.3742 15.0022 12.348 14.9896 12.3227C14.9485 12.2411 14.8822 12.1963 14.7916 12.1865C14.6305 12.1692 14.4984 12.2276 14.3826 12.3362C14.0407 12.6575 13.6464 12.8925 13.2089 13.0562C12.695 13.2481 12.1627 13.3259 11.6157 13.3157C11.1471 13.3073 10.6907 13.2346 10.2549 13.0557C9.68859 12.8236 9.24142 12.4529 8.95575 11.8999C8.75817 11.5169 8.67763 11.1064 8.67973 10.6773C8.68141 10.3598 8.69735 10.044 8.77201 9.73414C8.90751 9.17399 9.20157 8.72376 9.6802 8.40035C10.0724 8.1357 10.5024 7.95307 10.947 7.8013C11.5565 7.59331 12.1807 7.44323 12.8146 7.33585C13.2756 7.25806 13.7395 7.19634 14.2022 7.12912C14.2954 7.11559 14.3897 7.10756 14.4837 7.10207C14.6876 7.09023 14.7878 6.94438 14.7715 6.77528C14.7534 6.58588 14.7329 6.39775 14.675 6.21512C14.5722 5.89172 14.3625 5.67231 14.0466 5.55436C13.8717 5.48883 13.69 5.45416 13.5055 5.4381C13.1246 5.40512 12.7445 5.40512 12.3703 5.49982C11.7755 5.65032 11.3204 5.99402 10.994 6.51444C10.9621 6.56517 10.9269 6.61463 10.9051 6.66959C10.8543 6.79768 10.7633 6.83573 10.632 6.82981C10.3824 6.81882 10.1387 6.78204 9.9042 6.69453C9.82618 6.66536 9.74899 6.63027 9.676 6.58926C9.27246 6.36351 9.11515 6.00079 9.1592 5.5552C9.20618 5.08341 9.42767 4.70293 9.76661 4.38459C10.0653 4.10431 10.4172 3.91237 10.7956 3.76779C11.2059 3.61137 11.6316 3.52048 12.0662 3.46552C12.5113 3.4093 12.958 3.39492 13.4052 3.4076C14.0244 3.42494 14.6393 3.48032 15.2367 3.65914C15.5668 3.75765 15.8793 3.8942 16.1633 4.09331C16.665 4.44505 16.9645 4.93629 17.1327 5.51842C17.2418 5.8951 17.3022 6.28107 17.3198 6.67212C17.3383 7.07966 17.3421 7.48846 17.3458 7.89642C17.35 8.35427 17.3467 8.81169 17.3467 9.26953C17.3437 9.27038 17.3408 9.27038 17.3374 9.27038ZM12.5688 11.2235C12.8414 11.2205 13.1061 11.1817 13.3641 11.0975C14.1297 10.8473 14.826 10.1476 14.7908 9.13341C14.782 8.88187 14.6003 8.69966 14.357 8.71741C13.9174 8.74954 13.482 8.80577 13.0545 8.91526C12.6741 9.0125 12.3074 9.14651 11.9735 9.35916C11.7889 9.47668 11.6266 9.61788 11.4949 9.79629C11.1815 10.2207 11.3007 10.9187 11.911 11.122C12.1262 11.1935 12.3464 11.2189 12.5688 11.2235Z" fill="black"/>
<path d="M6.39202 0.210719C7.8879 0.210719 9.38378 0.210719 10.8797 0.210719C10.9111 0.210719 10.9426 0.210297 10.974 0.210719C11.115 0.213256 11.1972 0.263987 11.2425 0.401382C11.2882 0.541314 11.3277 0.684628 11.3533 0.829211C11.4095 1.14924 11.3965 1.46715 11.2887 1.77703C11.1741 2.10678 10.9665 2.35747 10.6636 2.52784C10.4165 2.66651 10.1502 2.75148 9.87122 2.7853C9.66022 2.81067 9.4467 2.82504 9.23403 2.82715C8.67485 2.83265 8.11526 2.83688 7.55651 2.82588C7.24735 2.81997 6.99272 3.07024 6.99734 3.38181C6.99818 3.42747 6.99692 3.47355 6.99692 3.5192C6.99692 6.33941 6.99734 9.16003 6.99524 11.9802C6.99524 12.1168 6.98224 12.255 6.95917 12.3895C6.87695 12.8727 6.59296 13.1563 6.11181 13.2181C5.82404 13.2548 5.53292 13.2531 5.24432 13.2088C4.78331 13.1382 4.48505 12.8279 4.40913 12.359C4.38689 12.2208 4.37766 12.0792 4.37766 11.9388C4.37599 9.07252 4.37473 6.20666 4.37934 3.34038C4.37976 3.1235 4.22288 2.91974 4.04879 2.86224C3.98083 2.83984 3.90533 2.83054 3.83317 2.83054C2.72532 2.82842 1.61704 2.82927 0.509187 2.82927C0.481082 2.82927 0.453396 2.82969 0.42529 2.82927C0.280149 2.82758 0.193316 2.77431 0.147592 2.63438C0.10103 2.49106 0.0645345 2.34394 0.0339122 2.1964C-0.0214596 1.92668 -0.00677768 1.65823 0.0615981 1.3919C0.169405 0.971679 0.413545 0.663491 0.79947 0.469446C1.05242 0.342619 1.32131 0.26906 1.60068 0.239467C1.78106 0.220443 1.96312 0.212833 2.14433 0.21241C3.56093 0.209451 4.97669 0.210719 6.39202 0.210719Z" fill="black"/>
<path d="M36.0318 0.210719C37.5243 0.210719 39.0164 0.210719 40.5089 0.210719C40.5438 0.210719 40.579 0.211988 40.6138 0.210719C40.7468 0.206069 40.8378 0.270328 40.8777 0.392927C40.9234 0.532859 40.9628 0.67575 40.9905 0.820333C41.0417 1.08921 41.0383 1.36019 40.9729 1.62695C40.8622 2.08014 40.5937 2.40313 40.1713 2.59633C39.9045 2.71808 39.6234 2.78699 39.3327 2.80813C39.1272 2.82293 38.9208 2.82715 38.7148 2.82842C38.2047 2.83096 37.6942 2.83603 37.1841 2.82673C36.8892 2.82123 36.6363 3.06601 36.6363 3.37251C36.6363 3.4114 36.6363 3.44987 36.6363 3.48877C36.6363 6.31235 36.6367 9.13636 36.6346 11.9599C36.6346 12.1071 36.6216 12.2559 36.5964 12.4005C36.5138 12.8752 36.2264 13.1585 35.7507 13.2185C35.463 13.2548 35.1719 13.2536 34.8832 13.2092C34.4248 13.1386 34.1219 12.8312 34.0468 12.3485C34.0241 12.203 34.0158 12.0542 34.0153 11.9071C34.0137 9.05181 34.012 6.19609 34.0179 3.3408C34.0183 3.11082 33.8362 2.88338 33.6185 2.84026C33.5678 2.83011 33.5145 2.82969 33.4625 2.82969C32.3441 2.82927 31.2258 2.82927 30.107 2.82927C29.9044 2.82927 29.8297 2.77854 29.7676 2.58576C29.6426 2.19725 29.6003 1.80239 29.6997 1.40078C29.805 0.975907 30.0508 0.664336 30.4409 0.469023C30.6939 0.342196 30.9628 0.268637 31.2421 0.239467C31.4259 0.220443 31.6117 0.212833 31.7963 0.21241C33.2078 0.209451 34.6198 0.210719 36.0318 0.210719Z" fill="black"/>
<path d="M21.608 23.1381C21.6575 23.1381 21.7028 23.1381 21.7481 23.1381C23.0099 23.1381 24.2721 23.1376 25.5339 23.1389C25.6065 23.1389 25.6812 23.144 25.7508 23.163C25.8603 23.1926 25.9165 23.275 25.9232 23.3888C25.9262 23.4378 25.9262 23.4873 25.9236 23.5367C25.9165 23.6919 25.8238 23.7929 25.6707 23.8098C25.6187 23.8157 25.5658 23.8149 25.5134 23.8149C24.122 23.8153 22.731 23.8153 21.3395 23.8145C21.2804 23.8145 21.2196 23.8153 21.1625 23.8022C20.9825 23.7608 20.8575 23.6006 20.8521 23.412C20.8512 23.3837 20.8517 23.3558 20.8517 23.3275C20.8517 21.264 20.8517 19.2001 20.8521 17.1366C20.8521 17.0876 20.85 17.0373 20.8584 16.9891C20.8915 16.7984 21.0539 16.6593 21.2468 16.6513C21.2712 16.6505 21.2959 16.6505 21.3202 16.6505C22.7045 16.6505 24.0888 16.65 25.4731 16.6513C25.5386 16.6513 25.6065 16.656 25.6694 16.6724C25.7873 16.7037 25.8473 16.7908 25.8578 16.9113C25.862 16.9565 25.8607 17.003 25.859 17.0487C25.8528 17.2115 25.7613 17.3087 25.5985 17.3235C25.5432 17.3286 25.487 17.3277 25.4308 17.3277C24.2004 17.3281 22.9696 17.3277 21.7393 17.3277C21.6948 17.3277 21.6504 17.3277 21.6093 17.3277C21.5845 17.4233 21.582 19.6939 21.6059 19.8084C21.6478 19.8084 21.6923 19.8084 21.7368 19.8084C22.7121 19.8084 23.6874 19.808 24.6627 19.8089C24.7252 19.8089 24.7889 19.8122 24.8506 19.8224C24.9769 19.8435 25.0582 19.926 25.075 20.0536C25.0826 20.1124 25.0834 20.1741 25.0742 20.2325C25.0557 20.3521 24.9857 20.4307 24.8644 20.4515C24.7994 20.4624 24.7327 20.4684 24.6669 20.4684C23.6882 20.4692 22.7091 20.4692 21.7305 20.4692C21.689 20.4692 21.6474 20.4692 21.6084 20.4692C21.5845 20.5652 21.5832 23.0269 21.608 23.1381Z" fill="black"/>
<path d="M31.6656 21.3783C31.7369 22.1706 32.0725 22.7658 32.7772 23.1175C33.034 23.2456 33.3096 23.3052 33.5965 23.3116C33.8457 23.3171 34.0923 23.2989 34.3344 23.2376C34.7891 23.1222 35.1398 22.8601 35.3999 22.4699C35.4787 22.3511 35.501 22.3464 35.6272 22.4073C35.8332 22.5067 35.9536 22.7282 35.8168 22.9806C35.7401 23.1218 35.6348 23.2384 35.514 23.3416C35.2006 23.6088 34.8361 23.7724 34.4388 23.862C33.862 23.9922 33.2848 23.9943 32.7223 23.8007C31.7847 23.4781 31.2277 22.8077 31.0263 21.8387C30.9017 21.2397 30.9424 20.6453 31.1706 20.0754C31.5255 19.1893 32.1707 18.641 33.1044 18.4588C33.6116 18.3598 34.115 18.4013 34.5961 18.6008C35.2681 18.8794 35.6834 19.3935 35.9007 20.0809C36.0098 20.4263 36.0454 20.7827 36.0396 21.1437C36.0391 21.1648 36.0375 21.186 36.0345 21.2067C36.0215 21.3039 35.9871 21.3453 35.8927 21.3627C35.8315 21.3737 35.7677 21.3779 35.7052 21.3779C34.4086 21.3787 33.112 21.3783 31.8154 21.3787C31.7705 21.3783 31.726 21.3783 31.6656 21.3783ZM31.7067 20.7586C32.9077 20.7586 34.0906 20.7586 35.2849 20.7586C35.2824 20.7061 35.2849 20.6605 35.2765 20.6165C35.2509 20.4821 35.2321 20.3447 35.1918 20.2145C35.0198 19.6602 34.6754 19.2675 34.1099 19.1064C33.6414 18.9733 33.1804 19.0151 32.7454 19.2383C32.1803 19.5283 31.8665 20.0124 31.729 20.6241C31.7201 20.6647 31.7155 20.7057 31.7067 20.7586Z" fill="black"/>
<path d="M11.6171 23.962C10.9267 23.9447 10.3092 23.7422 9.78985 23.2742C9.39008 22.914 9.13252 22.4642 9.005 21.9416C8.85734 21.3358 8.86824 20.7317 9.08554 20.1445C9.42658 19.2225 10.0868 18.6649 11.0416 18.4687C11.6289 18.3482 12.2061 18.399 12.7539 18.648C13.5627 19.0158 14.0476 19.6575 14.2355 20.5229C14.3765 21.1727 14.3299 21.814 14.0501 22.4223C13.6759 23.237 13.0387 23.7236 12.1671 23.8956C11.9863 23.9316 11.8004 23.9404 11.6171 23.962ZM13.59 21.1752C13.5837 20.9541 13.5577 20.7207 13.4914 20.4929C13.1986 19.4863 12.3118 18.9308 11.3667 19.0538C10.6943 19.1413 10.1934 19.4892 9.8813 20.0925C9.58514 20.6658 9.55116 21.272 9.7328 21.8867C10.0176 22.8493 10.8772 23.4137 11.821 23.3118C12.3672 23.253 12.8106 23.0074 13.1461 22.5707C13.4578 22.1657 13.5824 21.6969 13.59 21.1752Z" fill="black"/>
<path d="M48.1493 23.949C47.606 23.9503 47.1371 23.8429 46.7067 23.5931C46.1479 23.2684 45.7612 22.7945 45.5573 22.1798C45.2955 21.3918 45.3203 20.6105 45.6861 19.8601C46.0569 19.0996 46.6752 18.6456 47.4945 18.4731C48.0507 18.356 48.6023 18.3902 49.1313 18.6054C49.982 18.9516 50.5017 19.5938 50.7069 20.4862C50.8633 21.1673 50.8126 21.839 50.5059 22.4745C50.1292 23.2557 49.5042 23.7195 48.664 23.8953C48.5788 23.9131 48.492 23.9266 48.4052 23.9346C48.3041 23.9444 48.2026 23.9461 48.1493 23.949ZM46.1085 21.109C46.1076 21.4256 46.1441 21.6822 46.2251 21.9321C46.5334 22.8828 47.4051 23.4459 48.3779 23.3039C49.065 23.2033 49.5592 22.8198 49.8549 22.1895C50.0902 21.6881 50.1267 21.1597 50.0034 20.6224C49.7525 19.5262 48.8267 18.9318 47.8527 19.0531C47.3443 19.1165 46.9214 19.3389 46.5942 19.7358C46.2545 20.1489 46.1135 20.6334 46.1085 21.109Z" fill="black"/>
<path d="M5.1214 17.3281C5.1214 18.2421 5.1214 19.1346 5.1214 20.0414C5.17216 20.0414 5.21662 20.0414 5.26067 20.0414C6.1097 20.0414 6.95916 20.041 7.80819 20.0418C7.87069 20.0418 7.93445 20.0448 7.9957 20.0566C8.10896 20.0777 8.18866 20.1466 8.20754 20.2621C8.22012 20.3369 8.21761 20.4168 8.20586 20.492C8.1895 20.5952 8.12029 20.6607 8.01877 20.6823C7.95795 20.6954 7.89418 20.7013 7.8321 20.7013C6.97258 20.7026 6.11264 20.7021 5.25312 20.7021C5.21201 20.7021 5.1709 20.7021 5.11469 20.7021C5.11469 20.7537 5.11469 20.7943 5.11469 20.8353C5.11469 21.7155 5.11511 22.5952 5.11385 23.4754C5.11385 23.5346 5.11049 23.5955 5.09707 23.653C5.06854 23.7726 4.98968 23.842 4.86929 23.8521C4.78623 23.8589 4.7015 23.8593 4.61802 23.8525C4.49427 23.8428 4.41205 23.7663 4.38814 23.6428C4.37681 23.5845 4.37178 23.524 4.37178 23.4644C4.37094 21.3523 4.37052 19.2403 4.37262 17.1277C4.37262 17.0521 4.38269 16.9705 4.41121 16.9016C4.47539 16.7456 4.59914 16.6619 4.76861 16.6521C4.80007 16.6505 4.83154 16.6505 4.863 16.6505C6.142 16.6505 7.42101 16.65 8.70001 16.6513C8.77258 16.6513 8.84725 16.656 8.9173 16.6729C9.02679 16.6991 9.08971 16.7773 9.10146 16.8902C9.10817 16.9527 9.10859 17.017 9.10272 17.0796C9.08929 17.2191 9.00707 17.3036 8.86864 17.3214C8.81327 17.3286 8.75706 17.3273 8.70127 17.3273C7.55524 17.3277 6.40879 17.3277 5.26276 17.3277C5.2183 17.3281 5.17383 17.3281 5.1214 17.3281Z" fill="black"/>
<path d="M52.2815 19.3232C52.3792 19.2133 52.4707 19.0971 52.5751 18.9943C52.9212 18.6553 53.3386 18.4722 53.8185 18.4249C54.1285 18.3944 54.4334 18.4177 54.7321 18.5022C55.3651 18.6819 55.7661 19.1055 55.9746 19.724C56.0778 20.0301 56.1223 20.3467 56.1227 20.6689C56.1248 21.6163 56.1227 22.5632 56.124 23.5106C56.1244 23.7169 56.061 23.8624 55.7846 23.8607C55.5098 23.859 55.4176 23.7744 55.4171 23.4971C55.4163 22.5814 55.4167 21.6657 55.4167 20.7505C55.4167 20.5095 55.3852 20.2732 55.3127 20.0432C55.1214 19.4378 54.673 19.0928 54.0433 19.0814C53.5253 19.0721 53.068 19.2362 52.6909 19.6035C52.5416 19.7494 52.4216 19.9168 52.3222 20.1007C52.2861 20.1679 52.2689 20.2347 52.2693 20.3116C52.271 21.347 52.2706 22.3823 52.2702 23.4176C52.2702 23.481 52.2702 23.5449 52.2639 23.6074C52.2488 23.7584 52.1624 23.8446 52.013 23.8539C51.94 23.8586 51.8658 23.8586 51.7932 23.8509C51.6821 23.8395 51.6061 23.7706 51.5814 23.6611C51.5692 23.6066 51.5633 23.5495 51.5633 23.4937C51.5625 21.8843 51.5625 20.2749 51.5625 18.6659C51.5625 18.5597 51.5784 18.531 51.6816 18.5175C51.7668 18.5061 51.8574 18.5031 51.9409 18.52C52.0751 18.5471 52.1535 18.6477 52.1993 18.7737C52.2442 18.8975 52.258 19.0269 52.2601 19.1575C52.2609 19.2125 52.2601 19.267 52.2601 19.322C52.2681 19.3228 52.2748 19.3228 52.2815 19.3232Z" fill="black"/>
<path d="M42.6888 23.5595C42.6372 23.5519 42.5932 23.5439 42.5491 23.5388C42.4485 23.527 42.3713 23.4775 42.3184 23.3921C42.2891 23.3448 42.2639 23.2936 42.2421 23.2421C41.6175 21.7548 40.9937 20.2671 40.3699 18.7799C40.3301 18.6843 40.3414 18.6484 40.4228 18.5824C40.5566 18.4738 40.8922 18.4518 41.0314 18.6497C41.1036 18.752 41.1644 18.8648 41.2131 18.9803C41.3628 19.3366 41.5042 19.6964 41.6485 20.0553C42.0441 21.0403 42.4397 22.0249 42.8356 23.01C42.8486 23.0421 42.8637 23.0734 42.8881 23.1283C42.9095 23.0772 42.925 23.0451 42.9367 23.0112C43.2031 22.252 43.4695 21.4923 43.7354 20.7326C43.9376 20.1555 44.139 19.578 44.3441 19.0018C44.3793 18.9033 44.4226 18.8048 44.4788 18.7173C44.6306 18.4818 44.9087 18.4341 45.1365 18.5956C45.2212 18.6556 45.2259 18.67 45.1889 18.7693C44.8873 19.5835 44.5853 20.3973 44.2841 21.2111C43.7547 22.6417 43.2266 24.0728 42.6951 25.5025C42.6561 25.607 42.6066 25.7105 42.5454 25.8031C42.3608 26.083 42.042 26.0217 41.8645 25.8809C41.81 25.8378 41.823 25.7942 41.844 25.7414C42.0105 25.3161 42.1754 24.89 42.3411 24.4638C42.4443 24.1983 42.5475 23.9333 42.6502 23.6678C42.662 23.6352 42.6733 23.6027 42.6888 23.5595Z" fill="black"/>
<path d="M28.2857 23.1645C28.3088 23.1095 28.3248 23.0753 28.3382 23.0402C28.8416 21.7094 29.3433 20.3781 29.8492 19.0477C29.8974 18.9204 29.9561 18.794 30.0295 18.6803C30.1432 18.5036 30.3693 18.4516 30.5581 18.5425C30.5891 18.5573 30.6189 18.578 30.6449 18.6004C30.7137 18.66 30.7208 18.6888 30.6873 18.775C30.5648 19.0891 30.4419 19.4032 30.3181 19.7169C29.8189 20.9852 29.3193 22.2534 28.8197 23.5217C28.8042 23.561 28.7879 23.5999 28.7723 23.6388C28.714 23.7851 28.6012 23.8603 28.4502 23.8709C28.3285 23.8794 28.2056 23.8777 28.084 23.8713C27.9485 23.8641 27.8621 23.7893 27.8117 23.6604C27.6523 23.2512 27.4883 22.844 27.3264 22.4357C26.8444 21.2211 26.362 20.0065 25.88 18.7919C25.8355 18.6803 25.8481 18.6389 25.9459 18.5721C26.1363 18.4415 26.4354 18.4897 26.5596 18.6845C26.6326 18.7987 26.6896 18.9259 26.7378 19.0532C27.1183 20.0585 27.4946 21.0655 27.8725 22.0721C27.9921 22.3913 28.1117 22.7104 28.2316 23.0292C28.2455 23.0681 28.2618 23.1057 28.2857 23.1645Z" fill="black"/>
<path d="M37.8114 19.4545C37.8273 19.4169 37.8437 19.3801 37.8588 19.342C37.9372 19.1442 38.0404 18.962 38.1872 18.8064C38.3982 18.5828 38.6596 18.464 38.9612 18.4263C39.1432 18.4035 39.324 18.4056 39.5019 18.4513C39.5652 18.4678 39.629 18.4919 39.6864 18.5236C39.9281 18.6584 40.0103 18.97 39.8677 19.2084C39.8404 19.2545 39.7976 19.2909 39.7607 19.3336C39.7347 19.3162 39.7192 19.3078 39.7062 19.2968C39.3723 19.0152 38.6898 19.0157 38.3156 19.4435C38.1432 19.6405 38.0362 19.8713 37.9611 20.1191C37.876 20.3998 37.8311 20.6881 37.8156 20.9802C37.8025 21.2224 37.7979 21.4655 37.7971 21.7082C37.7946 22.303 37.7967 22.8978 37.7954 23.4926C37.7954 23.5552 37.7895 23.6195 37.7744 23.6799C37.7489 23.7831 37.6746 23.8414 37.5718 23.8511C37.4888 23.8592 37.404 23.8587 37.321 23.8516C37.2107 23.8418 37.1343 23.7712 37.1096 23.6622C37.097 23.6076 37.0907 23.551 37.0907 23.4952C37.0898 21.8832 37.0898 20.2712 37.0898 18.6593C37.0898 18.5629 37.1024 18.5409 37.1951 18.5206C37.4485 18.4648 37.6641 18.5303 37.74 18.8203C37.7736 18.948 37.777 19.0837 37.7883 19.2165C37.795 19.2943 37.7895 19.3733 37.7895 19.4519C37.7963 19.4528 37.8038 19.4536 37.8114 19.4545Z" fill="black"/>
<path d="M15.8741 19.4424C15.8901 19.4044 15.906 19.3667 15.9215 19.3287C15.9987 19.138 16.099 18.9622 16.2395 18.8112C16.4522 18.5838 16.716 18.4633 17.0219 18.4257C17.2006 18.4037 17.3776 18.4046 17.5521 18.4494C17.6158 18.4659 17.6796 18.4883 17.7375 18.5195C17.9808 18.6519 18.0672 18.9605 17.9288 19.2019C17.9019 19.2488 17.86 19.2873 17.8243 19.3304C17.8017 19.3198 17.7882 19.3156 17.7773 19.308C17.2895 18.9571 16.6481 19.0581 16.2919 19.5439C16.1162 19.7836 16.0226 20.0588 15.9597 20.3458C15.8855 20.6841 15.8565 21.0273 15.8557 21.3727C15.8536 22.0732 15.8557 22.7733 15.8544 23.4738C15.8544 23.5402 15.849 23.6078 15.8343 23.6721C15.8095 23.7799 15.7345 23.8412 15.6266 23.8513C15.5436 23.8589 15.4589 23.8594 15.3758 23.8509C15.2684 23.8399 15.1958 23.7765 15.169 23.67C15.1564 23.6192 15.1493 23.566 15.1493 23.514C15.1484 21.8952 15.1484 20.2761 15.1484 18.6574C15.1484 18.5614 15.161 18.5403 15.255 18.52C15.5067 18.4654 15.7248 18.5339 15.7974 18.8239C15.8309 18.9588 15.8343 19.1017 15.8469 19.2412C15.8528 19.3071 15.8477 19.3739 15.8477 19.4399C15.8569 19.4407 15.8653 19.4416 15.8741 19.4424Z" fill="black"/>
</svg>
