<svg width="39" height="23" viewBox="0 0 39 23" fill="none" xmlns="http://www.w3.org/2000/svg">
<path d="M8.47593 11.6627C8.46457 11.6741 8.44185 11.7006 8.43049 11.712C8.52516 11.9544 8.40398 12.2082 8.38883 12.4545C8.37368 12.8977 8.24114 13.3296 8.25629 13.7766C8.2525 13.9206 8.2222 14.0645 8.18433 14.2009C8.20706 14.2085 8.24871 14.2198 8.26765 14.2274C8.09344 14.3297 7.95333 14.4812 7.76398 14.557C7.63522 14.6025 7.47616 14.5191 7.47995 14.3714C7.45723 13.7463 7.55569 13.125 7.57084 12.4999C7.59356 12.1817 7.59735 11.818 7.83214 11.5718C7.95711 11.4544 8.12374 11.3331 8.30552 11.3596C8.44185 11.3937 8.43428 11.5566 8.47593 11.6627Z" fill="#FF0606"/>
<path d="M8.24994 10.4386C8.13255 10.4235 8 10.3591 8 10.2189C8.00379 9.93478 8.23858 9.71884 8.47716 9.60519C8.55669 9.56731 8.64379 9.58246 8.73089 9.59004C8.76497 9.70369 8.84072 9.82491 8.79148 9.94614C8.7006 10.1848 8.46201 10.3174 8.24994 10.4386Z" fill="#FF0606"/>
<path d="M6.9367 11.8406C6.86475 11.9921 6.92156 12.1701 6.84582 12.3179C6.81173 12.4656 6.77765 12.6134 6.77008 12.7649C6.72463 12.9468 6.69055 13.1324 6.66404 13.318C6.76629 13.4658 6.67161 13.6324 6.61102 13.7764C6.58451 13.9166 6.54286 14.0681 6.60345 14.2045C6.52771 14.3143 6.5012 14.4507 6.48226 14.5795C6.38759 15.3107 6.31185 16.0418 6.18688 16.7692C6.15658 16.9169 6.1225 17.0988 5.97481 17.1745C5.81575 17.273 5.5696 17.2238 5.50522 17.0306C5.34237 16.432 5.29693 15.8069 5.14924 15.2046C5.13409 14.9318 5.06971 14.6667 5.03941 14.3939C4.95231 13.8484 4.88793 13.2991 4.78568 12.7573C4.7516 12.4732 4.72131 12.1891 4.65314 11.9125C4.6077 11.7951 4.59633 11.6663 4.58497 11.5413C4.5471 11.5072 4.51302 11.4731 4.47515 11.4352C4.34261 11.6549 4.23657 11.886 4.17219 12.1323C4.10402 12.4126 3.96012 12.6664 3.86544 12.9392C3.75183 13.0604 3.57006 13.1286 3.411 13.0566C3.2936 12.996 3.20272 12.8558 3.25195 12.7194C3.46402 12.03 3.74047 11.3632 3.9374 10.67C4.05101 10.3404 4.15326 10.007 4.27065 9.68121C4.33124 9.49937 4.52438 9.36677 4.71752 9.40087C4.90308 9.40845 5.02805 9.5865 5.06214 9.75697C5.13788 10.1131 5.17575 10.4768 5.2477 10.8329C5.34237 11.2117 5.33101 11.6095 5.4522 11.9807C5.49007 12.0906 5.52036 12.2042 5.54309 12.3179C5.55445 12.5187 5.60368 12.7119 5.6567 12.9051C5.6264 13.049 5.63019 13.193 5.69457 13.3294C5.7135 13.5756 5.70971 13.8332 5.81575 14.0643C5.89149 13.856 5.8877 13.6287 5.92936 13.4127C6.06191 12.5717 6.19445 11.7269 6.3838 10.8973C6.59966 9.99943 6.8496 9.10917 7.08819 8.21512C7.41387 7.28698 7.75091 6.36262 8.09932 5.43827C8.25837 5.04807 8.36819 4.59726 8.72038 4.32829C9.03471 4.05932 9.59518 4.26767 9.65577 4.67681C9.73151 4.94579 9.56867 5.18824 9.42098 5.39281C9.05364 5.69209 8.79612 6.10502 8.61056 6.54068C8.50074 6.80207 8.37198 7.0521 8.30003 7.32865C8.13719 7.68097 8.01221 8.04464 7.89103 8.41211C7.8115 8.73412 7.72819 9.05613 7.61079 9.36677C7.54641 9.52967 7.56156 9.70772 7.5199 9.87441C7.17907 10.4881 7.06546 11.1738 6.9367 11.8406Z" fill="#FF0606"/>
<path d="M9.30689 10.8555C9.43186 10.7381 9.60227 10.6964 9.76511 10.6737C9.96582 10.6472 10.1362 10.526 10.3256 10.4616C10.602 10.3441 10.7687 10.7836 10.5983 10.9654C10.4089 11.17 10.1287 11.2912 9.99991 11.5564C9.78405 12.0754 9.86358 12.6474 9.80298 13.1929C9.78026 13.5074 9.46594 13.7385 9.16677 13.746C8.97363 13.6854 8.97742 13.443 8.98878 13.2763C9.01907 12.977 8.99635 12.6777 9.02665 12.3822C9.09103 12.0451 9.08724 11.7041 9.10617 11.3632C9.12511 11.1776 9.15919 10.9768 9.30689 10.8555Z" fill="#FF0606"/>
<path d="M13.817 11.3975C13.7299 11.2763 13.7791 11.121 13.7829 10.9846C13.8548 10.3292 13.8965 9.66626 13.995 9.01466C14.0442 8.73433 14.332 8.43126 14.635 8.56385C14.7562 8.88586 14.5895 9.21166 14.6198 9.54124C14.6312 9.80643 14.6198 10.0716 14.5895 10.333C14.5365 10.5489 14.563 10.7762 14.5554 10.996C14.5176 11.1892 14.3396 11.318 14.173 11.3975C14.0631 11.4581 13.9154 11.496 13.817 11.3975Z" fill="#FF0606"/>
<path d="M14.2353 7.62782C14.2125 7.26792 14.6291 6.9838 14.9624 7.08987C14.9889 7.15427 15.0154 7.21868 15.0419 7.28687C14.9472 7.5028 14.7995 7.71495 14.5799 7.81344C14.4436 7.84375 14.2466 7.7945 14.2353 7.62782Z" fill="#FF0606"/>
<path d="M19.4491 9.74538C19.362 9.88176 19.2901 10.0371 19.1538 10.1356C18.9265 10.3136 18.6387 10.3667 18.3698 10.4538C17.9003 10.6091 17.4534 10.8175 17.0217 11.0524C15.7985 11.685 14.598 12.3669 13.4543 13.1359C13.3256 13.2231 13.2082 13.3291 13.0832 13.4239C13.0605 13.8785 13.0453 14.3368 13.0415 14.7914C13.0264 15.121 13.0605 15.4582 13.0074 15.7878C13.0302 15.9204 13.0453 16.0605 12.9999 16.1931C13.0188 16.2348 13.034 16.2765 13.0529 16.3219C13.0377 16.3409 13.015 16.3788 12.9999 16.3977C13.0074 16.4507 13.015 16.5038 13.0112 16.5606C13.0226 16.803 13.14 17.0379 13.087 17.2804C13.1021 17.2955 13.1286 17.3296 13.1438 17.3448C13.1627 17.4092 13.1854 17.4774 13.2082 17.5418C13.1741 17.61 13.1438 17.6782 13.1135 17.7463C13.14 17.7653 13.1968 17.7956 13.2233 17.8107C13.2347 17.8448 13.2498 17.8751 13.2612 17.9092C13.246 17.9395 13.2119 17.9964 13.1968 18.0229C13.2271 18.0646 13.2574 18.11 13.2877 18.1555C13.2687 18.2237 13.2536 18.2919 13.2498 18.3638C13.1779 18.5002 13.068 18.6252 12.9128 18.6631C12.7196 18.6972 12.4811 18.6366 12.3864 18.451C12.2273 18.0987 12.3031 17.7047 12.3031 17.3296C12.3523 16.1969 12.3409 15.0604 12.3599 13.9277C12.1137 14.0565 11.9054 14.2421 11.6858 14.4126C11.0155 14.924 10.3793 15.4696 9.72411 15.9999C9.55748 16.1249 9.4363 16.2916 9.28103 16.428C8.99322 16.6553 8.76979 16.947 8.51227 17.2046C8.20931 17.4963 7.94801 17.8221 7.63369 18.1024C7.43297 18.3525 6.94445 18.2426 6.89143 17.9168C6.85735 17.807 6.87628 17.6895 6.94824 17.5986C7.20954 17.2425 7.55416 16.9622 7.87227 16.6553C8.23582 16.303 8.63346 15.9848 9.01973 15.659C9.47038 15.2726 9.9324 14.9051 10.3906 14.5338C10.7352 14.2838 11.0799 14.0338 11.4245 13.7837C11.7312 13.5527 12.0304 13.314 12.3485 13.1018C12.3561 12.9541 12.3523 12.8026 12.3485 12.6548C12.0683 12.8708 11.7199 12.992 11.3677 12.9693C11.1745 12.9427 10.9814 12.8101 10.9322 12.6131C10.8489 12.3252 10.9094 12.0184 10.8829 11.7229C10.9208 11.2834 10.936 10.8288 11.1215 10.4235C11.2806 10.1053 11.5002 9.79084 11.8373 9.65067C11.9547 9.609 12.0986 9.55596 12.216 9.63931C12.2955 9.81357 12.197 10.0219 12.0721 10.1507C11.9054 10.3212 11.8183 10.5447 11.7388 10.7644C11.6896 10.9122 11.6441 11.0637 11.682 11.219C11.6517 11.4615 11.6063 11.7039 11.6366 11.9464C11.6555 12.0487 11.7009 12.1699 11.8183 12.1926C12.0683 12.2002 12.2993 11.9919 12.3371 11.7456C12.4659 11.0107 12.4886 10.2644 12.5644 9.52187C12.5985 9.20365 13.1211 9.05211 13.2801 9.35139C13.3218 9.79084 13.2271 10.2303 13.2082 10.6697C13.1816 11.094 13.1173 11.5145 13.1248 11.9388C13.1211 12.1623 13.0983 12.3821 13.1021 12.6056C13.7346 12.2078 14.3518 11.7911 15.0146 11.4463C15.7 11.0334 16.4158 10.6622 17.105 10.2492C17.0179 10.1773 16.9118 10.1015 16.8967 9.98026C16.8664 9.76811 16.9005 9.55218 16.9043 9.33624C16.8967 8.96119 16.9724 8.58236 16.9346 8.20732C16.9118 8.09367 16.7869 8.08988 16.696 8.09745C16.4726 8.16564 16.3589 8.38916 16.2075 8.54448C16.1658 8.68843 16.1393 8.83239 16.0976 8.97635C16.0598 9.04833 16.0787 9.12031 16.0976 9.19228C16.0711 9.22638 16.0446 9.26047 16.0181 9.29457C16.0408 9.3476 16.0636 9.40064 16.0863 9.45368C16.0673 9.46883 16.0333 9.49914 16.0143 9.51429C16.0068 9.63552 15.9992 9.75675 16.0143 9.87418C16.0181 9.9348 16.0219 9.99162 16.0295 10.0522C16.0219 10.1318 16.0181 10.2113 16.0181 10.2909C15.9537 10.4083 15.9272 10.5599 15.7947 10.6243C15.6583 10.7038 15.4955 10.7985 15.3365 10.7379C15.2001 10.6849 15.2115 10.5106 15.2153 10.3894C15.2531 9.76432 15.2683 9.13925 15.3062 8.51417C15.3175 8.29066 15.4311 8.05957 15.6394 7.9535C15.8401 7.855 16.0749 7.86258 16.2908 7.89288C16.5256 7.83227 16.6316 7.58224 16.8247 7.45344C17.0103 7.32463 17.264 7.21856 17.4837 7.32463C17.6011 7.37388 17.6314 7.50269 17.6692 7.61255C17.6768 7.67316 17.6882 7.73377 17.6958 7.7906C17.6579 7.88152 17.6617 7.97244 17.6882 8.06336C17.6882 8.13534 17.692 8.20353 17.692 8.27551L17.6655 8.29066C17.62 8.6657 17.6882 9.04075 17.6617 9.41579C17.6844 9.55975 17.7185 9.74917 17.8737 9.80599C18.1919 9.73023 18.4569 9.52944 18.7523 9.39685C18.9227 9.3173 19.1159 9.34003 19.2939 9.37791C19.3999 9.47262 19.4454 9.61658 19.4491 9.74538Z" fill="#FF0606"/>
<path d="M29.7497 11.4504C29.7535 11.2345 29.7611 10.9958 29.6134 10.8216C29.3597 10.5185 28.8219 10.5488 28.6023 10.8784C28.3902 10.5299 27.8449 10.5337 27.6101 10.8481C27.6063 10.7685 27.5987 10.6473 27.4851 10.6625C27.3791 10.6738 27.1784 10.6056 27.167 10.7648C27.1632 11.2686 27.1594 11.7687 27.1708 12.2725C27.1784 12.3786 27.3147 12.3521 27.3867 12.3559C27.4624 12.3483 27.6025 12.3824 27.6177 12.2725C27.6442 11.9316 27.5987 11.5868 27.6404 11.2459C27.701 10.9807 28.1403 10.9466 28.2198 11.2156C28.2728 11.5755 28.2084 11.9467 28.2501 12.3104C28.3183 12.3634 28.4091 12.3445 28.4887 12.3521C28.5568 12.3445 28.6553 12.3672 28.6856 12.2877C28.7121 11.9619 28.678 11.6361 28.697 11.3103C28.7007 11.1246 28.8977 10.9883 29.0757 11.0337C29.1893 11.0489 29.2802 11.1512 29.2915 11.2648C29.3142 11.5982 29.2802 11.9316 29.3067 12.2649C29.318 12.3748 29.4544 12.3445 29.5301 12.3521C29.6021 12.3445 29.7346 12.371 29.7422 12.2649C29.7573 11.996 29.7422 11.7232 29.7497 11.4504ZM31.3517 10.7723C31.0373 10.545 30.5602 10.5564 30.2761 10.8216C29.852 11.1966 29.8974 11.9846 30.3935 12.2763C30.7988 12.5339 31.4653 12.4013 31.6167 11.905C31.5372 11.799 31.3857 11.8028 31.2683 11.7649C31.1775 11.8861 31.0638 12.0111 30.901 12.0073C30.6662 12.0338 30.4617 11.852 30.4276 11.6247C30.7836 11.6209 31.1396 11.6247 31.4918 11.6247C31.5562 11.6209 31.6546 11.6361 31.6546 11.5414C31.6698 11.261 31.5827 10.9466 31.3517 10.7723ZM30.4352 11.3179C30.4769 11.1057 30.6814 10.9428 30.901 10.9921C31.0752 11.0072 31.185 11.1587 31.2153 11.3216C30.954 11.3179 30.6965 11.3179 30.4352 11.3179ZM33.6049 9.91996C33.4989 9.82146 33.302 9.85556 33.1694 9.89723C33.1505 10.2003 33.1581 10.5034 33.1656 10.8064C32.874 10.5147 32.3552 10.5791 32.0939 10.8784C31.8099 11.2004 31.7947 11.727 32.0447 12.0717C32.2833 12.4165 32.8702 12.5263 33.1581 12.1854C33.1732 12.2384 33.1581 12.3142 33.2149 12.3445C33.3474 12.3634 33.4837 12.3521 33.6163 12.3331C33.5973 11.53 33.6352 10.7231 33.6049 9.91996ZM32.7188 11.9846C32.2643 11.9581 32.1999 11.2194 32.6014 11.064C32.7339 11.011 32.893 11.0299 33.0066 11.1171C33.3209 11.3633 33.1656 12.0339 32.7188 11.9846ZM34.4532 10.7231C34.3585 10.6094 34.173 10.6738 34.0442 10.6738C34.0366 10.689 34.0177 10.7155 34.0101 10.7307C33.995 11.1966 34.0101 11.6664 34.0026 12.1361C34.0101 12.2043 33.9798 12.3028 34.0556 12.3445C34.1692 12.3634 34.2866 12.3634 34.4002 12.3445C34.4911 12.318 34.4532 12.2043 34.4646 12.1361C34.457 11.6664 34.4721 11.1928 34.4532 10.7231ZM34.0934 9.85935C33.9192 9.94648 33.8927 10.2192 34.0594 10.3329C34.2222 10.4693 34.5062 10.3443 34.5138 10.1321C34.5403 9.91617 34.279 9.7457 34.0934 9.85935ZM36.4717 10.7117C36.3505 10.617 36.1801 10.6814 36.0362 10.6776C36.0362 10.7117 36.0324 10.7799 36.0286 10.814C35.7787 10.5526 35.3318 10.5753 35.0629 10.7913C34.6842 11.0906 34.6388 11.7005 34.9152 12.0831C35.1614 12.4354 35.7446 12.5301 36.0438 12.1892C36.0438 12.2271 36.04 12.3028 36.0362 12.3407C36.1801 12.3596 36.3316 12.3748 36.4755 12.3445C36.4793 11.7952 36.4906 11.2497 36.4717 10.7117ZM35.5893 11.9846C35.1121 11.9657 35.0591 11.1625 35.5098 11.0489C35.6348 11.0148 35.7749 11.0375 35.8771 11.1209C36.1801 11.3709 36.0324 12.0263 35.5893 11.9846ZM36.4717 10.7117C36.3505 10.617 36.1801 10.6814 36.0362 10.6776C36.0362 10.7117 36.0324 10.7799 36.0286 10.814C35.7787 10.5526 35.3318 10.5753 35.0629 10.7913C34.6842 11.0906 34.6388 11.7005 34.9152 12.0831C35.1614 12.4354 35.7446 12.5301 36.0438 12.1892C36.0438 12.2271 36.04 12.3028 36.0362 12.3407C36.1801 12.3596 36.3316 12.3748 36.4755 12.3445C36.4793 11.7952 36.4906 11.2497 36.4717 10.7117ZM35.5893 11.9846C35.1121 11.9657 35.0591 11.1625 35.5098 11.0489C35.6348 11.0148 35.7749 11.0375 35.8771 11.1209C36.1801 11.3709 36.0324 12.0263 35.5893 11.9846ZM34.0934 9.85935C33.9192 9.94648 33.8927 10.2192 34.0594 10.3329C34.2222 10.4693 34.5062 10.3443 34.5138 10.1321C34.5403 9.91617 34.279 9.7457 34.0934 9.85935ZM34.4532 10.7231C34.3585 10.6094 34.173 10.6738 34.0442 10.6738C34.0366 10.689 34.0177 10.7155 34.0101 10.7307C33.995 11.1966 34.0101 11.6664 34.0026 12.1361C34.0101 12.2043 33.9798 12.3028 34.0556 12.3445C34.1692 12.3634 34.2866 12.3634 34.4002 12.3445C34.4911 12.318 34.4532 12.2043 34.4646 12.1361C34.457 11.6664 34.4721 11.1928 34.4532 10.7231ZM33.6049 9.91996C33.4989 9.82146 33.302 9.85556 33.1694 9.89723C33.1505 10.2003 33.1581 10.5034 33.1656 10.8064C32.874 10.5147 32.3552 10.5791 32.0939 10.8784C31.8099 11.2004 31.7947 11.727 32.0447 12.0717C32.2833 12.4165 32.8702 12.5263 33.1581 12.1854C33.1732 12.2384 33.1581 12.3142 33.2149 12.3445C33.3474 12.3634 33.4837 12.3521 33.6163 12.3331C33.5973 11.53 33.6352 10.7231 33.6049 9.91996ZM32.7188 11.9846C32.2643 11.9581 32.1999 11.2194 32.6014 11.064C32.7339 11.011 32.893 11.0299 33.0066 11.1171C33.3209 11.3633 33.1656 12.0339 32.7188 11.9846ZM31.3517 10.7723C31.0373 10.545 30.5602 10.5564 30.2761 10.8216C29.852 11.1966 29.8974 11.9846 30.3935 12.2763C30.7988 12.5339 31.4653 12.4013 31.6167 11.905C31.5372 11.799 31.3857 11.8028 31.2683 11.7649C31.1775 11.8861 31.0638 12.0111 30.901 12.0073C30.6662 12.0338 30.4617 11.852 30.4276 11.6247C30.7836 11.6209 31.1396 11.6247 31.4918 11.6247C31.5562 11.6209 31.6546 11.6361 31.6546 11.5414C31.6698 11.261 31.5827 10.9466 31.3517 10.7723ZM30.4352 11.3179C30.4769 11.1057 30.6814 10.9428 30.901 10.9921C31.0752 11.0072 31.185 11.1587 31.2153 11.3216C30.954 11.3179 30.6965 11.3179 30.4352 11.3179ZM29.7497 11.4504C29.7535 11.2345 29.7611 10.9958 29.6134 10.8216C29.3597 10.5185 28.8219 10.5488 28.6023 10.8784C28.3902 10.5299 27.8449 10.5337 27.6101 10.8481C27.6063 10.7685 27.5987 10.6473 27.4851 10.6625C27.3791 10.6738 27.1784 10.6056 27.167 10.7648C27.1632 11.2686 27.1594 11.7687 27.1708 12.2725C27.1784 12.3786 27.3147 12.3521 27.3867 12.3559C27.4624 12.3483 27.6025 12.3824 27.6177 12.2725C27.6442 11.9316 27.5987 11.5868 27.6404 11.2459C27.701 10.9807 28.1403 10.9466 28.2198 11.2156C28.2728 11.5755 28.2084 11.9467 28.2501 12.3104C28.3183 12.3634 28.4091 12.3445 28.4887 12.3521C28.5568 12.3445 28.6553 12.3672 28.6856 12.2877C28.7121 11.9619 28.678 11.6361 28.697 11.3103C28.7007 11.1246 28.8977 10.9883 29.0757 11.0337C29.1893 11.0489 29.2802 11.1512 29.2915 11.2648C29.3142 11.5982 29.2802 11.9316 29.3067 12.2649C29.318 12.3748 29.4544 12.3445 29.5301 12.3521C29.6021 12.3445 29.7346 12.371 29.7422 12.2649C29.7573 11.996 29.7422 11.7232 29.7497 11.4504ZM29.7497 11.4504C29.7535 11.2345 29.7611 10.9958 29.6134 10.8216C29.3597 10.5185 28.8219 10.5488 28.6023 10.8784C28.3902 10.5299 27.8449 10.5337 27.6101 10.8481C27.6063 10.7685 27.5987 10.6473 27.4851 10.6625C27.3791 10.6738 27.1784 10.6056 27.167 10.7648C27.1632 11.2686 27.1594 11.7687 27.1708 12.2725C27.1784 12.3786 27.3147 12.3521 27.3867 12.3559C27.4624 12.3483 27.6025 12.3824 27.6177 12.2725C27.6442 11.9316 27.5987 11.5868 27.6404 11.2459C27.701 10.9807 28.1403 10.9466 28.2198 11.2156C28.2728 11.5755 28.2084 11.9467 28.2501 12.3104C28.3183 12.3634 28.4091 12.3445 28.4887 12.3521C28.5568 12.3445 28.6553 12.3672 28.6856 12.2877C28.7121 11.9619 28.678 11.6361 28.697 11.3103C28.7007 11.1246 28.8977 10.9883 29.0757 11.0337C29.1893 11.0489 29.2802 11.1512 29.2915 11.2648C29.3142 11.5982 29.2802 11.9316 29.3067 12.2649C29.318 12.3748 29.4544 12.3445 29.5301 12.3521C29.6021 12.3445 29.7346 12.371 29.7422 12.2649C29.7573 11.996 29.7422 11.7232 29.7497 11.4504ZM31.3517 10.7723C31.0373 10.545 30.5602 10.5564 30.2761 10.8216C29.852 11.1966 29.8974 11.9846 30.3935 12.2763C30.7988 12.5339 31.4653 12.4013 31.6167 11.905C31.5372 11.799 31.3857 11.8028 31.2683 11.7649C31.1775 11.8861 31.0638 12.0111 30.901 12.0073C30.6662 12.0338 30.4617 11.852 30.4276 11.6247C30.7836 11.6209 31.1396 11.6247 31.4918 11.6247C31.5562 11.6209 31.6546 11.6361 31.6546 11.5414C31.6698 11.261 31.5827 10.9466 31.3517 10.7723ZM30.4352 11.3179C30.4769 11.1057 30.6814 10.9428 30.901 10.9921C31.0752 11.0072 31.185 11.1587 31.2153 11.3216C30.954 11.3179 30.6965 11.3179 30.4352 11.3179ZM33.6049 9.91996C33.4989 9.82146 33.302 9.85556 33.1694 9.89723C33.1505 10.2003 33.1581 10.5034 33.1656 10.8064C32.874 10.5147 32.3552 10.5791 32.0939 10.8784C31.8099 11.2004 31.7947 11.727 32.0447 12.0717C32.2833 12.4165 32.8702 12.5263 33.1581 12.1854C33.1732 12.2384 33.1581 12.3142 33.2149 12.3445C33.3474 12.3634 33.4837 12.3521 33.6163 12.3331C33.5973 11.53 33.6352 10.7231 33.6049 9.91996ZM32.7188 11.9846C32.2643 11.9581 32.1999 11.2194 32.6014 11.064C32.7339 11.011 32.893 11.0299 33.0066 11.1171C33.3209 11.3633 33.1656 12.0339 32.7188 11.9846ZM34.4532 10.7231C34.3585 10.6094 34.173 10.6738 34.0442 10.6738C34.0366 10.689 34.0177 10.7155 34.0101 10.7307C33.995 11.1966 34.0101 11.6664 34.0026 12.1361C34.0101 12.2043 33.9798 12.3028 34.0556 12.3445C34.1692 12.3634 34.2866 12.3634 34.4002 12.3445C34.4911 12.318 34.4532 12.2043 34.4646 12.1361C34.457 11.6664 34.4721 11.1928 34.4532 10.7231ZM34.0934 9.85935C33.9192 9.94648 33.8927 10.2192 34.0594 10.3329C34.2222 10.4693 34.5062 10.3443 34.5138 10.1321C34.5403 9.91617 34.279 9.7457 34.0934 9.85935ZM36.4717 10.7117C36.3505 10.617 36.1801 10.6814 36.0362 10.6776C36.0362 10.7117 36.0324 10.7799 36.0286 10.814C35.7787 10.5526 35.3318 10.5753 35.0629 10.7913C34.6842 11.0906 34.6388 11.7005 34.9152 12.0831C35.1614 12.4354 35.7446 12.5301 36.0438 12.1892C36.0438 12.2271 36.04 12.3028 36.0362 12.3407C36.1801 12.3596 36.3316 12.3748 36.4755 12.3445C36.4793 11.7952 36.4906 11.2497 36.4717 10.7117ZM35.5893 11.9846C35.1121 11.9657 35.0591 11.1625 35.5098 11.0489C35.6348 11.0148 35.7749 11.0375 35.8771 11.1209C36.1801 11.3709 36.0324 12.0263 35.5893 11.9846ZM36.4717 10.7117C36.3505 10.617 36.1801 10.6814 36.0362 10.6776C36.0362 10.7117 36.0324 10.7799 36.0286 10.814C35.7787 10.5526 35.3318 10.5753 35.0629 10.7913C34.6842 11.0906 34.6388 11.7005 34.9152 12.0831C35.1614 12.4354 35.7446 12.5301 36.0438 12.1892C36.0438 12.2271 36.04 12.3028 36.0362 12.3407C36.1801 12.3596 36.3316 12.3748 36.4755 12.3445C36.4793 11.7952 36.4906 11.2497 36.4717 10.7117ZM35.5893 11.9846C35.1121 11.9657 35.0591 11.1625 35.5098 11.0489C35.6348 11.0148 35.7749 11.0375 35.8771 11.1209C36.1801 11.3709 36.0324 12.0263 35.5893 11.9846ZM34.0934 9.85935C33.9192 9.94648 33.8927 10.2192 34.0594 10.3329C34.2222 10.4693 34.5062 10.3443 34.5138 10.1321C34.5403 9.91617 34.279 9.7457 34.0934 9.85935ZM34.4532 10.7231C34.3585 10.6094 34.173 10.6738 34.0442 10.6738C34.0366 10.689 34.0177 10.7155 34.0101 10.7307C33.995 11.1966 34.0101 11.6664 34.0026 12.1361C34.0101 12.2043 33.9798 12.3028 34.0556 12.3445C34.1692 12.3634 34.2866 12.3634 34.4002 12.3445C34.4911 12.318 34.4532 12.2043 34.4646 12.1361C34.457 11.6664 34.4721 11.1928 34.4532 10.7231ZM33.6049 9.91996C33.4989 9.82146 33.302 9.85556 33.1694 9.89723C33.1505 10.2003 33.1581 10.5034 33.1656 10.8064C32.874 10.5147 32.3552 10.5791 32.0939 10.8784C31.8099 11.2004 31.7947 11.727 32.0447 12.0717C32.2833 12.4165 32.8702 12.5263 33.1581 12.1854C33.1732 12.2384 33.1581 12.3142 33.2149 12.3445C33.3474 12.3634 33.4837 12.3521 33.6163 12.3331C33.5973 11.53 33.6352 10.7231 33.6049 9.91996ZM32.7188 11.9846C32.2643 11.9581 32.1999 11.2194 32.6014 11.064C32.7339 11.011 32.893 11.0299 33.0066 11.1171C33.3209 11.3633 33.1656 12.0339 32.7188 11.9846ZM31.3517 10.7723C31.0373 10.545 30.5602 10.5564 30.2761 10.8216C29.852 11.1966 29.8974 11.9846 30.3935 12.2763C30.7988 12.5339 31.4653 12.4013 31.6167 11.905C31.5372 11.799 31.3857 11.8028 31.2683 11.7649C31.1775 11.8861 31.0638 12.0111 30.901 12.0073C30.6662 12.0338 30.4617 11.852 30.4276 11.6247C30.7836 11.6209 31.1396 11.6247 31.4918 11.6247C31.5562 11.6209 31.6546 11.6361 31.6546 11.5414C31.6698 11.261 31.5827 10.9466 31.3517 10.7723ZM30.4352 11.3179C30.4769 11.1057 30.6814 10.9428 30.901 10.9921C31.0752 11.0072 31.185 11.1587 31.2153 11.3216C30.954 11.3179 30.6965 11.3179 30.4352 11.3179ZM29.6134 10.8216C29.3597 10.5185 28.8219 10.5488 28.6023 10.8784C28.3902 10.5299 27.8449 10.5337 27.6101 10.8481C27.6063 10.7685 27.5987 10.6473 27.4851 10.6625C27.3791 10.6738 27.1784 10.6056 27.167 10.7648C27.1632 11.2686 27.1594 11.7687 27.1708 12.2725C27.1784 12.3786 27.3147 12.3521 27.3867 12.3559C27.4624 12.3483 27.6025 12.3824 27.6177 12.2725C27.6442 11.9316 27.5987 11.5868 27.6404 11.2459C27.701 10.9807 28.1403 10.9466 28.2198 11.2156C28.2728 11.5755 28.2084 11.9467 28.2501 12.3104C28.3183 12.3634 28.4091 12.3445 28.4887 12.3521C28.5568 12.3445 28.6553 12.3672 28.6856 12.2877C28.7121 11.9619 28.678 11.6361 28.697 11.3103C28.7007 11.1246 28.8977 10.9883 29.0757 11.0337C29.1893 11.0489 29.2802 11.1512 29.2915 11.2648C29.3142 11.5982 29.2802 11.9316 29.3067 12.2649C29.318 12.3748 29.4544 12.3445 29.5301 12.3521C29.6021 12.3445 29.7346 12.371 29.7422 12.2649C29.7573 11.9922 29.7422 11.7194 29.746 11.4467C29.7535 11.2345 29.7573 10.9958 29.6134 10.8216ZM38.1986 10.1321C38.0849 9.257 37.8615 8.39326 37.4828 7.59771C37.1874 6.97642 36.7898 6.39681 36.2785 5.93084C35.7181 5.41563 35.0175 5.05952 34.2752 4.89663C33.5216 4.72994 32.7339 4.76025 31.9841 4.92693C31.0411 5.13908 30.155 5.54443 29.3294 6.04449C28.038 6.83625 26.8906 7.85532 25.9211 9.02212C25.4136 9.65478 24.9137 10.2988 24.4176 10.9466C22.9748 8.9312 21.3994 7.00294 19.6119 5.28304C17.9835 3.72224 16.1733 2.32435 14.1397 1.33559C12.5113 0.547617 10.7163 0.0399799 8.89849 0.0892283C7.39884 0.119535 5.88782 0.555194 4.66083 1.4303C3.22177 2.4683 2.17656 3.98364 1.50247 5.61262C0.703413 7.55604 0.389091 9.67372 0.4156 11.7687C0.44211 13.6363 0.752644 15.5191 1.44567 17.258C2.05537 18.7922 2.98698 20.2204 4.26699 21.2774C5.47504 22.2775 7.02393 22.8041 8.5766 22.8988C10.2126 22.9973 11.8486 22.6222 13.3558 22.001C15.0145 21.3153 16.5369 20.3303 17.9305 19.2052C20.4413 17.167 22.5431 14.6781 24.4214 12.0604C24.8569 12.6248 25.2924 13.1893 25.7355 13.75C26.2543 14.4091 26.83 15.0191 27.4586 15.5722C28.4849 16.4776 29.6437 17.258 30.9237 17.758C31.8667 18.1217 32.9005 18.3225 33.9117 18.1785C34.8243 18.0573 35.6991 17.6444 36.3619 17.0004C37.2821 16.1139 37.8009 14.8903 38.066 13.659C38.3084 12.5036 38.3463 11.3065 38.1986 10.1321ZM17.3852 18.796C16.037 19.8719 14.5639 20.8076 12.9582 21.4479C11.3373 22.0957 9.55365 22.4328 7.81541 22.1487C6.87245 21.9972 5.95599 21.6524 5.16072 21.1183C4.0587 20.3644 3.2142 19.2885 2.59313 18.1179C1.86602 16.7428 1.43052 15.2198 1.22602 13.6818C0.953355 11.5906 1.06318 9.43884 1.61608 7.40072C2.10082 5.63535 2.94153 3.91924 4.27077 2.6312C5.24025 1.66896 6.53161 1.05525 7.87979 0.850684C9.62181 0.574135 11.4093 0.92645 13.0263 1.58562C15.1205 2.44178 16.9838 3.78286 18.65 5.30198C20.6723 7.1469 22.4105 9.28352 24.0011 11.5073C22.0924 14.1818 19.9566 16.7314 17.3852 18.796ZM37.6002 12.0869C37.5434 13.0112 37.373 13.9356 37.0208 14.7955C36.7368 15.4888 36.3278 16.1404 35.7635 16.6367C35.1955 17.1367 34.4684 17.4512 33.7147 17.5307C32.8286 17.6368 31.9311 17.436 31.1055 17.1102C29.8444 16.6026 28.7159 15.8108 27.7161 14.9016C27.1519 14.3864 26.633 13.8257 26.1672 13.2234C25.7166 12.6551 25.2773 12.0793 24.8304 11.5035C25.3644 10.814 25.8946 10.1245 26.4399 9.44263C27.3601 8.34022 28.4508 7.37799 29.674 6.62411C30.5147 6.11268 31.4274 5.69597 32.4007 5.5217C33.2111 5.37396 34.0745 5.43457 34.8319 5.77173C35.4454 6.0407 35.9718 6.48773 36.3656 7.02567C36.858 7.68863 37.1685 8.46903 37.3616 9.26837C37.5813 10.1927 37.6532 11.1436 37.6002 12.0869ZM36.0362 10.6738C36.0362 10.7079 36.0324 10.7761 36.0286 10.8102C35.7787 10.5488 35.3318 10.5716 35.0629 10.7875C34.6842 11.0868 34.6388 11.6967 34.9152 12.0793C35.1614 12.4316 35.7446 12.5263 36.0438 12.1854C36.0438 12.2233 36.04 12.299 36.0362 12.3369C36.1801 12.3559 36.3316 12.371 36.4755 12.3407C36.4793 11.799 36.4906 11.2535 36.4717 10.7117C36.3505 10.617 36.1763 10.6776 36.0362 10.6738ZM35.5893 11.9846C35.1121 11.9657 35.0591 11.1625 35.5098 11.0489C35.6348 11.0148 35.7749 11.0375 35.8771 11.1209C36.1801 11.3709 36.0324 12.0263 35.5893 11.9846ZM34.0934 9.85935C33.9192 9.94648 33.8927 10.2192 34.0594 10.3329C34.2222 10.4693 34.5062 10.3443 34.5138 10.1321C34.5403 9.91617 34.279 9.7457 34.0934 9.85935ZM34.4532 10.7231C34.3585 10.6094 34.173 10.6738 34.0442 10.6738C34.0366 10.689 34.0177 10.7155 34.0101 10.7307C33.995 11.1966 34.0101 11.6664 34.0026 12.1361C34.0101 12.2043 33.9798 12.3028 34.0556 12.3445C34.1692 12.3634 34.2866 12.3634 34.4002 12.3445C34.4911 12.318 34.4532 12.2043 34.4646 12.1361C34.457 11.6664 34.4721 11.1928 34.4532 10.7231ZM33.6049 9.91996C33.4989 9.82146 33.302 9.85556 33.1694 9.89723C33.1505 10.2003 33.1581 10.5034 33.1656 10.8064C32.874 10.5147 32.3552 10.5791 32.0939 10.8784C31.8099 11.2004 31.7947 11.727 32.0447 12.0717C32.2833 12.4165 32.8702 12.5263 33.1581 12.1854C33.1732 12.2384 33.1581 12.3142 33.2149 12.3445C33.3474 12.3634 33.4837 12.3521 33.6163 12.3331C33.5973 11.53 33.6352 10.7231 33.6049 9.91996ZM32.7188 11.9846C32.2643 11.9581 32.1999 11.2194 32.6014 11.064C32.7339 11.011 32.893 11.0299 33.0066 11.1171C33.3209 11.3633 33.1656 12.0339 32.7188 11.9846ZM31.3517 10.7723C31.0373 10.545 30.5602 10.5564 30.2761 10.8216C29.852 11.1966 29.8974 11.9846 30.3935 12.2763C30.7988 12.5339 31.4653 12.4013 31.6167 11.905C31.5372 11.799 31.3857 11.8028 31.2683 11.7649C31.1775 11.8861 31.0638 12.0111 30.901 12.0073C30.6662 12.0338 30.4617 11.852 30.4276 11.6247C30.7836 11.6209 31.1396 11.6247 31.4918 11.6247C31.5562 11.6209 31.6546 11.6361 31.6546 11.5414C31.6698 11.261 31.5827 10.9466 31.3517 10.7723ZM30.4352 11.3179C30.4769 11.1057 30.6814 10.9428 30.901 10.9921C31.0752 11.0072 31.185 11.1587 31.2153 11.3216C30.954 11.3179 30.6965 11.3179 30.4352 11.3179ZM29.6134 10.8216C29.3597 10.5185 28.8219 10.5488 28.6023 10.8784C28.3902 10.5299 27.8449 10.5337 27.6101 10.8481C27.6063 10.7685 27.5987 10.6473 27.4851 10.6625C27.3791 10.6738 27.1784 10.6056 27.167 10.7648C27.1632 11.2686 27.1594 11.7687 27.1708 12.2725C27.1784 12.3786 27.3147 12.3521 27.3867 12.3559C27.4624 12.3483 27.6025 12.3824 27.6177 12.2725C27.6442 11.9316 27.5987 11.5868 27.6404 11.2459C27.701 10.9807 28.1403 10.9466 28.2198 11.2156C28.2728 11.5755 28.2084 11.9467 28.2501 12.3104C28.3183 12.3634 28.4091 12.3445 28.4887 12.3521C28.5568 12.3445 28.6553 12.3672 28.6856 12.2877C28.7121 11.9619 28.678 11.6361 28.697 11.3103C28.7007 11.1246 28.8977 10.9883 29.0757 11.0337C29.1893 11.0489 29.2802 11.1512 29.2915 11.2648C29.3142 11.5982 29.2802 11.9316 29.3067 12.2649C29.318 12.3748 29.4544 12.3445 29.5301 12.3521C29.6021 12.3445 29.7346 12.371 29.7422 12.2649C29.7573 11.9922 29.7422 11.7194 29.746 11.4467C29.7535 11.2345 29.7573 10.9958 29.6134 10.8216ZM29.7497 11.4504C29.7535 11.2345 29.7611 10.9958 29.6134 10.8216C29.3597 10.5185 28.8219 10.5488 28.6023 10.8784C28.3902 10.5299 27.8449 10.5337 27.6101 10.8481C27.6063 10.7685 27.5987 10.6473 27.4851 10.6625C27.3791 10.6738 27.1784 10.6056 27.167 10.7648C27.1632 11.2686 27.1594 11.7687 27.1708 12.2725C27.1784 12.3786 27.3147 12.3521 27.3867 12.3559C27.4624 12.3483 27.6025 12.3824 27.6177 12.2725C27.6442 11.9316 27.5987 11.5868 27.6404 11.2459C27.701 10.9807 28.1403 10.9466 28.2198 11.2156C28.2728 11.5755 28.2084 11.9467 28.2501 12.3104C28.3183 12.3634 28.4091 12.3445 28.4887 12.3521C28.5568 12.3445 28.6553 12.3672 28.6856 12.2877C28.7121 11.9619 28.678 11.6361 28.697 11.3103C28.7007 11.1246 28.8977 10.9883 29.0757 11.0337C29.1893 11.0489 29.2802 11.1512 29.2915 11.2648C29.3142 11.5982 29.2802 11.9316 29.3067 12.2649C29.318 12.3748 29.4544 12.3445 29.5301 12.3521C29.6021 12.3445 29.7346 12.371 29.7422 12.2649C29.7573 11.996 29.7422 11.7232 29.7497 11.4504ZM31.3517 10.7723C31.0373 10.545 30.5602 10.5564 30.2761 10.8216C29.852 11.1966 29.8974 11.9846 30.3935 12.2763C30.7988 12.5339 31.4653 12.4013 31.6167 11.905C31.5372 11.799 31.3857 11.8028 31.2683 11.7649C31.1775 11.8861 31.0638 12.0111 30.901 12.0073C30.6662 12.0338 30.4617 11.852 30.4276 11.6247C30.7836 11.6209 31.1396 11.6247 31.4918 11.6247C31.5562 11.6209 31.6546 11.6361 31.6546 11.5414C31.6698 11.261 31.5827 10.9466 31.3517 10.7723ZM30.4352 11.3179C30.4769 11.1057 30.6814 10.9428 30.901 10.9921C31.0752 11.0072 31.185 11.1587 31.2153 11.3216C30.954 11.3179 30.6965 11.3179 30.4352 11.3179ZM33.6049 9.91996C33.4989 9.82146 33.302 9.85556 33.1694 9.89723C33.1505 10.2003 33.1581 10.5034 33.1656 10.8064C32.874 10.5147 32.3552 10.5791 32.0939 10.8784C31.8099 11.2004 31.7947 11.727 32.0447 12.0717C32.2833 12.4165 32.8702 12.5263 33.1581 12.1854C33.1732 12.2384 33.1581 12.3142 33.2149 12.3445C33.3474 12.3634 33.4837 12.3521 33.6163 12.3331C33.5973 11.53 33.6352 10.7231 33.6049 9.91996ZM32.7188 11.9846C32.2643 11.9581 32.1999 11.2194 32.6014 11.064C32.7339 11.011 32.893 11.0299 33.0066 11.1171C33.3209 11.3633 33.1656 12.0339 32.7188 11.9846ZM34.4532 10.7231C34.3585 10.6094 34.173 10.6738 34.0442 10.6738C34.0366 10.689 34.0177 10.7155 34.0101 10.7307C33.995 11.1966 34.0101 11.6664 34.0026 12.1361C34.0101 12.2043 33.9798 12.3028 34.0556 12.3445C34.1692 12.3634 34.2866 12.3634 34.4002 12.3445C34.4911 12.318 34.4532 12.2043 34.4646 12.1361C34.457 11.6664 34.4721 11.1928 34.4532 10.7231ZM34.0934 9.85935C33.9192 9.94648 33.8927 10.2192 34.0594 10.3329C34.2222 10.4693 34.5062 10.3443 34.5138 10.1321C34.5403 9.91617 34.279 9.7457 34.0934 9.85935ZM36.4717 10.7117C36.3505 10.617 36.1801 10.6814 36.0362 10.6776C36.0362 10.7117 36.0324 10.7799 36.0286 10.814C35.7787 10.5526 35.3318 10.5753 35.0629 10.7913C34.6842 11.0906 34.6388 11.7005 34.9152 12.0831C35.1614 12.4354 35.7446 12.5301 36.0438 12.1892C36.0438 12.2271 36.04 12.3028 36.0362 12.3407C36.1801 12.3596 36.3316 12.3748 36.4755 12.3445C36.4793 11.7952 36.4906 11.2497 36.4717 10.7117ZM35.5893 11.9846C35.1121 11.9657 35.0591 11.1625 35.5098 11.0489C35.6348 11.0148 35.7749 11.0375 35.8771 11.1209C36.1801 11.3709 36.0324 12.0263 35.5893 11.9846ZM36.4717 10.7117C36.3505 10.617 36.1801 10.6814 36.0362 10.6776C36.0362 10.7117 36.0324 10.7799 36.0286 10.814C35.7787 10.5526 35.3318 10.5753 35.0629 10.7913C34.6842 11.0906 34.6388 11.7005 34.9152 12.0831C35.1614 12.4354 35.7446 12.5301 36.0438 12.1892C36.0438 12.2271 36.04 12.3028 36.0362 12.3407C36.1801 12.3596 36.3316 12.3748 36.4755 12.3445C36.4793 11.7952 36.4906 11.2497 36.4717 10.7117ZM35.5893 11.9846C35.1121 11.9657 35.0591 11.1625 35.5098 11.0489C35.6348 11.0148 35.7749 11.0375 35.8771 11.1209C36.1801 11.3709 36.0324 12.0263 35.5893 11.9846ZM34.0934 9.85935C33.9192 9.94648 33.8927 10.2192 34.0594 10.3329C34.2222 10.4693 34.5062 10.3443 34.5138 10.1321C34.5403 9.91617 34.279 9.7457 34.0934 9.85935ZM34.4532 10.7231C34.3585 10.6094 34.173 10.6738 34.0442 10.6738C34.0366 10.689 34.0177 10.7155 34.0101 10.7307C33.995 11.1966 34.0101 11.6664 34.0026 12.1361C34.0101 12.2043 33.9798 12.3028 34.0556 12.3445C34.1692 12.3634 34.2866 12.3634 34.4002 12.3445C34.4911 12.318 34.4532 12.2043 34.4646 12.1361C34.457 11.6664 34.4721 11.1928 34.4532 10.7231ZM33.6049 9.91996C33.4989 9.82146 33.302 9.85556 33.1694 9.89723C33.1505 10.2003 33.1581 10.5034 33.1656 10.8064C32.874 10.5147 32.3552 10.5791 32.0939 10.8784C31.8099 11.2004 31.7947 11.727 32.0447 12.0717C32.2833 12.4165 32.8702 12.5263 33.1581 12.1854C33.1732 12.2384 33.1581 12.3142 33.2149 12.3445C33.3474 12.3634 33.4837 12.3521 33.6163 12.3331C33.5973 11.53 33.6352 10.7231 33.6049 9.91996ZM32.7188 11.9846C32.2643 11.9581 32.1999 11.2194 32.6014 11.064C32.7339 11.011 32.893 11.0299 33.0066 11.1171C33.3209 11.3633 33.1656 12.0339 32.7188 11.9846ZM31.3517 10.7723C31.0373 10.545 30.5602 10.5564 30.2761 10.8216C29.852 11.1966 29.8974 11.9846 30.3935 12.2763C30.7988 12.5339 31.4653 12.4013 31.6167 11.905C31.5372 11.799 31.3857 11.8028 31.2683 11.7649C31.1775 11.8861 31.0638 12.0111 30.901 12.0073C30.6662 12.0338 30.4617 11.852 30.4276 11.6247C30.7836 11.6209 31.1396 11.6247 31.4918 11.6247C31.5562 11.6209 31.6546 11.6361 31.6546 11.5414C31.6698 11.261 31.5827 10.9466 31.3517 10.7723ZM30.4352 11.3179C30.4769 11.1057 30.6814 10.9428 30.901 10.9921C31.0752 11.0072 31.185 11.1587 31.2153 11.3216C30.954 11.3179 30.6965 11.3179 30.4352 11.3179ZM29.7497 11.4504C29.7535 11.2345 29.7611 10.9958 29.6134 10.8216C29.3597 10.5185 28.8219 10.5488 28.6023 10.8784C28.3902 10.5299 27.8449 10.5337 27.6101 10.8481C27.6063 10.7685 27.5987 10.6473 27.4851 10.6625C27.3791 10.6738 27.1784 10.6056 27.167 10.7648C27.1632 11.2686 27.1594 11.7687 27.1708 12.2725C27.1784 12.3786 27.3147 12.3521 27.3867 12.3559C27.4624 12.3483 27.6025 12.3824 27.6177 12.2725C27.6442 11.9316 27.5987 11.5868 27.6404 11.2459C27.701 10.9807 28.1403 10.9466 28.2198 11.2156C28.2728 11.5755 28.2084 11.9467 28.2501 12.3104C28.3183 12.3634 28.4091 12.3445 28.4887 12.3521C28.5568 12.3445 28.6553 12.3672 28.6856 12.2877C28.7121 11.9619 28.678 11.6361 28.697 11.3103C28.7007 11.1246 28.8977 10.9883 29.0757 11.0337C29.1893 11.0489 29.2802 11.1512 29.2915 11.2648C29.3142 11.5982 29.2802 11.9316 29.3067 12.2649C29.318 12.3748 29.4544 12.3445 29.5301 12.3521C29.6021 12.3445 29.7346 12.371 29.7422 12.2649C29.7573 11.996 29.7422 11.7232 29.7497 11.4504Z" fill="#FF0606"/>
<path d="M8.47593 11.6627C8.46457 11.6741 8.44185 11.7006 8.43049 11.712C8.52516 11.9544 8.40398 12.2082 8.38883 12.4545C8.37368 12.8977 8.24114 13.3296 8.25629 13.7766C8.2525 13.9206 8.2222 14.0645 8.18433 14.2009C8.20706 14.2085 8.24871 14.2198 8.26765 14.2274C8.09344 14.3297 7.95333 14.4812 7.76398 14.557C7.63522 14.6025 7.47616 14.5191 7.47995 14.3714C7.45723 13.7463 7.55569 13.125 7.57084 12.4999C7.59356 12.1817 7.59735 11.818 7.83214 11.5718C7.95711 11.4544 8.12374 11.3331 8.30552 11.3596C8.44185 11.3937 8.43428 11.5566 8.47593 11.6627Z" fill="#FFFEFE"/>
<path d="M8.24994 10.4386C8.13255 10.4235 8 10.3591 8 10.2189C8.00379 9.93478 8.23858 9.71884 8.47716 9.60519C8.55669 9.56731 8.64379 9.58246 8.73089 9.59004C8.76497 9.70369 8.84072 9.82491 8.79148 9.94614C8.7006 10.1848 8.46201 10.3174 8.24994 10.4386Z" fill="#FFFEFE"/>
<path d="M6.9367 11.8406C6.86475 11.9921 6.92156 12.1701 6.84582 12.3179C6.81173 12.4656 6.77765 12.6134 6.77008 12.7649C6.72463 12.9468 6.69055 13.1324 6.66404 13.318C6.76629 13.4658 6.67161 13.6324 6.61102 13.7764C6.58451 13.9166 6.54286 14.0681 6.60345 14.2045C6.52771 14.3143 6.5012 14.4507 6.48226 14.5795C6.38759 15.3107 6.31185 16.0418 6.18688 16.7692C6.15658 16.9169 6.1225 17.0988 5.97481 17.1745C5.81575 17.273 5.5696 17.2238 5.50522 17.0306C5.34237 16.432 5.29693 15.8069 5.14924 15.2046C5.13409 14.9318 5.06971 14.6667 5.03941 14.3939C4.95231 13.8484 4.88793 13.2991 4.78568 12.7573C4.7516 12.4732 4.72131 12.1891 4.65314 11.9125C4.6077 11.7951 4.59633 11.6663 4.58497 11.5413C4.5471 11.5072 4.51302 11.4731 4.47515 11.4352C4.34261 11.6549 4.23657 11.886 4.17219 12.1323C4.10402 12.4126 3.96012 12.6664 3.86544 12.9392C3.75183 13.0604 3.57006 13.1286 3.411 13.0566C3.2936 12.996 3.20272 12.8558 3.25195 12.7194C3.46402 12.03 3.74047 11.3632 3.9374 10.67C4.05101 10.3404 4.15326 10.007 4.27065 9.68121C4.33124 9.49937 4.52438 9.36677 4.71752 9.40087C4.90308 9.40845 5.02805 9.5865 5.06214 9.75697C5.13788 10.1131 5.17575 10.4768 5.2477 10.8329C5.34237 11.2117 5.33101 11.6095 5.4522 11.9807C5.49007 12.0906 5.52036 12.2042 5.54309 12.3179C5.55445 12.5187 5.60368 12.7119 5.6567 12.9051C5.6264 13.049 5.63019 13.193 5.69457 13.3294C5.7135 13.5756 5.70971 13.8332 5.81575 14.0643C5.89149 13.856 5.8877 13.6287 5.92936 13.4127C6.06191 12.5717 6.19445 11.7269 6.3838 10.8973C6.59966 9.99943 6.8496 9.10917 7.08819 8.21512C7.41387 7.28698 7.75091 6.36262 8.09932 5.43827C8.25837 5.04807 8.36819 4.59726 8.72038 4.32829C9.03471 4.05932 9.59518 4.26767 9.65577 4.67681C9.73151 4.94579 9.56867 5.18824 9.42098 5.39281C9.05364 5.69209 8.79612 6.10502 8.61056 6.54068C8.50074 6.80207 8.37198 7.0521 8.30003 7.32865C8.13719 7.68097 8.01221 8.04464 7.89103 8.41211C7.8115 8.73412 7.72819 9.05613 7.61079 9.36677C7.54641 9.52967 7.56156 9.70772 7.5199 9.87441C7.17907 10.4881 7.06546 11.1738 6.9367 11.8406Z" fill="#FFFEFE"/>
<path d="M9.30689 10.8555C9.43186 10.7381 9.60227 10.6964 9.76511 10.6737C9.96582 10.6472 10.1362 10.526 10.3256 10.4616C10.602 10.3441 10.7687 10.7836 10.5983 10.9654C10.4089 11.17 10.1287 11.2912 9.99991 11.5564C9.78405 12.0754 9.86358 12.6474 9.80298 13.1929C9.78026 13.5074 9.46594 13.7385 9.16677 13.746C8.97363 13.6854 8.97742 13.443 8.98878 13.2763C9.01907 12.977 8.99635 12.6777 9.02665 12.3822C9.09103 12.0451 9.08724 11.7041 9.10617 11.3632C9.12511 11.1776 9.15919 10.9768 9.30689 10.8555Z" fill="#FFFEFE"/>
<path d="M13.817 11.3975C13.7299 11.2763 13.7791 11.121 13.7829 10.9846C13.8548 10.3292 13.8965 9.66626 13.995 9.01466C14.0442 8.73433 14.332 8.43126 14.635 8.56385C14.7562 8.88586 14.5895 9.21166 14.6198 9.54124C14.6312 9.80643 14.6198 10.0716 14.5895 10.333C14.5365 10.5489 14.563 10.7762 14.5554 10.996C14.5176 11.1892 14.3396 11.318 14.173 11.3975C14.0631 11.4581 13.9154 11.496 13.817 11.3975Z" fill="#FFFEFE"/>
<path d="M14.2353 7.62782C14.2125 7.26792 14.6291 6.9838 14.9624 7.08987C14.9889 7.15427 15.0154 7.21868 15.0419 7.28687C14.9472 7.5028 14.7995 7.71495 14.5799 7.81344C14.4436 7.84375 14.2466 7.7945 14.2353 7.62782Z" fill="#FFFEFE"/>
<path d="M19.4491 9.74538C19.362 9.88176 19.2901 10.0371 19.1538 10.1356C18.9265 10.3136 18.6387 10.3667 18.3698 10.4538C17.9003 10.6091 17.4534 10.8175 17.0217 11.0524C15.7985 11.685 14.598 12.3669 13.4543 13.1359C13.3256 13.2231 13.2082 13.3291 13.0832 13.4239C13.0605 13.8785 13.0453 14.3368 13.0415 14.7914C13.0264 15.121 13.0605 15.4582 13.0074 15.7878C13.0302 15.9204 13.0453 16.0605 12.9999 16.1931C13.0188 16.2348 13.034 16.2765 13.0529 16.3219C13.0377 16.3409 13.015 16.3788 12.9999 16.3977C13.0074 16.4507 13.015 16.5038 13.0112 16.5606C13.0226 16.803 13.14 17.0379 13.087 17.2804C13.1021 17.2955 13.1286 17.3296 13.1438 17.3448C13.1627 17.4092 13.1854 17.4774 13.2082 17.5418C13.1741 17.61 13.1438 17.6782 13.1135 17.7463C13.14 17.7653 13.1968 17.7956 13.2233 17.8107C13.2347 17.8448 13.2498 17.8751 13.2612 17.9092C13.246 17.9395 13.2119 17.9964 13.1968 18.0229C13.2271 18.0646 13.2574 18.11 13.2877 18.1555C13.2687 18.2237 13.2536 18.2919 13.2498 18.3638C13.1779 18.5002 13.068 18.6252 12.9128 18.6631C12.7196 18.6972 12.4811 18.6366 12.3864 18.451C12.2273 18.0987 12.3031 17.7047 12.3031 17.3296C12.3523 16.1969 12.3409 15.0604 12.3599 13.9277C12.1137 14.0565 11.9054 14.2421 11.6858 14.4126C11.0155 14.924 10.3793 15.4696 9.72411 15.9999C9.55748 16.1249 9.4363 16.2916 9.28103 16.428C8.99322 16.6553 8.76979 16.947 8.51227 17.2046C8.20931 17.4963 7.94801 17.8221 7.63369 18.1024C7.43297 18.3525 6.94445 18.2426 6.89143 17.9168C6.85735 17.807 6.87628 17.6895 6.94824 17.5986C7.20954 17.2425 7.55416 16.9622 7.87227 16.6553C8.23582 16.303 8.63346 15.9848 9.01973 15.659C9.47038 15.2726 9.9324 14.9051 10.3906 14.5338C10.7352 14.2838 11.0799 14.0338 11.4245 13.7837C11.7312 13.5527 12.0304 13.314 12.3485 13.1018C12.3561 12.9541 12.3523 12.8026 12.3485 12.6548C12.0683 12.8708 11.7199 12.992 11.3677 12.9693C11.1745 12.9427 10.9814 12.8101 10.9322 12.6131C10.8489 12.3252 10.9094 12.0184 10.8829 11.7229C10.9208 11.2834 10.936 10.8288 11.1215 10.4235C11.2806 10.1053 11.5002 9.79084 11.8373 9.65067C11.9547 9.609 12.0986 9.55596 12.216 9.63931C12.2955 9.81357 12.197 10.0219 12.0721 10.1507C11.9054 10.3212 11.8183 10.5447 11.7388 10.7644C11.6896 10.9122 11.6441 11.0637 11.682 11.219C11.6517 11.4615 11.6063 11.7039 11.6366 11.9464C11.6555 12.0487 11.7009 12.1699 11.8183 12.1926C12.0683 12.2002 12.2993 11.9919 12.3371 11.7456C12.4659 11.0107 12.4886 10.2644 12.5644 9.52187C12.5985 9.20365 13.1211 9.05211 13.2801 9.35139C13.3218 9.79084 13.2271 10.2303 13.2082 10.6697C13.1816 11.094 13.1173 11.5145 13.1248 11.9388C13.1211 12.1623 13.0983 12.3821 13.1021 12.6056C13.7346 12.2078 14.3518 11.7911 15.0146 11.4463C15.7 11.0334 16.4158 10.6622 17.105 10.2492C17.0179 10.1773 16.9118 10.1015 16.8967 9.98026C16.8664 9.76811 16.9005 9.55218 16.9043 9.33624C16.8967 8.96119 16.9724 8.58236 16.9346 8.20732C16.9118 8.09367 16.7869 8.08988 16.696 8.09745C16.4726 8.16564 16.3589 8.38916 16.2075 8.54448C16.1658 8.68843 16.1393 8.83239 16.0976 8.97635C16.0598 9.04833 16.0787 9.12031 16.0976 9.19228C16.0711 9.22638 16.0446 9.26047 16.0181 9.29457C16.0408 9.3476 16.0636 9.40064 16.0863 9.45368C16.0673 9.46883 16.0333 9.49914 16.0143 9.51429C16.0068 9.63552 15.9992 9.75675 16.0143 9.87418C16.0181 9.9348 16.0219 9.99162 16.0295 10.0522C16.0219 10.1318 16.0181 10.2113 16.0181 10.2909C15.9537 10.4083 15.9272 10.5599 15.7947 10.6243C15.6583 10.7038 15.4955 10.7985 15.3365 10.7379C15.2001 10.6849 15.2115 10.5106 15.2153 10.3894C15.2531 9.76432 15.2683 9.13925 15.3062 8.51417C15.3175 8.29066 15.4311 8.05957 15.6394 7.9535C15.8401 7.855 16.0749 7.86258 16.2908 7.89288C16.5256 7.83227 16.6316 7.58224 16.8247 7.45344C17.0103 7.32463 17.264 7.21856 17.4837 7.32463C17.6011 7.37388 17.6314 7.50269 17.6692 7.61255C17.6768 7.67316 17.6882 7.73377 17.6958 7.7906C17.6579 7.88152 17.6617 7.97244 17.6882 8.06336C17.6882 8.13534 17.692 8.20353 17.692 8.27551L17.6655 8.29066C17.62 8.6657 17.6882 9.04075 17.6617 9.41579C17.6844 9.55975 17.7185 9.74917 17.8737 9.80599C18.1919 9.73023 18.4569 9.52944 18.7523 9.39685C18.9227 9.3173 19.1159 9.34003 19.2939 9.37791C19.3999 9.47262 19.4454 9.61658 19.4491 9.74538Z" fill="#FFFEFE"/>
<path d="M9.40962 5.40039C9.04228 5.69967 8.78476 6.11259 8.5992 6.54825C8.48938 6.80965 8.36062 7.05968 8.28867 7.33623C8.12582 7.68854 8.00085 8.05222 7.87967 8.41969C7.80014 8.7417 7.71683 9.06371 7.59943 9.37435C7.53505 9.53725 7.5502 9.7153 7.50854 9.88199C7.17907 10.4843 7.06546 11.1738 6.9367 11.8406C6.86475 11.9921 6.92156 12.1701 6.84582 12.3179C6.81173 12.4656 6.77765 12.6134 6.77008 12.7649C6.72463 12.9468 6.69055 13.1324 6.66404 13.318C6.76629 13.4658 6.67161 13.6324 6.61102 13.7764C6.58451 13.9166 6.54286 14.0681 6.60345 14.2045C6.52771 14.3143 6.5012 14.4507 6.48226 14.5795C6.38759 15.3107 6.31185 16.0418 6.18688 16.7692C6.15658 16.9169 6.1225 17.0988 5.9748 17.1745C5.81575 17.273 5.56959 17.2238 5.50522 17.0306C5.34237 16.432 5.29693 15.8069 5.14924 15.2046C5.13409 14.9318 5.06971 14.6667 5.03941 14.3939C4.95231 13.8484 4.88793 13.2991 4.78568 12.7573C4.7516 12.4732 4.72131 12.1891 4.65314 11.9125C4.6077 11.7951 4.59633 11.6663 4.58497 11.5413C4.5471 11.5072 4.51302 11.4731 4.47515 11.4352C4.34261 11.6549 4.23657 11.886 4.17219 12.1323C4.10402 12.4126 3.96012 12.6664 3.86544 12.9392C3.75183 13.0604 3.57006 13.1286 3.411 13.0566C3.2936 12.996 3.20272 12.8558 3.25195 12.7194C3.46402 12.03 3.74047 11.3632 3.9374 10.67C4.05101 10.3404 4.15325 10.007 4.27065 9.68121C4.33124 9.49937 4.52438 9.36677 4.71752 9.40087C4.90308 9.40845 5.02805 9.5865 5.06214 9.75697C5.13788 10.1131 5.17575 10.4768 5.2477 10.8329C5.34237 11.2117 5.33101 11.6095 5.4522 11.9807C5.49007 12.0906 5.52036 12.2042 5.54309 12.3179C5.55445 12.5187 5.60368 12.7119 5.6567 12.9051C5.6264 13.049 5.63019 13.193 5.69457 13.3294C5.7135 13.5756 5.70971 13.8332 5.81575 14.0643C5.89149 13.856 5.8877 13.6287 5.92936 13.4127C6.06191 12.5717 6.19445 11.7269 6.3838 10.8973C6.59966 9.99943 6.8496 9.10917 7.08818 8.21512C7.41387 7.28698 7.75091 6.36262 8.09931 5.43827C8.25837 5.04807 8.36819 4.59726 8.72038 4.32829C9.03471 4.05932 9.59518 4.26767 9.65577 4.67681C9.72394 4.94957 9.55731 5.19582 9.40962 5.40039Z" fill="#FF0606"/>
<path d="M29.7494 11.4508C29.7456 11.7235 29.757 11.9963 29.7456 12.269C29.738 12.3713 29.6055 12.3486 29.5335 12.3562C29.4578 12.3486 29.3215 12.3789 29.3101 12.269C29.2836 11.9357 29.3177 11.6023 29.295 11.2689C29.2874 11.1553 29.1927 11.053 29.0791 11.0378C28.9011 10.9924 28.7042 11.1287 28.7004 11.3144C28.6815 11.6402 28.7118 11.966 28.689 12.2918C28.6587 12.3713 28.5565 12.3486 28.4921 12.3562C28.4126 12.3524 28.3217 12.3675 28.2535 12.3145C28.2081 11.9508 28.2762 11.5796 28.2232 11.2197C28.1437 10.9469 27.7044 10.981 27.6438 11.25C27.6059 11.5909 27.6476 11.9357 27.6211 12.2766C27.6059 12.3827 27.4658 12.3486 27.3901 12.36C27.3181 12.3524 27.1818 12.3789 27.1742 12.2766C27.1629 11.7766 27.1704 11.2727 27.1704 10.7689C27.1818 10.6135 27.3825 10.6779 27.4885 10.6666C27.6022 10.6514 27.6097 10.7726 27.6135 10.8522C27.8521 10.534 28.3936 10.534 28.6057 10.8825C28.8254 10.5529 29.3631 10.5226 29.6168 10.8257C29.757 10.9962 29.7532 11.2348 29.7494 11.4508Z" fill="#FFFEFE"/>
<path d="M31.3529 10.7726C31.0386 10.5453 30.5614 10.5566 30.2774 10.8218C29.8532 11.1969 29.8987 11.9848 30.3948 12.2765C30.8 12.5341 31.4665 12.4016 31.618 11.9053C31.5384 11.7992 31.387 11.803 31.2696 11.7651C31.1787 11.8863 31.0651 12.0114 30.9022 12.0076C30.6674 12.0341 30.4629 11.8522 30.4289 11.6249C30.7848 11.6212 31.1408 11.6249 31.493 11.6249C31.5574 11.6212 31.6558 11.6363 31.6558 11.5416C31.671 11.2613 31.5839 10.9468 31.3529 10.7726ZM30.4364 11.3181C30.4781 11.1059 30.6826 10.943 30.9022 10.9923C31.0764 11.0075 31.1863 11.159 31.2166 11.3219C30.9552 11.3181 30.6977 11.3181 30.4364 11.3181Z" fill="#FFFEFE"/>
<path d="M33.6038 9.91997C33.4978 9.82147 33.3008 9.85557 33.1683 9.89724C33.1493 10.2003 33.1569 10.5034 33.1645 10.8064C32.8729 10.5147 32.3541 10.5791 32.0928 10.8784C31.8087 11.2004 31.7936 11.727 32.0435 12.0717C32.2821 12.4165 32.8691 12.5263 33.1569 12.1854C33.1721 12.2384 33.1569 12.3142 33.2137 12.3445C33.3463 12.3634 33.4826 12.3521 33.6151 12.3331C33.5962 11.53 33.6341 10.7231 33.6038 9.91997ZM32.7176 11.9846C32.2632 11.9581 32.1988 11.2194 32.6002 11.064C32.7328 11.011 32.8918 11.03 33.0054 11.1171C33.3198 11.3633 33.1645 12.0339 32.7176 11.9846Z" fill="#FFFEFE"/>
<path d="M34.4659 12.1362C34.4546 12.2044 34.4924 12.3181 34.4015 12.3446C34.2879 12.3597 34.1705 12.3635 34.0569 12.3446C33.9812 12.3029 34.0115 12.2044 34.0039 12.1362C34.0115 11.6665 33.9963 11.2005 34.0115 10.7308C34.0191 10.7156 34.038 10.6853 34.0456 10.6739C34.1781 10.6739 34.3599 10.6095 34.4546 10.7232C34.4735 11.1929 34.4583 11.6665 34.4659 12.1362Z" fill="#FFFEFE"/>
<path d="M34.5154 10.1318C34.5079 10.3477 34.2276 10.4728 34.061 10.3326C33.8944 10.2189 33.9209 9.94618 34.0951 9.85905C34.2806 9.7454 34.5419 9.91587 34.5154 10.1318Z" fill="#FFFEFE"/>
<path d="M36.4719 10.7121C36.3507 10.6174 36.1803 10.6818 36.0364 10.678C36.0364 10.7121 36.0326 10.7803 36.0288 10.8144C35.7789 10.553 35.332 10.5757 35.0632 10.7917C34.6845 11.0909 34.639 11.7009 34.9155 12.0835C35.1616 12.4358 35.7448 12.5305 36.044 12.1896C36.044 12.2274 36.0402 12.3032 36.0364 12.3411C36.1803 12.36 36.3318 12.3752 36.4757 12.3449C36.4795 11.7956 36.4909 11.25 36.4719 10.7121ZM35.5895 11.985C35.1124 11.966 35.0594 11.1629 35.51 11.0493C35.635 11.0152 35.7751 11.0379 35.8774 11.1212C36.1803 11.3713 36.0326 12.0267 35.5895 11.985Z" fill="#FFFEFE"/>
<path d="M15.0458 7.28687C14.9511 7.5028 14.8034 7.71495 14.5838 7.81344C14.4475 7.84754 14.2467 7.79829 14.2392 7.62782C14.2164 7.26792 14.633 6.9838 14.9663 7.08987C14.9928 7.15427 15.0193 7.21868 15.0458 7.28687Z" fill="#FF0606"/>
<path d="M19.4491 9.74538C19.362 9.88176 19.2901 10.0371 19.1538 10.1356C18.9265 10.3136 18.6387 10.3667 18.3698 10.4538C17.9003 10.6091 17.4534 10.8175 17.0217 11.0524C15.7985 11.685 14.598 12.3669 13.4543 13.1359C13.3256 13.2231 13.2082 13.3291 13.0832 13.4239C13.0605 13.8785 13.0453 14.3368 13.0415 14.7914C13.0264 15.121 13.0605 15.4582 13.0074 15.7878C13.0302 15.9204 13.0453 16.0605 12.9999 16.1931C13.0188 16.2348 13.034 16.2765 13.0529 16.3219C13.0377 16.3409 13.015 16.3788 12.9999 16.3977C13.0074 16.4507 13.015 16.5038 13.0112 16.5606C13.0226 16.803 13.14 17.0379 13.087 17.2804C13.1021 17.2955 13.1286 17.3296 13.1438 17.3448C13.1627 17.4092 13.1854 17.4774 13.2082 17.5418C13.1741 17.61 13.1438 17.6782 13.1135 17.7463C13.14 17.7653 13.1968 17.7956 13.2233 17.8107C13.2347 17.8448 13.2498 17.8751 13.2612 17.9092C13.246 17.9395 13.2119 17.9964 13.1968 18.0229C13.2271 18.0646 13.2574 18.11 13.2877 18.1555C13.2687 18.2237 13.2536 18.2919 13.2498 18.3638C13.1779 18.5002 13.068 18.6252 12.9128 18.6631C12.7196 18.6972 12.4811 18.6366 12.3864 18.451C12.2273 18.0987 12.3031 17.7047 12.3031 17.3296C12.3523 16.1969 12.3409 15.0604 12.3599 13.9277C12.1137 14.0565 11.9054 14.2421 11.6858 14.4126C11.0155 14.924 10.3793 15.4696 9.72411 15.9999C9.55748 16.1249 9.4363 16.2916 9.28103 16.428C8.99322 16.6553 8.76979 16.947 8.51227 17.2046C8.20931 17.4963 7.94801 17.8221 7.63369 18.1024C7.43297 18.3525 6.94445 18.2426 6.89143 17.9168C6.85735 17.807 6.87628 17.6895 6.94824 17.5986C7.20954 17.2425 7.55416 16.9622 7.87227 16.6553C8.23582 16.303 8.63346 15.9848 9.01973 15.659C9.47038 15.2726 9.9324 14.9051 10.3906 14.5338C10.7352 14.2838 11.0799 14.0338 11.4245 13.7837C11.7312 13.5527 12.0304 13.314 12.3485 13.1018C12.3561 12.9541 12.3523 12.8026 12.3485 12.6548C12.0683 12.8708 11.7199 12.992 11.3677 12.9693C11.1745 12.9427 10.9814 12.8101 10.9322 12.6131C10.8489 12.3252 10.9094 12.0184 10.8829 11.7229C10.9208 11.2834 10.936 10.8288 11.1215 10.4235C11.2806 10.1053 11.5002 9.79084 11.8373 9.65067C11.9547 9.609 12.0986 9.55596 12.216 9.63931C12.2955 9.81357 12.197 10.0219 12.0721 10.1507C11.9054 10.3212 11.8183 10.5447 11.7388 10.7644C11.6896 10.9122 11.6441 11.0637 11.682 11.219C11.6517 11.4615 11.6063 11.7039 11.6366 11.9464C11.6555 12.0487 11.7009 12.1699 11.8183 12.1926C12.0683 12.2002 12.2993 11.9919 12.3371 11.7456C12.4659 11.0107 12.4886 10.2644 12.5644 9.52187C12.5985 9.20365 13.1211 9.05211 13.2801 9.35139C13.3218 9.79084 13.2271 10.2303 13.2082 10.6697C13.1816 11.094 13.1173 11.5145 13.1248 11.9388C13.1211 12.1623 13.0983 12.3821 13.1021 12.6056C13.7346 12.2078 14.3518 11.7911 15.0146 11.4463C15.7 11.0334 16.4158 10.6622 17.105 10.2492C17.0179 10.1773 16.9118 10.1015 16.8967 9.98026C16.8664 9.76811 16.9005 9.55218 16.9043 9.33624C16.8967 8.96119 16.9724 8.58236 16.9346 8.20732C16.9118 8.09367 16.7869 8.08988 16.696 8.09745C16.4726 8.16564 16.3589 8.38916 16.2075 8.54448C16.1658 8.68843 16.1393 8.83239 16.0976 8.97635C16.0598 9.04833 16.0787 9.12031 16.0976 9.19228C16.0711 9.22638 16.0446 9.26047 16.0181 9.29457C16.0408 9.3476 16.0636 9.40064 16.0863 9.45368C16.0673 9.46883 16.0333 9.49914 16.0143 9.51429C16.0068 9.63552 15.9992 9.75675 16.0143 9.87418C16.0181 9.9348 16.0219 9.99162 16.0295 10.0522C16.0219 10.1318 16.0181 10.2113 16.0181 10.2909C15.9537 10.4083 15.9272 10.5599 15.7947 10.6243C15.6583 10.7038 15.4955 10.7985 15.3365 10.7379C15.2001 10.6849 15.2115 10.5106 15.2153 10.3894C15.2531 9.76432 15.2683 9.13925 15.3062 8.51417C15.3175 8.29066 15.4311 8.05957 15.6394 7.9535C15.8401 7.855 16.0749 7.86258 16.2908 7.89288C16.5256 7.83227 16.6316 7.58224 16.8247 7.45344C17.0103 7.32463 17.264 7.21856 17.4837 7.32463C17.6011 7.37388 17.6314 7.50269 17.6692 7.61255C17.6768 7.67316 17.6882 7.73377 17.6958 7.7906C17.6579 7.88152 17.6617 7.97244 17.6882 8.06336C17.6882 8.13534 17.692 8.20353 17.692 8.27551L17.6655 8.29066C17.62 8.6657 17.6882 9.04075 17.6617 9.41579C17.6844 9.55975 17.7185 9.74917 17.8737 9.80599C18.1919 9.73023 18.4569 9.52944 18.7523 9.39685C18.9227 9.3173 19.1159 9.34003 19.2939 9.37791C19.3999 9.47262 19.4454 9.61658 19.4491 9.74538Z" fill="#FF0606"/>
<path d="M14.616 9.53685C14.6274 9.80203 14.616 10.0672 14.5857 10.3286C14.5327 10.5445 14.5592 10.7718 14.5517 10.9916C14.5138 11.1848 14.3358 11.3136 14.1692 11.3931C14.0631 11.4537 13.9154 11.4916 13.817 11.3931C13.7299 11.2719 13.7791 11.1166 13.7829 10.9802C13.8548 10.3248 13.8965 9.66186 13.995 9.01027C14.0442 8.72993 14.332 8.42687 14.635 8.55946C14.7562 8.88147 14.5857 9.21105 14.616 9.53685Z" fill="#FF0606"/>
<path d="M8.79527 9.94614C8.7006 10.1848 8.46201 10.3174 8.24994 10.4386C8.13255 10.4235 8 10.3591 8 10.2189C8.00379 9.93478 8.23858 9.71884 8.47716 9.60519C8.55669 9.56731 8.64379 9.58246 8.73089 9.59004C8.76876 9.70369 8.8445 9.82491 8.79527 9.94614Z" fill="#FF0606"/>
<path d="M33.6038 9.91997C33.4978 9.82147 33.3008 9.85557 33.1683 9.89724C33.1493 10.2003 33.1569 10.5034 33.1645 10.8064C32.8729 10.5147 32.3541 10.5791 32.0928 10.8784C31.8087 11.2004 31.7936 11.727 32.0435 12.0717C32.2821 12.4165 32.8691 12.5263 33.1569 12.1854C33.1721 12.2384 33.1569 12.3142 33.2137 12.3445C33.3463 12.3634 33.4826 12.3521 33.6151 12.3331C33.5962 11.53 33.6341 10.7231 33.6038 9.91997ZM32.7176 11.9846C32.2632 11.9581 32.1988 11.2194 32.6002 11.064C32.7328 11.011 32.8918 11.03 33.0054 11.1171C33.3198 11.3633 33.1645 12.0339 32.7176 11.9846Z" fill="#FF0606"/>
<path d="M34.5154 10.1318C34.5079 10.3477 34.2276 10.4728 34.061 10.3326C33.8944 10.2189 33.9209 9.94618 34.0951 9.85905C34.2806 9.7454 34.5419 9.91587 34.5154 10.1318Z" fill="#FF0606"/>
<path d="M10.5943 10.9616C10.405 11.1662 10.1248 11.2874 9.996 11.5526C9.78014 12.0716 9.85967 12.6436 9.79908 13.1891C9.77636 13.5036 9.46203 13.7347 9.16286 13.7422C8.96972 13.6816 8.97351 13.4392 8.98487 13.2725C9.01517 12.9732 8.99245 12.6739 9.02274 12.3784C9.08712 12.0413 9.08333 11.7003 9.10227 11.3594C9.1212 11.1813 9.15529 10.9805 9.30298 10.8593C9.42795 10.7419 9.59837 10.7002 9.76121 10.6775C9.96192 10.651 10.1323 10.5297 10.3217 10.4653C10.6019 10.3441 10.7648 10.7798 10.5943 10.9616Z" fill="#FF0606"/>
<path d="M29.7417 12.269C29.7341 12.3713 29.6016 12.3486 29.5296 12.3562C29.4539 12.3486 29.3176 12.3789 29.3062 12.269C29.2797 11.9357 29.3138 11.6023 29.291 11.2689C29.2835 11.1553 29.1888 11.053 29.0752 11.0378C28.8972 10.9924 28.7003 11.1287 28.6965 11.3144C28.6776 11.6402 28.7078 11.966 28.6851 12.2918C28.6548 12.3713 28.5526 12.3486 28.4882 12.3562C28.4087 12.3524 28.3178 12.3675 28.2496 12.3145C28.2042 11.9508 28.2723 11.5796 28.2193 11.2197C28.1398 10.9469 27.7005 10.981 27.6399 11.25C27.602 11.5909 27.6437 11.9357 27.6172 12.2766C27.602 12.3827 27.4619 12.3486 27.3862 12.36C27.3142 12.3524 27.1779 12.3789 27.1703 12.2766C27.159 11.7766 27.1665 11.2727 27.1665 10.7689C27.1779 10.6135 27.3786 10.6779 27.4846 10.6666C27.5983 10.6514 27.6058 10.7726 27.6096 10.8522C27.8482 10.534 28.3897 10.534 28.6018 10.8825C28.8215 10.5529 29.3592 10.5226 29.6129 10.8257C29.7606 10.9999 29.7531 11.2386 29.7493 11.4545C29.7417 11.7235 29.7568 11.9963 29.7417 12.269Z" fill="#FF0606"/>
<path d="M31.3529 10.7726C31.0386 10.5453 30.5614 10.5566 30.2774 10.8218C29.8532 11.1969 29.8987 11.9848 30.3948 12.2765C30.8 12.5341 31.4665 12.4016 31.618 11.9053C31.5384 11.7992 31.387 11.803 31.2696 11.7651C31.1787 11.8863 31.0651 12.0114 30.9022 12.0076C30.6674 12.0341 30.4629 11.8522 30.4289 11.6249C30.7848 11.6212 31.1408 11.6249 31.493 11.6249C31.5574 11.6212 31.6558 11.6363 31.6558 11.5416C31.671 11.2613 31.5839 10.9468 31.3529 10.7726ZM30.4364 11.3181C30.4781 11.1059 30.6826 10.943 30.9022 10.9923C31.0764 11.0075 31.1863 11.159 31.2166 11.3219C30.9552 11.3181 30.6977 11.3181 30.4364 11.3181Z" fill="#FF0606"/>
<path d="M36.4719 10.7121C36.3507 10.6174 36.1803 10.6818 36.0364 10.678C36.0364 10.7121 36.0326 10.7803 36.0288 10.8144C35.7789 10.553 35.332 10.5757 35.0632 10.7917C34.6845 11.0909 34.639 11.7009 34.9155 12.0835C35.1616 12.4358 35.7448 12.5305 36.044 12.1896C36.044 12.2274 36.0402 12.3032 36.0364 12.3411C36.1803 12.36 36.3318 12.3752 36.4757 12.3449C36.4795 11.7956 36.4909 11.25 36.4719 10.7121ZM35.5895 11.985C35.1124 11.966 35.0594 11.1629 35.51 11.0493C35.635 11.0152 35.7751 11.0379 35.8774 11.1212C36.1803 11.3713 36.0326 12.0267 35.5895 11.985Z" fill="#FF0606"/>
<path d="M34.4659 12.1362C34.4546 12.2044 34.4924 12.3181 34.4015 12.3446C34.2879 12.3597 34.1705 12.3635 34.0569 12.3446C33.9812 12.3029 34.0115 12.2044 34.0039 12.1362C34.0115 11.6665 33.9963 11.2005 34.0115 10.7308C34.0191 10.7156 34.038 10.6853 34.0456 10.6739C34.1781 10.6739 34.3599 10.6095 34.4546 10.7232C34.4735 11.1929 34.4583 11.6665 34.4659 12.1362Z" fill="#FF0606"/>
<path d="M8.43049 11.712C8.52516 11.9544 8.40398 12.2082 8.38883 12.4545C8.37368 12.8977 8.24114 13.3296 8.25629 13.7766C8.2525 13.9206 8.2222 14.0645 8.18433 14.2009C8.20706 14.2085 8.24871 14.2198 8.26765 14.2274C8.09345 14.3297 7.95333 14.4812 7.76398 14.557C7.63522 14.6025 7.47616 14.5191 7.47995 14.3714C7.45723 13.7463 7.55569 13.125 7.57084 12.4999C7.59356 12.1817 7.59735 11.818 7.83214 11.5718C7.95711 11.4544 8.12374 11.3331 8.30552 11.3596C8.44185 11.3937 8.43428 11.5566 8.47215 11.6665C8.46457 11.6741 8.44185 11.7006 8.43049 11.712Z" fill="#FF0606"/>
</svg>
