<svg width="25" height="25" viewBox="0 0 25 25" fill="none" xmlns="http://www.w3.org/2000/svg">
<path d="M12.643 24.9116C5.92924 25.0014 0.215913 19.2731 0.341888 12.2512C0.467863 5.70038 5.91442 -0.0951483 12.9987 0.0918042C19.6457 0.2638 25.0033 5.83498 24.9811 12.5578C24.9588 19.4152 19.327 25.0014 12.643 24.9116ZM1.91287 12.4905C1.89064 18.4057 6.59617 23.2664 12.4873 23.3562C18.5564 23.4459 23.4323 18.5253 23.4175 12.4755C23.4027 6.47062 18.586 1.66968 12.5985 1.67716C6.72214 1.66968 1.89805 6.55288 1.91287 12.4905Z" fill="#6300A9"/>
<path d="M11.7563 12.3336C13.0976 13.403 12.853 14.9659 12.1713 15.8035C11.6674 16.4167 10.993 16.7158 10.2298 16.7457C9.05155 16.7831 7.86591 16.7532 6.68026 16.7532C6.64321 16.7532 6.61357 16.7382 6.54688 16.7158C6.54688 13.919 6.54688 11.1222 6.54688 8.31789C6.5617 8.30293 6.57652 8.27302 6.59875 8.27302C7.88073 8.28797 9.17012 8.20572 10.4299 8.3478C12.0898 8.53475 12.9494 10.2398 12.2157 11.683C12.1046 11.9074 11.9267 12.1018 11.7563 12.3336ZM8.46614 11.511C8.92558 11.511 9.35538 11.5409 9.77776 11.5036C10.1705 11.4662 10.4076 11.1745 10.4299 10.8156C10.4521 10.4192 10.2594 10.1052 9.85187 10.0378C9.39984 9.96307 8.9404 9.97802 8.46614 9.94811C8.46614 10.5015 8.46614 10.9876 8.46614 11.511ZM8.47355 13.3282C8.47355 13.8592 8.47355 14.3527 8.47355 14.8537C8.91076 14.8537 9.32573 14.8836 9.74071 14.8463C10.1853 14.8014 10.4373 14.4873 10.4299 14.076C10.4225 13.6872 10.1631 13.3731 9.74812 13.3357C9.33314 13.2983 8.91817 13.3282 8.47355 13.3282Z" fill="#6300A9"/>
<path d="M17.2673 10.2468C17.2673 12.4379 17.2673 14.5692 17.2673 16.7229C16.5707 16.7229 15.9112 16.7229 15.1998 16.7229C15.1998 14.5916 15.1998 12.4603 15.1998 10.2842C14.5625 10.2842 13.9623 10.2842 13.3398 10.2842C13.3398 9.58876 13.3398 8.93817 13.3398 8.26514C15.2887 8.26514 17.2154 8.26514 19.1792 8.26514C19.1792 8.92321 19.1792 9.5738 19.1792 10.2543C18.5567 10.2468 17.9416 10.2468 17.2673 10.2468Z" fill="#6300A9"/>
</svg>
