<svg width="163" height="28" viewBox="0 0 163 28" fill="none" xmlns="http://www.w3.org/2000/svg">
<rect y="4.86621" width="31.142" height="18.2677" rx="9.13384" fill="#015AFF"/>
<rect x="14.0049" y="6.51855" width="15.3101" height="14.9621" rx="7.48105" fill="white"/>
<path d="M26.342 12.0202C25.0952 10.7734 23.4362 10.083 21.6639 10.083C19.8916 10.083 18.2327 10.7734 16.9859 12.0202C16.6974 12.3087 16.6974 12.7621 16.9859 13.0506C17.1302 13.1948 17.3156 13.2669 17.5011 13.2669C17.6866 13.2669 17.8721 13.1948 18.0163 13.0506C18.9849 12.0717 20.2832 11.5359 21.6639 11.5359C23.0447 11.5359 24.343 12.0717 25.3116 13.0506C25.6001 13.3391 26.0534 13.3391 26.342 13.0506C26.6305 12.7621 26.6305 12.2984 26.342 12.0202Z" fill="#216CF6"/>
<path d="M18.9224 13.9674C18.6339 14.2559 18.6339 14.7093 18.9224 14.9978C19.0667 15.142 19.2522 15.2142 19.4376 15.2142C19.6231 15.2142 19.8086 15.142 19.9528 14.9978C20.9008 14.0498 22.4361 14.0498 23.3738 14.9875C23.652 15.276 24.1157 15.276 24.4042 14.9875C24.6927 14.699 24.6927 14.2456 24.4042 13.9571C22.8895 12.4527 20.4371 12.4527 18.9224 13.9674Z" fill="#216CF6"/>
<path d="M21.6745 17.8313C22.3004 17.8313 22.8079 17.3239 22.8079 16.6979C22.8079 16.0719 22.3004 15.5645 21.6745 15.5645C21.0485 15.5645 20.541 16.0719 20.541 16.6979C20.541 17.3239 21.0485 17.8313 21.6745 17.8313Z" fill="#216CF6"/>
<path d="M49.8298 12.4922H47.0301C46.979 12.13 46.8746 11.8082 46.7169 11.527C46.5592 11.2415 46.3568 10.9986 46.1096 10.7983C45.8625 10.598 45.577 10.4446 45.2531 10.3381C44.9335 10.2315 44.5862 10.1783 44.2112 10.1783C43.5336 10.1783 42.9434 10.3466 42.4406 10.6832C41.9378 11.0156 41.5479 11.5014 41.2709 12.1406C40.9939 12.7756 40.8554 13.5469 40.8554 14.4545C40.8554 15.3878 40.9939 16.1719 41.2709 16.8068C41.5521 17.4418 41.9442 17.9212 42.447 18.245C42.9498 18.5689 43.5315 18.7308 44.192 18.7308C44.5628 18.7308 44.9058 18.6818 45.2211 18.5838C45.5407 18.4858 45.8241 18.343 46.0713 18.1555C46.3184 17.9638 46.523 17.7315 46.6849 17.4588C46.8511 17.1861 46.9662 16.875 47.0301 16.5256L49.8298 16.5384C49.7574 17.1392 49.5763 17.7188 49.2865 18.277C49.001 18.831 48.6153 19.3274 48.1295 19.7663C47.648 20.201 47.0727 20.5462 46.4037 20.8018C45.7389 21.0533 44.9868 21.179 44.1473 21.179C42.9797 21.179 41.9356 20.9148 41.0152 20.3864C40.099 19.858 39.3746 19.093 38.8419 18.0916C38.3135 17.0902 38.0493 15.8778 38.0493 14.4545C38.0493 13.027 38.3177 11.8125 38.8547 10.8111C39.3916 9.80966 40.1203 9.04687 41.0407 8.52273C41.9612 7.99432 42.9967 7.73011 44.1473 7.73011C44.9058 7.73011 45.6089 7.83665 46.2567 8.04972C46.9086 8.26278 47.4861 8.57386 47.9889 8.98295C48.4917 9.38778 48.9008 9.88423 49.2162 10.4723C49.5358 11.0604 49.7403 11.7337 49.8298 12.4922ZM51.8145 21V7.90909H60.4822V10.1911H54.5823V13.3104H59.9069V15.5923H54.5823V21H51.8145ZM66.5099 21V7.90909H71.7513C72.7144 7.90909 73.5177 8.05185 74.1611 8.33736C74.8046 8.62287 75.2883 9.01918 75.6121 9.52628C75.936 10.0291 76.0979 10.6087 76.0979 11.2649C76.0979 11.7763 75.9957 12.2259 75.7911 12.6136C75.5866 12.9972 75.3053 13.3125 74.9474 13.5597C74.5937 13.8026 74.1888 13.9751 73.7329 14.0774V14.2053C74.2314 14.2266 74.6981 14.3672 75.1327 14.6271C75.5716 14.8871 75.9275 15.2514 76.2002 15.7202C76.4729 16.1847 76.6093 16.7386 76.6093 17.3821C76.6093 18.0767 76.4367 18.6967 76.0915 19.2422C75.7506 19.7834 75.2457 20.2116 74.5766 20.527C73.9076 20.8423 73.083 21 72.1029 21H66.5099ZM69.2776 18.7372H71.534C72.3053 18.7372 72.8678 18.5902 73.2215 18.2962C73.5752 17.9979 73.752 17.6016 73.752 17.1072C73.752 16.745 73.6647 16.4254 73.49 16.1484C73.3153 15.8714 73.066 15.6541 72.7421 15.4964C72.4225 15.3388 72.0411 15.2599 71.5979 15.2599H69.2776V18.7372ZM69.2776 13.3871H71.3295C71.7087 13.3871 72.0454 13.321 72.3394 13.1889C72.6377 13.0526 72.8721 12.8608 73.0425 12.6136C73.2172 12.3665 73.3046 12.0703 73.3046 11.7251C73.3046 11.2521 73.1363 10.8707 72.7996 10.581C72.4672 10.2912 71.9942 10.1463 71.3806 10.1463H69.2776V13.3871ZM78.3591 21V11.1818H80.999V12.8949H81.1013C81.2803 12.2855 81.5807 11.8253 82.0026 11.5142C82.4244 11.1989 82.9102 11.0412 83.46 11.0412C83.5963 11.0412 83.7433 11.0497 83.901 11.0668C84.0587 11.0838 84.1972 11.1072 84.3165 11.1371V13.5533C84.1887 13.5149 84.0118 13.4808 83.786 13.451C83.5601 13.4212 83.3534 13.4062 83.1659 13.4062C82.7654 13.4062 82.4074 13.4936 82.0921 13.6683C81.781 13.8388 81.5338 14.0774 81.3506 14.3842C81.1716 14.6911 81.0821 15.0447 81.0821 15.4453V21H78.3591ZM89.7034 21.1918C88.7105 21.1918 87.8518 20.9808 87.1274 20.5589C86.4072 20.1328 85.8511 19.5405 85.4591 18.782C85.067 18.0192 84.871 17.1349 84.871 16.1293C84.871 15.1151 85.067 14.2287 85.4591 13.4702C85.8511 12.7074 86.4072 12.1151 87.1274 11.6932C87.8518 11.267 88.7105 11.054 89.7034 11.054C90.6963 11.054 91.5528 11.267 92.273 11.6932C92.9974 12.1151 93.5557 12.7074 93.9477 13.4702C94.3398 14.2287 94.5358 15.1151 94.5358 16.1293C94.5358 17.1349 94.3398 18.0192 93.9477 18.782C93.5557 19.5405 92.9974 20.1328 92.273 20.5589C91.5528 20.9808 90.6963 21.1918 89.7034 21.1918ZM89.7162 19.0824C90.1679 19.0824 90.545 18.9545 90.8476 18.6989C91.1501 18.4389 91.3781 18.0852 91.5315 17.6378C91.6892 17.1903 91.768 16.6811 91.768 16.1101C91.768 15.5391 91.6892 15.0298 91.5315 14.5824C91.3781 14.1349 91.1501 13.7812 90.8476 13.5213C90.545 13.2614 90.1679 13.1314 89.7162 13.1314C89.2602 13.1314 88.8767 13.2614 88.5656 13.5213C88.2588 13.7812 88.0265 14.1349 87.8689 14.5824C87.7155 15.0298 87.6388 15.5391 87.6388 16.1101C87.6388 16.6811 87.7155 17.1903 87.8689 17.6378C88.0265 18.0852 88.2588 18.4389 88.5656 18.6989C88.8767 18.9545 89.2602 19.0824 89.7162 19.0824ZM99.1061 21.1854C98.4797 21.1854 97.9214 21.0767 97.4314 20.8594C96.9413 20.6378 96.5535 20.3118 96.268 19.8814C95.9868 19.4467 95.8461 18.9055 95.8461 18.2578C95.8461 17.7124 95.9463 17.2543 96.1466 16.8835C96.3469 16.5128 96.6196 16.2145 96.9648 15.9886C97.3099 15.7628 97.702 15.5923 98.1409 15.4773C98.5841 15.3622 99.0486 15.2812 99.5344 15.2344C100.105 15.1747 100.566 15.1193 100.915 15.0682C101.264 15.0128 101.518 14.9318 101.676 14.8253C101.833 14.7187 101.912 14.5611 101.912 14.3523V14.3139C101.912 13.9091 101.784 13.5959 101.529 13.3743C101.277 13.1527 100.919 13.0419 100.455 13.0419C99.9648 13.0419 99.5748 13.1506 99.2851 13.3679C98.9953 13.581 98.8035 13.8494 98.7098 14.1733L96.1913 13.9688C96.3192 13.3722 96.5706 12.8565 96.9456 12.4219C97.3206 11.983 97.8042 11.6463 98.3966 11.4119C98.9932 11.1733 99.6835 11.054 100.468 11.054C101.013 11.054 101.535 11.1179 102.034 11.2457C102.536 11.3736 102.982 11.5717 103.37 11.8402C103.762 12.1087 104.071 12.4538 104.296 12.8757C104.522 13.2933 104.635 13.794 104.635 14.3778V21H102.053V19.6385H101.976C101.818 19.9453 101.608 20.2159 101.343 20.4503C101.079 20.6804 100.762 20.8615 100.391 20.9936C100.02 21.1214 99.5919 21.1854 99.1061 21.1854ZM99.8859 19.3061C100.286 19.3061 100.64 19.2273 100.947 19.0696C101.254 18.9077 101.495 18.6903 101.669 18.4176C101.844 18.1449 101.931 17.8359 101.931 17.4908V16.4489C101.846 16.5043 101.729 16.5554 101.58 16.6023C101.435 16.6449 101.271 16.6854 101.088 16.7237C100.904 16.7578 100.721 16.7898 100.538 16.8196C100.355 16.8452 100.188 16.8686 100.039 16.8899C99.7197 16.9368 99.4406 17.0114 99.202 17.1136C98.9633 17.2159 98.778 17.3544 98.6459 17.5291C98.5138 17.6996 98.4477 17.9126 98.4477 18.1683C98.4477 18.5391 98.5819 18.8224 98.8504 19.0185C99.1231 19.2102 99.4683 19.3061 99.8859 19.3061ZM110.366 21.1598C109.62 21.1598 108.945 20.968 108.339 20.5845C107.739 20.1967 107.261 19.6278 106.908 18.8778C106.558 18.1236 106.383 17.1989 106.383 16.1037C106.383 14.9787 106.565 14.0433 106.927 13.2976C107.289 12.5476 107.771 11.9872 108.371 11.6165C108.976 11.2415 109.639 11.054 110.359 11.054C110.909 11.054 111.367 11.1477 111.734 11.3352C112.104 11.5185 112.403 11.7486 112.628 12.0256C112.859 12.2983 113.033 12.5668 113.153 12.831H113.236V7.90909H115.952V21H113.268V19.4276H113.153C113.025 19.7003 112.844 19.9709 112.609 20.2393C112.379 20.5036 112.079 20.723 111.708 20.8977C111.342 21.0724 110.894 21.1598 110.366 21.1598ZM111.229 18.9929C111.668 18.9929 112.038 18.8736 112.341 18.6349C112.648 18.392 112.882 18.0533 113.044 17.6186C113.21 17.1839 113.293 16.6747 113.293 16.0909C113.293 15.5071 113.212 15 113.05 14.5696C112.888 14.1392 112.654 13.8068 112.347 13.5724C112.04 13.3381 111.668 13.2209 111.229 13.2209C110.781 13.2209 110.404 13.3423 110.097 13.5852C109.79 13.8281 109.558 14.1648 109.4 14.5952C109.243 15.0256 109.164 15.5241 109.164 16.0909C109.164 16.6619 109.243 17.1669 109.4 17.6058C109.562 18.0405 109.795 18.3814 110.097 18.6286C110.404 18.8714 110.781 18.9929 111.229 18.9929ZM118.242 21V7.90909H120.965V12.831H121.048C121.168 12.5668 121.34 12.2983 121.566 12.0256C121.796 11.7486 122.095 11.5185 122.461 11.3352C122.832 11.1477 123.292 11.054 123.842 11.054C124.558 11.054 125.218 11.2415 125.823 11.6165C126.428 11.9872 126.912 12.5476 127.274 13.2976C127.636 14.0433 127.818 14.9787 127.818 16.1037C127.818 17.1989 127.641 18.1236 127.287 18.8778C126.938 19.6278 126.46 20.1967 125.855 20.5845C125.254 20.968 124.581 21.1598 123.835 21.1598C123.307 21.1598 122.857 21.0724 122.487 20.8977C122.12 20.723 121.82 20.5036 121.585 20.2393C121.351 19.9709 121.172 19.7003 121.048 19.4276H120.927V21H118.242ZM120.908 16.0909C120.908 16.6747 120.989 17.1839 121.151 17.6186C121.313 18.0533 121.547 18.392 121.854 18.6349C122.161 18.8736 122.533 18.9929 122.972 18.9929C123.416 18.9929 123.791 18.8714 124.097 18.6286C124.404 18.3814 124.636 18.0405 124.794 17.6058C124.956 17.1669 125.037 16.6619 125.037 16.0909C125.037 15.5241 124.958 15.0256 124.801 14.5952C124.643 14.1648 124.411 13.8281 124.104 13.5852C123.797 13.3423 123.42 13.2209 122.972 13.2209C122.529 13.2209 122.154 13.3381 121.847 13.5724C121.545 13.8068 121.313 14.1392 121.151 14.5696C120.989 15 120.908 15.5071 120.908 16.0909ZM132.434 21.1854C131.808 21.1854 131.25 21.0767 130.759 20.8594C130.269 20.6378 129.882 20.3118 129.596 19.8814C129.315 19.4467 129.174 18.9055 129.174 18.2578C129.174 17.7124 129.274 17.2543 129.475 16.8835C129.675 16.5128 129.948 16.2145 130.293 15.9886C130.638 15.7628 131.03 15.5923 131.469 15.4773C131.912 15.3622 132.377 15.2812 132.862 15.2344C133.434 15.1747 133.894 15.1193 134.243 15.0682C134.593 15.0128 134.846 14.9318 135.004 14.8253C135.161 14.7187 135.24 14.5611 135.24 14.3523V14.3139C135.24 13.9091 135.112 13.5959 134.857 13.3743C134.605 13.1527 134.247 13.0419 133.783 13.0419C133.293 13.0419 132.903 13.1506 132.613 13.3679C132.323 13.581 132.132 13.8494 132.038 14.1733L129.519 13.9688C129.647 13.3722 129.899 12.8565 130.274 12.4219C130.649 11.983 131.132 11.6463 131.725 11.4119C132.321 11.1733 133.012 11.054 133.796 11.054C134.341 11.054 134.863 11.1179 135.362 11.2457C135.865 11.3736 136.31 11.5717 136.698 11.8402C137.09 12.1087 137.399 12.4538 137.625 12.8757C137.85 13.2933 137.963 13.794 137.963 14.3778V21H135.381V19.6385H135.304C135.147 19.9453 134.936 20.2159 134.671 20.4503C134.407 20.6804 134.09 20.8615 133.719 20.9936C133.348 21.1214 132.92 21.1854 132.434 21.1854ZM133.214 19.3061C133.615 19.3061 133.968 19.2273 134.275 19.0696C134.582 18.9077 134.823 18.6903 134.997 18.4176C135.172 18.1449 135.259 17.8359 135.259 17.4908V16.4489C135.174 16.5043 135.057 16.5554 134.908 16.6023C134.763 16.6449 134.599 16.6854 134.416 16.7237C134.233 16.7578 134.049 16.7898 133.866 16.8196C133.683 16.8452 133.517 16.8686 133.367 16.8899C133.048 16.9368 132.769 17.0114 132.53 17.1136C132.291 17.2159 132.106 17.3544 131.974 17.5291C131.842 17.6996 131.776 17.9126 131.776 18.1683C131.776 18.5391 131.91 18.8224 132.179 19.0185C132.451 19.2102 132.796 19.3061 133.214 19.3061ZM142.799 15.3239V21H140.076V11.1818H142.671V12.9141H142.786C143.003 12.343 143.368 11.8913 143.879 11.5589C144.391 11.2223 145.011 11.054 145.739 11.054C146.421 11.054 147.016 11.2031 147.523 11.5014C148.03 11.7997 148.424 12.2259 148.705 12.7798C148.986 13.3295 149.127 13.9858 149.127 14.7486V21H146.404V15.2344C146.408 14.6335 146.255 14.1648 145.944 13.8281C145.633 13.4872 145.204 13.3168 144.659 13.3168C144.293 13.3168 143.969 13.3956 143.687 13.5533C143.41 13.7109 143.193 13.9411 143.035 14.2436C142.882 14.5419 142.803 14.902 142.799 15.3239ZM154.891 21.1598C154.145 21.1598 153.47 20.968 152.865 20.5845C152.264 20.1967 151.787 19.6278 151.433 18.8778C151.084 18.1236 150.909 17.1989 150.909 16.1037C150.909 14.9787 151.09 14.0433 151.452 13.2976C151.814 12.5476 152.296 11.9872 152.897 11.6165C153.502 11.2415 154.165 11.054 154.885 11.054C155.434 11.054 155.892 11.1477 156.259 11.3352C156.63 11.5185 156.928 11.7486 157.154 12.0256C157.384 12.2983 157.559 12.5668 157.678 12.831H157.761V7.90909H160.478V21H157.793V19.4276H157.678C157.55 19.7003 157.369 19.9709 157.135 20.2393C156.905 20.5036 156.604 20.723 156.233 20.8977C155.867 21.0724 155.419 21.1598 154.891 21.1598ZM155.754 18.9929C156.193 18.9929 156.564 18.8736 156.866 18.6349C157.173 18.392 157.407 18.0533 157.569 17.6186C157.736 17.1839 157.819 16.6747 157.819 16.0909C157.819 15.5071 157.738 15 157.576 14.5696C157.414 14.1392 157.179 13.8068 156.873 13.5724C156.566 13.3381 156.193 13.2209 155.754 13.2209C155.307 13.2209 154.929 13.3423 154.623 13.5852C154.316 13.8281 154.084 14.1648 153.926 14.5952C153.768 15.0256 153.689 15.5241 153.689 16.0909C153.689 16.6619 153.768 17.1669 153.926 17.6058C154.088 18.0405 154.32 18.3814 154.623 18.6286C154.929 18.8714 155.307 18.9929 155.754 18.9929Z" fill="#001429"/>
</svg>
