<svg width="34" height="25" viewBox="0 0 34 25" fill="none" xmlns="http://www.w3.org/2000/svg">
<path d="M18.0563 4.30911C18.0279 4.13132 18.0492 3.94642 18.0776 3.76152C18.2622 2.50277 19.2278 1.44315 20.456 1.12313C20.5554 1.09468 20.6335 1.11601 20.7187 1.15868C21.521 1.56404 22.238 2.0903 22.8628 2.74457C23.9349 3.86819 24.6165 5.19806 24.9004 6.72705C25.014 7.33865 25.0566 7.95024 25.0211 8.56895C24.9004 10.4677 24.2047 12.1176 22.8983 13.5044C21.7908 14.6778 20.4418 15.4316 18.8586 15.773C18.2267 15.9081 17.5877 15.965 16.9488 15.9365C15.046 15.8441 13.3776 15.1685 11.9719 13.8671C10.7294 12.715 9.94134 11.2998 9.61475 9.62857C9.47986 8.94586 9.44436 8.25604 9.49406 7.56622C9.62895 5.80966 10.2821 4.25933 11.4607 2.94369C12.554 1.71339 13.9101 0.916889 15.5146 0.547087C16.1536 0.397744 16.8068 0.33374 17.4599 0.355074C18.461 0.383521 19.4266 0.596868 20.3495 0.995117C20.3779 1.00934 20.4063 1.02356 20.4276 1.05201C20.314 1.0449 20.2075 1.03067 20.0939 1.03067C19.526 1.02356 18.9722 1.10179 18.4255 1.24402C17.2043 1.55693 16.0968 2.11163 15.1525 2.95791C14.0095 3.98198 13.2924 5.24784 13.0155 6.76261C12.8309 7.77956 12.9161 8.7823 13.3208 9.73525C13.8249 10.9229 14.6698 11.7692 15.8767 12.2385C17.6161 12.9141 19.9022 12.3381 20.9956 10.3255C21.4216 9.54324 21.5778 8.70407 21.4784 7.81512C21.4074 7.15374 21.2015 6.54926 20.8181 6.00167C20.4702 5.51097 20.0087 5.14828 19.4834 4.86382C19.0858 4.65047 18.6669 4.50113 18.2338 4.38023C18.1841 4.36601 18.1344 4.35178 18.0847 4.33756C18.0776 4.33045 18.0705 4.32334 18.0563 4.30911Z" fill="#ED1C24"/>
<path d="M12.0471 18.5967C12.4163 18.5967 12.7642 18.5967 13.1121 18.5967C13.1192 18.6038 13.1263 18.6038 13.1263 18.6109L13.1334 18.618C13.1334 18.6465 13.1405 18.6678 13.1405 18.6962C13.1405 20.6377 13.1405 22.5863 13.1405 24.5277C13.0482 24.5562 12.3524 24.5704 12.1323 24.542C12.1181 24.4495 12.1039 24.3571 12.0826 24.2504C12.0542 24.2646 12.0329 24.2717 12.0187 24.2859C11.4791 24.8051 10.6414 24.7055 10.1657 24.3713C9.88878 24.1722 9.67579 23.9233 9.5409 23.6175C9.20721 22.885 9.17171 22.1311 9.4628 21.3773C9.71129 20.7444 10.1657 20.3319 10.833 20.1826C11.1738 20.1043 11.5217 20.1186 11.8625 20.211C11.9122 20.2252 11.9619 20.2323 12.0329 20.2537C12.0329 20.1968 12.04 20.1541 12.04 20.1043C12.04 19.6492 12.04 19.1869 12.04 18.7318C12.04 18.6891 12.04 18.6393 12.0471 18.5967ZM12.04 22.2663C12.04 21.9462 12.04 21.6262 12.04 21.3062C12.04 21.1853 12.04 21.1853 11.9264 21.1497C11.8199 21.1213 11.7063 21.0857 11.5927 21.0715C11.2448 21.0288 10.9324 21.1071 10.684 21.3773C10.5633 21.5124 10.4781 21.6689 10.4213 21.8467C10.329 22.1454 10.329 22.444 10.3787 22.7427C10.4142 22.949 10.4781 23.1481 10.6059 23.3259C10.9679 23.8237 11.5572 23.7881 11.9406 23.4397C12.0116 23.3757 12.04 23.3045 12.04 23.205C12.0329 22.8992 12.04 22.5863 12.04 22.2663Z" fill="#ED1C24"/>
<path d="M33.985 22.6708C33.0479 22.6708 32.132 22.6708 31.1948 22.6708C31.2019 22.7348 31.2019 22.7917 31.2161 22.8415C31.2871 23.3108 31.5853 23.6095 32.0539 23.6735C32.5651 23.7446 33.0408 23.638 33.4738 23.3535C33.488 23.3464 33.4951 23.3393 33.5235 23.3251C33.6229 23.6166 33.7152 23.9082 33.8146 24.214C33.7223 24.2709 33.63 24.3278 33.5377 24.3705C32.8988 24.6336 32.2456 24.726 31.5711 24.5625C30.8966 24.3989 30.4565 23.958 30.2435 23.3108C30.0234 22.6495 30.0376 21.9739 30.3003 21.3267C30.6411 20.4875 31.4149 20.1249 32.0823 20.1391C32.274 20.1462 32.4586 20.1604 32.6432 20.2031C33.1473 20.3382 33.5022 20.644 33.7294 21.1134C33.9282 21.5329 33.9921 21.9739 33.9992 22.4361C33.985 22.5072 33.985 22.5783 33.985 22.6708ZM32.8633 21.8743C32.8349 21.5472 32.7284 21.2769 32.4444 21.1134C32.1604 20.9498 31.8835 20.9854 31.6137 21.1631C31.3581 21.3267 31.2516 21.5685 31.2232 21.8743C31.777 21.8743 32.3095 21.8743 32.8633 21.8743Z" fill="#ED1C24"/>
<path d="M16.2383 21.7536C16.3022 21.3624 16.0892 21.078 15.7058 21.0353C15.4219 21.0068 15.1521 21.0566 14.9036 21.1846C14.7687 21.2557 14.6409 21.3411 14.4918 21.4193C14.3782 21.1704 14.2575 20.9215 14.1368 20.6584C14.1865 20.6228 14.2291 20.5873 14.2717 20.5588C14.6977 20.2886 15.1592 20.1463 15.6632 20.1321C15.862 20.125 16.0679 20.1392 16.2667 20.1819C16.8418 20.317 17.1826 20.6797 17.3104 21.2486C17.3459 21.4051 17.3601 21.5687 17.3672 21.7322C17.3743 22.6283 17.3672 23.5243 17.3672 24.4204C17.3672 24.4488 17.3672 24.4844 17.3601 24.5128C17.2678 24.5413 16.6146 24.5484 16.3661 24.5271C16.3519 24.4346 16.3306 24.3422 16.3164 24.2355C16.288 24.2568 16.2667 24.2639 16.2454 24.2782C15.9188 24.5697 15.5213 24.6622 15.0953 24.6266C14.7971 24.6053 14.5344 24.4986 14.3001 24.3066C13.9522 24.015 13.8031 23.6381 13.8315 23.183C13.8528 22.7421 14.0658 22.422 14.435 22.1874C14.719 22.0025 15.0385 21.9029 15.3722 21.8531C15.5994 21.8176 15.8265 21.7962 16.0537 21.7678C16.1034 21.7678 16.1744 21.7607 16.2383 21.7536ZM16.2596 22.5429C16.217 22.5429 16.1886 22.5358 16.1673 22.5358C15.9188 22.5714 15.6703 22.5998 15.429 22.6496C15.3154 22.671 15.2018 22.7278 15.1095 22.799C14.9249 22.9412 14.8539 23.1474 14.9107 23.375C14.9604 23.5741 15.1095 23.6737 15.3012 23.7021C15.6419 23.7661 15.9401 23.6666 16.2099 23.4532C16.2383 23.4319 16.2596 23.3892 16.2596 23.3537C16.2667 23.0905 16.2596 22.8203 16.2596 22.5429Z" fill="#ED1C24"/>
<path d="M4.58594 22.3795C4.60014 21.8461 4.72793 21.3483 5.04742 20.9145C5.38821 20.4522 5.84969 20.1962 6.41766 20.1464C6.65905 20.1251 6.90044 20.1251 7.14183 20.182C7.75951 20.3242 8.20679 20.694 8.46948 21.2629C8.83157 22.0523 8.81027 22.8559 8.40558 23.624C8.12159 24.1574 7.67431 24.4987 7.07794 24.6054C6.34667 24.7334 5.69349 24.5769 5.18231 24.008C4.88413 23.6809 4.72083 23.2826 4.64984 22.8488C4.60724 22.6995 4.60014 22.543 4.58594 22.3795ZM5.66509 22.3724C5.67929 22.5004 5.68639 22.6284 5.70769 22.7493C5.74319 22.9768 5.82839 23.1902 5.97038 23.3751C6.28277 23.7804 6.92884 23.7947 7.25543 23.4462C7.39742 23.2969 7.49682 23.1191 7.54652 22.9199C7.62461 22.6355 7.63881 22.3368 7.59622 22.0452C7.56072 21.8177 7.48972 21.5972 7.34773 21.4123C7.11344 21.1136 6.80815 20.9998 6.43896 21.078C6.13367 21.1492 5.93488 21.3554 5.81419 21.6327C5.70769 21.8745 5.67219 22.1235 5.66509 22.3724Z" fill="#ED1C24"/>
<path d="M25.5929 20.2536C25.9195 20.2536 26.239 20.2536 26.5727 20.2536C26.594 20.3531 26.6153 20.4527 26.6366 20.5736C26.6863 20.538 26.7218 20.5167 26.7573 20.4882C27.2756 20.1469 27.8294 20.0473 28.4257 20.218C28.7665 20.3176 29.015 20.538 29.1783 20.8509C29.299 21.0785 29.3629 21.3274 29.3842 21.5834C29.3984 21.7399 29.4055 21.8963 29.4055 22.0599C29.4055 22.8422 29.4055 23.6244 29.4055 24.4067C29.4055 24.4494 29.4055 24.4849 29.4055 24.5205C29.3061 24.5561 28.5748 24.5632 28.3121 24.5347C28.3121 24.4849 28.305 24.4352 28.305 24.3854C28.305 23.6387 28.3121 22.8991 28.305 22.1523C28.305 21.9746 28.2837 21.7897 28.2411 21.619C28.0849 21.0643 27.6093 20.9718 27.2259 21.1069C27.0271 21.1781 26.8638 21.3061 26.7147 21.4412C26.665 21.4839 26.6721 21.5336 26.6721 21.5834C26.6721 21.8679 26.6721 22.1452 26.6721 22.4297C26.6721 23.0769 26.6721 23.724 26.6721 24.3712C26.6721 24.4209 26.6721 24.4778 26.6721 24.5347C26.3029 24.5347 25.9479 24.5347 25.5929 24.5347C25.5717 24.4494 25.5646 20.4598 25.5929 20.2536Z" fill="#ED1C24"/>
<path d="M24.8902 22.3798C24.8689 22.8918 24.7482 23.3754 24.4571 23.8021C24.0737 24.3568 23.5413 24.6341 22.8739 24.6484C22.5189 24.6555 22.1852 24.5986 21.8657 24.435C21.4611 24.2217 21.17 23.9017 20.9925 23.4821C20.6801 22.7709 20.6659 22.0598 20.9712 21.3415C21.2339 20.7299 21.6882 20.3174 22.3485 20.1894C23.0301 20.0543 23.662 20.1681 24.1873 20.6588C24.5139 20.9646 24.7127 21.3486 24.805 21.7824C24.8476 21.9744 24.8618 22.1806 24.8902 22.3798ZM23.804 22.3798C23.7898 22.2589 23.7827 22.1309 23.7685 22.01C23.733 21.7966 23.662 21.5904 23.5271 21.4197C23.1579 20.9361 22.4763 20.9361 22.1142 21.4268C22.0432 21.5264 21.9864 21.6402 21.9438 21.754C21.8302 22.0811 21.816 22.4153 21.8728 22.7567C21.9083 22.9487 21.9722 23.1336 22.0787 23.2972C22.313 23.667 22.7106 23.7736 23.094 23.6599C23.3283 23.5887 23.4916 23.4252 23.6052 23.2118C23.7472 22.9487 23.7898 22.6713 23.804 22.3798Z" fill="#ED1C24"/>
<path d="M18.5183 21.1346C18.3195 21.1346 18.142 21.1346 17.9503 21.1346C17.9361 20.8359 17.9432 20.5515 17.9432 20.2457C18.1349 20.2457 18.3195 20.2457 18.5183 20.2457C18.5183 20.1746 18.5183 20.1177 18.5183 20.0608C18.5325 19.8759 18.5254 19.691 18.5609 19.5132C18.6745 18.93 19.0365 18.5887 19.6258 18.5033C20.0518 18.4393 20.4707 18.482 20.8967 18.6527C20.8541 18.9514 20.8186 19.2501 20.776 19.5559C20.7263 19.5416 20.6908 19.5345 20.6553 19.5203C20.4778 19.4492 20.3003 19.435 20.1086 19.4421C19.8317 19.4563 19.6542 19.6128 19.6116 19.8972C19.5974 20.0039 19.5974 20.1177 19.5903 20.2386C19.9098 20.2386 20.208 20.2386 20.5275 20.2386C20.5346 20.5444 20.5275 20.8288 20.5346 21.1346C20.2222 21.1346 19.924 21.1346 19.6116 21.1346C19.6116 22.2796 19.6116 23.4032 19.6116 24.5411C19.2424 24.5411 18.8874 24.5411 18.5183 24.5411C18.5041 24.406 18.5112 24.2637 18.5112 24.1286C18.5112 23.9864 18.5112 23.8441 18.5112 23.709C18.5112 23.5668 18.5112 23.4246 18.5112 23.2894C18.5112 23.1472 18.5112 22.9979 18.5112 22.8556C18.5112 22.7134 18.5112 22.5712 18.5112 22.4361C18.5112 22.2938 18.5112 22.1516 18.5112 22.0165C18.5112 21.8742 18.5112 21.732 18.5112 21.5969C18.5183 21.4404 18.5183 21.2982 18.5183 21.1346Z" fill="#ED1C24"/>
<path d="M0 20.2527C0.0212991 20.2527 0.0425983 20.2456 0.0638974 20.2456C0.418883 20.2456 0.773869 20.2456 1.14305 20.2456C1.51224 21.1843 1.88142 22.1302 2.25771 23.0689C2.26481 23.0689 2.27901 23.0689 2.28611 23.0689C2.64109 22.1302 3.00318 21.1914 3.35816 20.2527C3.72735 20.2527 4.08944 20.2527 4.47282 20.2527C3.89064 21.6893 3.31557 23.1116 2.73339 24.541C2.4139 24.541 2.09442 24.541 1.78203 24.541C1.70393 24.413 0.0141994 20.3523 0 20.2527Z" fill="#ED1C24"/>
</svg>
